<svg width="215" height="122" viewBox="0 0 215 122" fill="none" xmlns="http://www.w3.org/2000/svg">
<path d="M20.5825 81.1157C20.9307 80.3129 22.0693 80.3129 22.4175 81.1157L27.1036 91.9224C27.2485 92.2565 27.5636 92.4855 27.9262 92.52L39.652 93.6374C40.5232 93.7204 40.875 94.8033 40.219 95.3825L31.3894 103.179C31.1164 103.42 30.996 103.79 31.0752 104.146L33.636 115.643C33.8263 116.497 32.9051 117.166 32.1516 116.721L22.0084 110.733C21.6948 110.548 21.3052 110.548 20.9916 110.733L10.8485 116.721C10.0949 117.166 9.17372 116.497 9.36398 115.643L11.9248 104.146C12.004 103.79 11.8836 103.42 11.6106 103.179L2.78096 95.3825C2.12496 94.8033 2.4768 93.7204 3.34797 93.6374L15.0738 92.52C15.4364 92.4855 15.7515 92.2565 15.8964 91.9224L20.5825 81.1157Z" fill="#FFC200"/>
<path d="M63.5825 81.1157C63.9307 80.3129 65.0693 80.3129 65.4175 81.1157L70.1036 91.9224C70.2485 92.2565 70.5636 92.4855 70.9262 92.52L82.652 93.6374C83.5232 93.7204 83.875 94.8033 83.219 95.3825L74.3894 103.179C74.1164 103.42 73.996 103.79 74.0752 104.146L76.636 115.643C76.8263 116.497 75.9051 117.166 75.1516 116.721L65.0084 110.733C64.6948 110.548 64.3052 110.548 63.9916 110.733L53.8485 116.721C53.0949 117.166 52.1737 116.497 52.364 115.643L54.9248 104.146C55.004 103.79 54.8836 103.42 54.6106 103.179L45.781 95.3825C45.125 94.8033 45.4768 93.7204 46.348 93.6374L58.0738 92.52C58.4364 92.4855 58.7515 92.2565 58.8964 91.9224L63.5825 81.1157Z" fill="#FFC200"/>
<path d="M106.583 81.1157C106.931 80.3129 108.069 80.3129 108.417 81.1157L113.104 91.9224C113.248 92.2565 113.564 92.4855 113.926 92.52L125.652 93.6374C126.523 93.7204 126.875 94.8033 126.219 95.3825L117.389 103.179C117.116 103.42 116.996 103.79 117.075 104.146L119.636 115.643C119.826 116.497 118.905 117.166 118.152 116.721L108.008 110.733C107.695 110.548 107.305 110.548 106.992 110.733L96.8485 116.721C96.0949 117.166 95.1737 116.497 95.364 115.643L97.9248 104.146C98.004 103.79 97.8836 103.42 97.6106 103.179L88.781 95.3825C88.125 94.8033 88.4768 93.7204 89.348 93.6374L101.074 92.52C101.436 92.4855 101.752 92.2565 101.896 91.9224L106.583 81.1157Z" fill="#FFC200"/>
<path d="M149.583 81.1157C149.931 80.3129 151.069 80.3129 151.417 81.1157L156.104 91.9224C156.248 92.2565 156.564 92.4855 156.926 92.52L168.652 93.6374C169.523 93.7204 169.875 94.8033 169.219 95.3825L160.389 103.179C160.116 103.42 159.996 103.79 160.075 104.146L162.636 115.643C162.826 116.497 161.905 117.166 161.152 116.721L151.008 110.733C150.695 110.548 150.305 110.548 149.992 110.733L139.848 116.721C139.095 117.166 138.174 116.497 138.364 115.643L140.925 104.146C141.004 103.79 140.884 103.42 140.611 103.179L131.781 95.3825C131.125 94.8033 131.477 93.7204 132.348 93.6374L144.074 92.52C144.436 92.4855 144.752 92.2565 144.896 91.9224L149.583 81.1157Z" fill="#FFC200"/>
<path d="M193.041 81.3147C193.215 80.9132 193.785 80.9132 193.959 81.3147L198.645 92.1213C198.862 92.6225 199.335 92.966 199.879 93.0178L211.605 94.1351C212.04 94.1766 212.216 94.7181 211.888 95.0077L203.058 102.804C202.649 103.166 202.468 103.721 202.587 104.254L205.148 115.752C205.243 116.179 204.783 116.513 204.406 116.291L194.263 110.303C193.792 110.025 193.208 110.025 192.737 110.303L182.594 116.291C182.217 116.513 181.757 116.179 181.852 115.752L184.413 104.254C184.532 103.721 184.351 103.166 183.942 102.804L175.112 95.0077C174.784 94.7181 174.96 94.1766 175.395 94.1351L187.121 93.0178C187.665 92.966 188.138 92.6225 188.355 92.1213L193.041 81.3147Z" stroke="#FFC200"/>
<mask id="mask0_1543_9593" style="mask-type:alpha" maskUnits="userSpaceOnUse" x="174" y="80" width="39" height="37">
<path d="M192.583 81.1157C192.931 80.3129 194.069 80.3129 194.417 81.1157L199.104 91.9224C199.248 92.2565 199.564 92.4855 199.926 92.52L211.652 93.6374C212.523 93.7204 212.875 94.8033 212.219 95.3825L203.389 103.179C203.116 103.42 202.996 103.79 203.075 104.146L205.636 115.643C205.826 116.497 204.905 117.166 204.152 116.721L194.008 110.733C193.695 110.548 193.305 110.548 192.992 110.733L182.848 116.721C182.095 117.166 181.174 116.497 181.364 115.643L183.925 104.146C184.004 103.79 183.884 103.42 183.611 103.179L174.781 95.3825C174.125 94.8033 174.477 93.7204 175.348 93.6374L187.074 92.52C187.436 92.4855 187.752 92.2565 187.896 91.9224L192.583 81.1157Z" fill="#FF642D"/>
</mask>
<g mask="url(#mask0_1543_9593)">
<rect x="165" y="76" width="33.8859" height="55" fill="#FFC200"/>
</g>
<path d="M107.759 0C109.124 0 110.488 0 111.923 0.359591L107.759 8.2706C101.585 7.911 96.0572 12.7295 95.6982 18.9864C95.3392 25.2433 100.149 30.7091 106.395 31.0687H107.759C110.488 31.0687 113.288 30.0618 115.298 28.3358L119.749 35.8872C116.303 38.3324 112.211 39.6989 107.688 39.6989C96.7033 40.0584 87.3702 31.7879 87.0113 20.7125C86.6523 9.70896 94.9085 0.359591 105.965 0C106.036 0 107.759 0 107.759 0ZM121.831 16.9008L127 25.531L121.831 33.8016L117.021 25.531H107.042L112.211 16.9008H121.831ZM113.575 13.8083C113.575 12.4418 113.934 11.0754 114.58 9.99663C115.298 8.98978 116.662 7.911 117.667 7.26374L118.385 6.90415C119.749 6.18497 120.108 5.89729 120.108 5.17811C120.108 4.45893 119.103 3.81167 118.385 3.81167C117.021 3.81167 115.944 4.53085 115.298 5.89729L113.575 4.17126C113.934 3.45208 114.58 2.80481 115.298 2.08563C116.303 1.36645 117.38 1.36645 118.385 1.36645C119.39 1.36645 120.826 1.72604 121.472 2.3733C122.118 3.02057 122.836 4.09934 122.836 5.10619C122.836 6.83223 121.831 8.19868 119.749 8.91786L118.744 9.63704C117.739 10.3562 117.021 10.6439 116.662 11.7227H122.836V14.1679C122.908 14.1679 113.575 13.8083 113.575 13.8083Z" fill="#FF492C"/>
</svg>
