<svg width="211" height="119" viewBox="0 0 211 119" fill="none" xmlns="http://www.w3.org/2000/svg">
<path d="M18.5826 83.1157C18.9307 82.3129 20.0693 82.3129 20.4175 83.1157L25.1036 93.9224C25.2485 94.2565 25.5636 94.4855 25.9262 94.52L37.6521 95.6374C38.5232 95.7204 38.8751 96.8033 38.2191 97.3825L29.3894 105.179C29.1164 105.42 28.996 105.79 29.0752 106.146L31.6361 117.643C31.8263 118.497 30.9052 119.166 30.1516 118.721L20.0084 112.733C19.6948 112.548 19.3053 112.548 18.9916 112.733L8.84848 118.721C8.09489 119.166 7.17375 118.497 7.36401 117.643L9.92483 106.146C10.004 105.79 9.88365 105.42 9.61063 105.179L0.780985 97.3825C0.124987 96.8033 0.476832 95.7204 1.348 95.6374L13.0738 94.52C13.4364 94.4855 13.7515 94.2565 13.8964 93.9224L18.5826 83.1157Z" fill="#FFC200"/>
<path d="M61.5826 83.1157C61.9307 82.3129 63.0693 82.3129 63.4175 83.1157L68.1036 93.9224C68.2485 94.2565 68.5636 94.4855 68.9262 94.52L80.6521 95.6374C81.5232 95.7204 81.8751 96.8033 81.2191 97.3825L72.3894 105.179C72.1164 105.42 71.996 105.79 72.0752 106.146L74.6361 117.643C74.8263 118.497 73.9052 119.166 73.1516 118.721L63.0084 112.733C62.6948 112.548 62.3053 112.548 61.9916 112.733L51.8485 118.721C51.0949 119.166 50.1737 118.497 50.364 117.643L52.9248 106.146C53.004 105.79 52.8836 105.42 52.6106 105.179L43.781 97.3825C43.125 96.8033 43.4768 95.7204 44.348 95.6374L56.0738 94.52C56.4364 94.4855 56.7515 94.2565 56.8964 93.9224L61.5826 83.1157Z" fill="#FFC200"/>
<path d="M104.583 83.1157C104.931 82.3129 106.069 82.3129 106.417 83.1157L111.104 93.9224C111.249 94.2565 111.564 94.4855 111.926 94.52L123.652 95.6374C124.523 95.7204 124.875 96.8033 124.219 97.3825L115.389 105.179C115.116 105.42 114.996 105.79 115.075 106.146L117.636 117.643C117.826 118.497 116.905 119.166 116.152 118.721L106.008 112.733C105.695 112.548 105.305 112.548 104.992 112.733L94.8485 118.721C94.0949 119.166 93.1737 118.497 93.364 117.643L95.9248 106.146C96.004 105.79 95.8836 105.42 95.6106 105.179L86.781 97.3825C86.125 96.8033 86.4768 95.7204 87.348 95.6374L99.0738 94.52C99.4364 94.4855 99.7515 94.2565 99.8964 93.9224L104.583 83.1157Z" fill="#FFC200"/>
<path d="M147.583 83.1157C147.931 82.3129 149.069 82.3129 149.417 83.1157L154.104 93.9224C154.249 94.2565 154.564 94.4855 154.926 94.52L166.652 95.6374C167.523 95.7204 167.875 96.8033 167.219 97.3825L158.389 105.179C158.116 105.42 157.996 105.79 158.075 106.146L160.636 117.643C160.826 118.497 159.905 119.166 159.152 118.721L149.008 112.733C148.695 112.548 148.305 112.548 147.992 112.733L137.848 118.721C137.095 119.166 136.174 118.497 136.364 117.643L138.925 106.146C139.004 105.79 138.884 105.42 138.611 105.179L129.781 97.3825C129.125 96.8033 129.477 95.7204 130.348 95.6374L142.074 94.52C142.436 94.4855 142.752 94.2565 142.896 93.9224L147.583 83.1157Z" fill="#FFC200"/>
<path fill-rule="evenodd" clip-rule="evenodd" d="M196.186 94.3202L191.5 83.5136L186.814 94.3202C186.524 94.9885 185.894 95.4464 185.169 95.5155L173.443 96.6329L182.273 104.429C182.819 104.911 183.059 105.652 182.901 106.363L180.34 117.86L190.483 111.872C191.111 111.502 191.89 111.502 192.517 111.872L202.66 117.86L200.099 106.363C199.941 105.652 200.182 104.911 200.728 104.429L209.557 96.6329L197.831 95.5155C197.106 95.4464 196.476 94.9885 196.186 94.3202ZM192.417 83.1157C192.069 82.3129 190.931 82.3129 190.583 83.1157L185.896 93.9224C185.752 94.2565 185.436 94.4855 185.074 94.52L173.348 95.6374C172.477 95.7204 172.125 96.8033 172.781 97.3825L181.611 105.179C181.884 105.42 182.004 105.79 181.925 106.146L179.364 117.643C179.174 118.497 180.095 119.166 180.848 118.721L190.992 112.733C191.305 112.548 191.695 112.548 192.008 112.733L202.152 118.721C202.905 119.166 203.826 118.497 203.636 117.643L201.075 106.146C200.996 105.79 201.116 105.42 201.389 105.179L210.219 97.3825C210.875 96.8033 210.523 95.7204 209.652 95.6374L197.926 94.52C197.564 94.4855 197.249 94.2565 197.104 93.9224L192.417 83.1157Z" fill="#FFC200"/>
<path d="M60.4127 16.356L79.432 16.356L79.432 19.8967L71.9433 19.8967L71.9433 39.856L67.8387 39.856L67.8387 19.8967L60.3813 19.8967L60.4127 16.356ZM78.6173 22.842L82.1267 22.842L82.1267 26.132L82.1893 26.132C82.3147 25.662 82.534 25.2233 82.8473 24.7847C83.1607 24.346 83.5367 23.9387 84.0067 23.594C84.4453 23.218 84.9467 22.936 85.5107 22.7167C86.0433 22.4973 86.6073 22.372 87.1713 22.372C87.61 22.372 87.9233 22.4033 88.08 22.4033C88.2367 22.4347 88.4247 22.466 88.5813 22.466L88.5813 26.0693C88.3307 26.0067 88.0487 25.9753 87.7667 25.944C87.4847 25.9127 87.234 25.8813 86.952 25.8813C86.3253 25.8813 85.73 26.0067 85.166 26.2573C84.602 26.508 84.132 26.884 83.6933 27.354C83.286 27.8553 82.9413 28.4507 82.6907 29.1713C82.44 29.892 82.3147 30.738 82.3147 31.678L82.3147 39.762L78.5547 39.762L78.6173 22.842ZM105.815 39.856L102.117 39.856L102.117 37.4747L102.055 37.4747C101.585 38.352 100.895 39.01 99.9867 39.5427C99.078 40.0753 98.138 40.326 97.198 40.326C94.9733 40.326 93.344 39.7933 92.3413 38.6653C91.3387 37.5687 90.8373 35.8767 90.8373 33.652L90.8373 22.842L94.5973 22.842L94.5973 33.276C94.5973 34.78 94.8793 35.8453 95.4747 36.4407C96.0387 37.0673 96.8533 37.3807 97.8873 37.3807C98.6707 37.3807 99.3287 37.2553 99.8613 37.0047C100.394 36.754 100.833 36.4407 101.146 36.0333C101.491 35.626 101.71 35.1247 101.867 34.5607C102.023 33.9967 102.086 33.37 102.086 32.712L102.086 22.842L105.846 22.842L105.846 39.856L105.815 39.856ZM112.207 34.404C112.332 35.5007 112.739 36.2527 113.46 36.7227C114.181 37.1613 115.058 37.3807 116.061 37.3807C116.405 37.3807 116.813 37.3493 117.251 37.2867C117.69 37.224 118.129 37.13 118.505 36.9733C118.912 36.8167 119.225 36.5973 119.476 36.284C119.727 35.9707 119.852 35.5947 119.821 35.1247C119.789 34.6547 119.633 34.2473 119.288 33.934C118.943 33.6207 118.536 33.4013 118.035 33.182C117.533 32.994 116.938 32.8373 116.28 32.712C115.622 32.5867 114.964 32.43 114.275 32.2733C113.585 32.1167 112.896 31.9287 112.238 31.7093C111.58 31.49 111.016 31.208 110.483 30.8007C109.982 30.4247 109.543 29.9547 109.261 29.3593C108.948 28.764 108.791 28.0747 108.791 27.1973C108.791 26.2573 109.011 25.5053 109.481 24.8787C109.919 24.252 110.515 23.7507 111.204 23.3747C111.893 22.9987 112.677 22.7167 113.523 22.56C114.369 22.4033 115.183 22.3407 115.935 22.3407C116.813 22.3407 117.659 22.4347 118.442 22.6227C119.225 22.8107 119.977 23.0927 120.604 23.5313C121.262 23.9387 121.795 24.5027 122.202 25.1607C122.641 25.8187 122.891 26.6333 123.017 27.5733L119.1 27.5733C118.912 26.6647 118.505 26.0693 117.878 25.756C117.22 25.4427 116.499 25.286 115.653 25.286C115.403 25.286 115.058 25.3173 114.713 25.3487C114.337 25.4113 114.024 25.474 113.679 25.5993C113.366 25.7247 113.084 25.9127 112.865 26.132C112.645 26.3513 112.52 26.6647 112.52 27.0407C112.52 27.5107 112.677 27.8553 112.99 28.1373C113.303 28.4193 113.711 28.6387 114.243 28.858C114.745 29.046 115.34 29.2027 115.998 29.328C116.656 29.4533 117.345 29.61 118.035 29.7667C118.724 29.9233 119.382 30.1113 120.04 30.3307C120.698 30.55 121.293 30.832 121.795 31.2393C122.296 31.6153 122.735 32.0853 123.048 32.6493C123.361 33.2133 123.518 33.934 123.518 34.7487C123.518 35.7513 123.299 36.5973 122.829 37.318C122.359 38.0073 121.763 38.6027 121.043 39.0413C120.322 39.48 119.476 39.7933 118.599 40.0127C117.69 40.2007 116.813 40.326 115.935 40.326C114.87 40.326 113.867 40.2007 112.959 39.95C112.05 39.6993 111.235 39.3233 110.577 38.8533C109.919 38.352 109.387 37.7567 109.011 37.0047C108.635 36.284 108.415 35.4067 108.384 34.3727L112.175 34.3727L112.175 34.404L112.207 34.404ZM124.583 22.842L127.435 22.842L127.435 17.7033L131.195 17.7033L131.195 22.8107L134.579 22.8107L134.579 25.5993L131.195 25.5993L131.195 34.686C131.195 35.0933 131.226 35.4067 131.257 35.72C131.289 36.002 131.383 36.2527 131.477 36.4407C131.602 36.6287 131.79 36.7853 132.009 36.8793C132.26 36.9733 132.573 37.036 133.012 37.036C133.263 37.036 133.545 37.036 133.795 37.0047C134.046 36.9733 134.328 36.942 134.579 36.8793L134.579 39.7933C134.171 39.856 133.764 39.8873 133.357 39.9187C132.949 39.9813 132.573 39.9813 132.135 39.9813C131.132 39.9813 130.349 39.8873 129.753 39.6993C129.158 39.5113 128.688 39.2293 128.343 38.8847C127.999 38.5087 127.779 38.07 127.654 37.5373C127.529 37.0047 127.466 36.3467 127.435 35.6573L127.435 25.6307L124.583 25.6307L124.583 22.7793L124.583 22.842ZM137.211 22.842L140.751 22.842L140.751 25.1607L140.814 25.1607C141.347 24.158 142.067 23.4687 143.007 23.03C143.947 22.5913 144.95 22.372 146.078 22.372C147.425 22.372 148.585 22.5913 149.587 23.0927C150.59 23.5627 151.405 24.1893 152.063 25.0353C152.721 25.85 153.222 26.8213 153.535 27.918C153.849 29.0147 154.037 30.2053 154.037 31.4273C154.037 32.5867 153.88 33.6833 153.598 34.7487C153.285 35.814 152.846 36.7853 152.251 37.6C151.655 38.4147 150.903 39.0726 149.963 39.574C149.023 40.0753 147.958 40.326 146.705 40.326C146.172 40.326 145.608 40.2633 145.075 40.1693C144.543 40.0753 144.01 39.9187 143.509 39.6993C143.007 39.48 142.537 39.198 142.13 38.8533C141.691 38.5087 141.347 38.1013 141.065 37.6627L141.002 37.6627L141.002 46.154L137.242 46.154L137.242 22.842L137.211 22.842ZM150.339 31.3647C150.339 30.6127 150.245 29.8607 150.026 29.14C149.838 28.4193 149.525 27.7927 149.117 27.2287C148.71 26.6647 148.209 26.226 147.645 25.8813C147.049 25.5367 146.36 25.38 145.608 25.38C144.041 25.38 142.851 25.9127 142.036 27.0093C141.253 28.106 140.845 29.5787 140.845 31.396C140.845 32.2733 140.939 33.0567 141.159 33.7773C141.378 34.498 141.66 35.1247 142.099 35.6573C142.506 36.19 143.007 36.5973 143.603 36.9107C144.198 37.224 144.856 37.3806 145.639 37.3806C146.517 37.3806 147.206 37.1927 147.801 36.848C148.397 36.5033 148.867 36.0333 149.274 35.5007C149.65 34.9367 149.932 34.31 150.089 33.5893C150.245 32.8373 150.339 32.1167 150.339 31.3647ZM156.951 16.356L160.711 16.356L160.711 19.8967L156.951 19.8967L156.951 16.356ZM156.951 22.842L160.711 22.842L160.711 39.856L156.951 39.856L156.951 22.842ZM164.063 16.356L167.823 16.356L167.823 39.856L164.063 39.856L164.063 16.356ZM179.291 40.326C177.944 40.326 176.722 40.1067 175.657 39.6367C174.591 39.1667 173.714 38.5713 172.962 37.788C172.241 37.0047 171.677 36.0333 171.301 34.9367C170.925 33.84 170.706 32.618 170.706 31.3333C170.706 30.0487 170.894 28.858 171.301 27.7613C171.677 26.6647 172.241 25.7247 172.962 24.91C173.683 24.1267 174.591 23.5 175.657 23.0613C176.722 22.6227 177.944 22.372 179.291 22.372C180.639 22.372 181.861 22.5913 182.926 23.0613C183.991 23.5 184.869 24.1267 185.621 24.91C186.341 25.6933 186.905 26.6647 187.281 27.7613C187.657 28.858 187.877 30.0487 187.877 31.3333C187.877 32.6493 187.689 33.84 187.281 34.9367C186.874 36.0333 186.341 36.9733 185.621 37.788C184.9 38.5713 183.991 39.198 182.926 39.6367C181.861 40.0753 180.67 40.326 179.291 40.326ZM179.291 37.3493C180.106 37.3493 180.858 37.1613 181.453 36.8167C182.08 36.472 182.55 36.002 182.957 35.438C183.365 34.874 183.647 34.216 183.835 33.5267C184.023 32.806 184.117 32.0853 184.117 31.3333C184.117 30.6127 184.023 29.892 183.835 29.1713C183.647 28.4507 183.365 27.824 182.957 27.26C182.55 26.696 182.049 26.2573 181.453 25.9127C180.827 25.568 180.106 25.38 179.291 25.38C178.477 25.38 177.725 25.568 177.129 25.9127C176.503 26.2573 176.033 26.7273 175.625 27.26C175.218 27.824 174.936 28.4507 174.748 29.1713C174.56 29.892 174.466 30.6127 174.466 31.3333C174.466 32.0853 174.56 32.806 174.748 33.5267C174.936 34.2473 175.218 34.874 175.625 35.438C176.033 36.002 176.534 36.472 177.129 36.8167C177.756 37.1927 178.477 37.3493 179.291 37.3493ZM189.005 22.842L191.856 22.842L191.856 17.7033L195.616 17.7033L195.616 22.8106L199 22.8106L199 25.5993L195.616 25.5993L195.616 34.686C195.616 35.0933 195.647 35.4067 195.679 35.72C195.71 36.002 195.804 36.2526 195.898 36.4406C196.023 36.6286 196.211 36.7853 196.431 36.8793C196.681 36.9733 196.995 37.036 197.433 37.036C197.684 37.036 197.966 37.036 198.217 37.0047C198.467 36.9733 198.749 36.942 199 36.8793L199 39.7933C198.593 39.856 198.185 39.8873 197.778 39.9186C197.371 39.9813 196.995 39.9813 196.556 39.9813C195.553 39.9813 194.77 39.8873 194.175 39.6993C193.579 39.5113 193.109 39.2293 192.765 38.8847C192.42 38.5087 192.201 38.07 192.075 37.5373C191.95 37.0046 191.887 36.3466 191.856 35.6573L191.856 25.6306L189.005 25.6306L189.005 22.7793L189.005 22.842Z" fill="black"/>
<path d="M56.026 16.356L38.824 16.356L33.5287 2.85481e-05L28.202 16.356L11 16.3247L24.912 26.4454L19.5853 42.8014L33.4973 32.6807L47.4093 42.8014L42.114 26.4454L56.026 16.356Z" fill="#00B67A"/>
<path d="M43.3047 30.1427L42.114 26.4453L33.5287 32.6807L43.3047 30.1427Z" fill="#005128"/>
<path fill-rule="evenodd" clip-rule="evenodd" d="M192 112.728V82.6445C191.518 82.37 190.838 82.5271 190.583 83.1157L185.896 93.9224C185.752 94.2565 185.436 94.4855 185.074 94.52L173.348 95.6374C172.477 95.7204 172.125 96.8033 172.781 97.3825L181.611 105.179C181.884 105.42 182.004 105.79 181.925 106.146L179.364 117.643C179.174 118.497 180.095 119.166 180.848 118.721L190.992 112.733C191.302 112.55 191.688 112.548 192 112.728Z" fill="#FFC200"/>
</svg>
