<svg width="215" height="120" viewBox="0 0 215 120" fill="none" xmlns="http://www.w3.org/2000/svg">
<path d="M20.5825 79.1157C20.9307 78.3129 22.0693 78.3129 22.4175 79.1157L27.1036 89.9224C27.2485 90.2565 27.5636 90.4855 27.9262 90.52L39.652 91.6374C40.5232 91.7204 40.875 92.8033 40.219 93.3825L31.3894 101.179C31.1164 101.42 30.996 101.79 31.0752 102.146L33.636 113.643C33.8263 114.497 32.9051 115.166 32.1516 114.721L22.0084 108.733C21.6948 108.548 21.3052 108.548 20.9916 108.733L10.8485 114.721C10.0949 115.166 9.17372 114.497 9.36398 113.643L11.9248 102.146C12.004 101.79 11.8836 101.42 11.6106 101.179L2.78096 93.3825C2.12496 92.8033 2.4768 91.7204 3.34797 91.6374L15.0738 90.52C15.4364 90.4855 15.7515 90.2565 15.8964 89.9224L20.5825 79.1157Z" fill="#FFC200"/>
<path d="M63.5825 79.1157C63.9307 78.3129 65.0693 78.3129 65.4175 79.1157L70.1036 89.9224C70.2485 90.2565 70.5636 90.4855 70.9262 90.52L82.652 91.6374C83.5232 91.7204 83.875 92.8033 83.219 93.3825L74.3894 101.179C74.1164 101.42 73.996 101.79 74.0752 102.146L76.636 113.643C76.8263 114.497 75.9051 115.166 75.1516 114.721L65.0084 108.733C64.6948 108.548 64.3052 108.548 63.9916 108.733L53.8485 114.721C53.0949 115.166 52.1737 114.497 52.364 113.643L54.9248 102.146C55.004 101.79 54.8836 101.42 54.6106 101.179L45.781 93.3825C45.125 92.8033 45.4768 91.7204 46.348 91.6374L58.0738 90.52C58.4364 90.4855 58.7515 90.2565 58.8964 89.9224L63.5825 79.1157Z" fill="#FFC200"/>
<path d="M106.583 79.1157C106.931 78.3129 108.069 78.3129 108.417 79.1157L113.104 89.9224C113.248 90.2565 113.564 90.4855 113.926 90.52L125.652 91.6374C126.523 91.7204 126.875 92.8033 126.219 93.3825L117.389 101.179C117.116 101.42 116.996 101.79 117.075 102.146L119.636 113.643C119.826 114.497 118.905 115.166 118.152 114.721L108.008 108.733C107.695 108.548 107.305 108.548 106.992 108.733L96.8485 114.721C96.0949 115.166 95.1737 114.497 95.364 113.643L97.9248 102.146C98.004 101.79 97.8836 101.42 97.6106 101.179L88.781 93.3825C88.125 92.8033 88.4768 91.7204 89.348 91.6374L101.074 90.52C101.436 90.4855 101.752 90.2565 101.896 89.9224L106.583 79.1157Z" fill="#FFC200"/>
<path d="M149.583 79.1157C149.931 78.3129 151.069 78.3129 151.417 79.1157L156.104 89.9224C156.248 90.2565 156.564 90.4855 156.926 90.52L168.652 91.6374C169.523 91.7204 169.875 92.8033 169.219 93.3825L160.389 101.179C160.116 101.42 159.996 101.79 160.075 102.146L162.636 113.643C162.826 114.497 161.905 115.166 161.152 114.721L151.008 108.733C150.695 108.548 150.305 108.548 149.992 108.733L139.848 114.721C139.095 115.166 138.174 114.497 138.364 113.643L140.925 102.146C141.004 101.79 140.884 101.42 140.611 101.179L131.781 93.3825C131.125 92.8033 131.477 91.7204 132.348 91.6374L144.074 90.52C144.436 90.4855 144.752 90.2565 144.896 89.9224L149.583 79.1157Z" fill="#FFC200"/>
<path d="M193.041 79.3147C193.215 78.9132 193.785 78.9132 193.959 79.3147L198.645 90.1213C198.862 90.6225 199.335 90.966 199.879 91.0178L211.605 92.1351C212.04 92.1766 212.216 92.7181 211.888 93.0077L203.058 100.804C202.649 101.166 202.468 101.721 202.587 102.254L205.148 113.752C205.243 114.179 204.783 114.513 204.406 114.291L194.263 108.303C193.792 108.025 193.208 108.025 192.737 108.303L182.594 114.291C182.217 114.513 181.757 114.179 181.852 113.752L184.413 102.254C184.532 101.721 184.351 101.166 183.942 100.804L175.112 93.0077C174.784 92.7181 174.96 92.1766 175.395 92.1351L187.121 91.0178C187.665 90.966 188.138 90.6225 188.355 90.1213L193.041 79.3147Z" stroke="#FFC200"/>
<mask id="mask0_1543_9592" style="mask-type:alpha" maskUnits="userSpaceOnUse" x="174" y="78" width="39" height="37">
<path d="M192.583 79.1157C192.931 78.3129 194.069 78.3129 194.417 79.1157L199.104 89.9224C199.248 90.2565 199.564 90.4855 199.926 90.52L211.652 91.6374C212.523 91.7204 212.875 92.8033 212.219 93.3825L203.389 101.179C203.116 101.42 202.996 101.79 203.075 102.146L205.636 113.643C205.826 114.497 204.905 115.166 204.152 114.721L194.008 108.733C193.695 108.548 193.305 108.548 192.992 108.733L182.848 114.721C182.095 115.166 181.174 114.497 181.364 113.643L183.925 102.146C184.004 101.79 183.884 101.42 183.611 101.179L174.781 93.3825C174.125 92.8033 174.477 91.7204 175.348 91.6374L187.074 90.52C187.436 90.4855 187.752 90.2565 187.896 89.9224L192.583 79.1157Z" fill="#FF642D"/>
</mask>
<g mask="url(#mask0_1543_9592)">
<rect x="167" y="74" width="33.7436" height="55" fill="#FFC200"/>
</g>
<path d="M24 13.4737H39.2167H48.4573V4.31602L24 13.4737Z" fill="#FF9D28"/>
<path d="M48.457 4.316V36.686L60.0217 0L48.457 4.316Z" fill="#68C5ED"/>
<path d="M48.4575 13.4736H39.2168L48.4575 36.6583V13.4736Z" fill="#044D80"/>
<path d="M24 13.4736L41.596 19.422L39.2167 13.4736H24Z" fill="#E54747"/>
<path d="M80.0521 28.1366C79.9138 28.275 79.6925 28.441 79.3881 28.6346C79.0838 28.8283 78.6688 29.0496 78.1708 29.2433C77.6728 29.437 77.0641 29.6306 76.3171 29.769C75.5978 29.9073 74.7678 29.9903 73.8271 29.9903C72.0288 29.9903 70.4518 29.686 69.1238 29.1326C67.7958 28.5516 66.7168 27.7493 65.8591 26.698C65.0015 25.6466 64.3651 24.4293 63.9778 23.0183C63.5628 21.6073 63.3691 20.0303 63.3691 18.3426C63.3691 16.655 63.5905 15.078 64.0331 13.6393C64.4758 12.2006 65.1121 10.9556 65.9975 9.90431C66.8551 8.85297 67.9618 8.02298 69.2621 7.44198C70.5625 6.86098 72.1118 6.55664 73.8825 6.55664C74.7401 6.55664 75.5425 6.63964 76.2341 6.77797C76.9258 6.94397 77.5621 7.10997 78.0878 7.3313C78.6135 7.55264 79.0561 7.77398 79.3881 7.99531C79.7478 8.21664 79.9968 8.43797 80.1628 8.5763C80.3565 8.7423 80.5501 8.96364 80.6885 9.21264C80.8268 9.46164 80.9098 9.73831 80.9098 10.015C80.9098 10.4576 80.7438 10.9003 80.4118 11.343C80.0798 11.7856 79.7201 12.2006 79.3051 12.588C79.0285 12.3113 78.7241 12.0346 78.3921 11.758C78.0601 11.4813 77.6728 11.2323 77.2578 11.011C76.8428 10.7896 76.3725 10.6236 75.8468 10.4853C75.3211 10.347 74.7401 10.264 74.0761 10.264C72.9418 10.264 71.9735 10.4853 71.1988 10.9556C70.4241 11.426 69.8155 12.007 69.3451 12.754C68.8748 13.501 68.5428 14.331 68.3491 15.2716C68.1555 16.2123 68.0448 17.1806 68.0448 18.1766C68.0448 19.228 68.1555 20.224 68.3491 21.1923C68.5428 22.1606 68.9025 22.9906 69.4005 23.7376C69.8985 24.4846 70.5348 25.0656 71.3371 25.5083C72.1395 25.951 73.1078 26.1723 74.2975 26.1723C74.9338 26.1723 75.4871 26.0893 76.0128 25.951C76.5385 25.785 77.0088 25.5913 77.3961 25.37C77.8111 25.1486 78.1431 24.8996 78.4475 24.6783C78.7518 24.4293 79.0008 24.208 79.1945 24.042C79.3328 24.208 79.4711 24.4016 79.6648 24.623C79.8585 24.8443 80.0245 25.0933 80.1628 25.3146C80.3288 25.5636 80.4395 25.8126 80.5778 26.0616C80.6885 26.3106 80.7438 26.532 80.7438 26.7256C80.7438 27.03 80.6885 27.2513 80.5778 27.4726C80.4671 27.6663 80.2735 27.8876 80.0521 28.1366ZM97.3161 25.5636C97.3161 27.3343 97.5651 28.6346 98.0908 29.437C97.6758 29.603 97.3161 29.7136 96.9565 29.769C96.5968 29.8243 96.2371 29.8796 95.8498 29.8796C95.0475 29.8796 94.4388 29.7136 94.0238 29.4093C93.6088 29.105 93.3321 28.6346 93.2215 28.0536C92.7235 28.5793 92.0871 29.022 91.2571 29.3816C90.4548 29.7413 89.4588 29.9073 88.2968 29.9073C87.6881 29.9073 87.0795 29.8243 86.4708 29.6583C85.8621 29.4923 85.3088 29.2156 84.8108 28.8283C84.3128 28.441 83.9255 27.943 83.5935 27.3066C83.2891 26.6703 83.1231 25.8956 83.1231 24.9826C83.1231 23.8483 83.3998 22.9076 83.9531 22.1883C84.5065 21.469 85.1981 20.9156 86.0281 20.5006C86.8581 20.0856 87.7711 19.809 88.7118 19.643C89.6801 19.477 90.5655 19.394 91.3678 19.3386C91.6445 19.311 91.8935 19.311 92.1701 19.311H92.8895V18.7023C92.8895 17.8446 92.6681 17.236 92.1978 16.8486C91.7275 16.489 90.9805 16.2953 89.9568 16.2953C88.9885 16.2953 88.1308 16.4613 87.3838 16.7656C86.6368 17.07 85.8898 17.4296 85.1705 17.8446C84.8661 17.4573 84.5895 17.0423 84.4235 16.572C84.2298 16.1016 84.1468 15.7696 84.1468 15.5483C84.1468 15.244 84.3128 14.9396 84.6725 14.6353C85.0321 14.331 85.5025 14.082 86.1111 13.833C86.7198 13.584 87.4115 13.418 88.2138 13.252C88.9885 13.1136 89.8185 13.0306 90.7038 13.0306C91.9211 13.0306 92.9448 13.1413 93.7748 13.3903C94.6048 13.6393 95.2965 14.0266 95.8221 14.5246C96.3478 15.0503 96.7351 15.6866 96.9565 16.4613C97.1778 17.236 97.2885 18.149 97.2885 19.1726L97.3161 25.5636ZM93.0001 21.6626H92.5298C92.3638 21.6626 92.2255 21.6626 92.0595 21.6903C91.5061 21.7456 90.9528 21.801 90.3995 21.884C89.8461 21.967 89.3481 22.133 88.9331 22.3543C88.5181 22.5756 88.1585 22.88 87.8818 23.2396C87.6051 23.5993 87.4668 24.0696 87.4668 24.623C87.4668 25.2593 87.6328 25.785 87.9925 26.2276C88.3521 26.6703 88.9608 26.8916 89.8185 26.8916C90.2335 26.8916 90.6485 26.8363 91.0358 26.7256C91.4231 26.615 91.7551 26.4766 92.0595 26.283C92.3638 26.0893 92.5851 25.8956 92.7511 25.702C92.9171 25.4806 93.0001 25.287 93.0001 25.121V21.6626ZM105.699 15.0226C106.059 14.6076 106.612 14.165 107.387 13.7223C108.161 13.2796 109.102 13.0583 110.264 13.0583C111.094 13.0583 111.896 13.1966 112.643 13.4733C113.39 13.75 114.054 14.2203 114.635 14.829C115.216 15.4653 115.687 16.2953 116.019 17.319C116.378 18.3426 116.544 19.6153 116.544 21.137C116.544 22.88 116.351 24.3463 115.936 25.4806C115.521 26.615 115.023 27.528 114.386 28.1643C113.75 28.8283 113.031 29.2986 112.256 29.5753C111.481 29.852 110.679 29.9903 109.904 29.9903C109.268 29.9903 108.687 29.9073 108.217 29.769C107.746 29.6306 107.331 29.4646 106.999 29.271C106.667 29.105 106.418 28.9113 106.225 28.7453C106.059 28.5793 105.92 28.441 105.893 28.3856V36.6856H101.3V13.5563C101.411 13.5286 101.549 13.501 101.715 13.501C101.853 13.4733 102.019 13.4733 102.185 13.4456C102.379 13.4456 102.573 13.418 102.822 13.418C103.569 13.418 104.205 13.5286 104.731 13.7776C105.229 14.0266 105.561 14.4416 105.699 15.0226ZM111.786 21.2476C111.786 20.5836 111.73 19.9473 111.62 19.3663C111.509 18.7853 111.315 18.2873 111.066 17.8446C110.817 17.4296 110.458 17.0976 110.015 16.8486C109.572 16.5996 109.047 16.489 108.41 16.489C107.47 16.489 106.806 16.6826 106.446 17.0146C106.086 17.3743 105.893 17.7616 105.893 18.2043V25.37C106.059 25.5636 106.391 25.7573 106.861 26.0063C107.331 26.2553 107.857 26.366 108.466 26.366C109.6 26.366 110.43 25.9233 110.983 25.0103C111.509 24.125 111.786 22.88 111.786 21.2476ZM120.086 27.0576C119.92 26.615 119.837 26.1446 119.781 25.6466C119.726 25.1486 119.726 24.6506 119.726 24.1526V8.52097C119.892 8.49331 120.058 8.46564 120.224 8.46564C120.39 8.43797 120.556 8.43798 120.722 8.41031C120.888 8.41031 121.082 8.38264 121.248 8.38264C121.607 8.38264 121.967 8.41031 122.327 8.49331C122.686 8.54864 123.018 8.68697 123.295 8.90831C123.599 9.10197 123.821 9.37864 124.014 9.73831C124.18 10.098 124.291 10.5406 124.291 11.094V13.501H129.022V16.904H124.319V24.0973C124.319 25.6743 124.955 26.449 126.228 26.449C126.532 26.449 126.836 26.3936 127.113 26.3106C127.39 26.2 127.639 26.0893 127.86 25.9786C128.081 25.868 128.275 25.7296 128.441 25.5913C128.607 25.453 128.718 25.3423 128.801 25.287C129.133 25.785 129.409 26.2 129.575 26.5596C129.741 26.9193 129.852 27.2513 129.852 27.5833C129.852 27.8876 129.741 28.1643 129.492 28.441C129.243 28.7176 128.911 28.9943 128.496 29.2156C128.081 29.4646 127.556 29.6583 126.947 29.7966C126.338 29.935 125.674 30.018 124.955 30.018C123.572 30.018 122.465 29.7413 121.69 29.2156C120.971 28.6346 120.418 27.943 120.086 27.0576ZM140.642 26.615C141.195 26.615 141.693 26.5596 142.136 26.4213C142.551 26.3106 142.938 26.1446 143.298 25.9786C143.63 25.8126 143.934 25.5913 144.183 25.3976C144.432 25.1763 144.654 24.9826 144.847 24.8166C145.124 25.1486 145.401 25.5913 145.705 26.117C146.009 26.6426 146.148 27.0853 146.148 27.4173C146.148 27.9153 145.871 28.358 145.318 28.773C144.847 29.1326 144.183 29.437 143.298 29.7136C142.44 29.9626 141.417 30.101 140.255 30.101C139.203 30.101 138.152 29.9626 137.128 29.686C136.105 29.4093 135.192 28.939 134.389 28.275C133.587 27.611 132.951 26.698 132.453 25.5636C131.955 24.4293 131.706 22.9906 131.706 21.2753C131.706 19.8643 131.927 18.647 132.37 17.6233C132.812 16.5996 133.393 15.742 134.113 15.078C134.832 14.414 135.662 13.916 136.603 13.584C137.516 13.2796 138.456 13.1136 139.425 13.1136C140.67 13.1136 141.749 13.3073 142.634 13.6946C143.519 14.082 144.211 14.6076 144.764 15.2716C145.318 15.9356 145.705 16.6826 145.954 17.5403C146.203 18.398 146.314 19.2833 146.314 20.224V20.6943C146.314 20.888 146.314 21.054 146.286 21.2753C146.286 21.469 146.258 21.6626 146.258 21.8563C146.258 22.05 146.231 22.1883 146.203 22.299H136.271C136.354 23.544 136.741 24.5676 137.433 25.3976C138.097 26.2 139.176 26.615 140.642 26.615ZM142.191 19.7813C142.191 18.7023 141.97 17.817 141.555 17.153C141.14 16.489 140.393 16.1293 139.314 16.1293C138.373 16.1293 137.654 16.4613 137.101 17.0976C136.547 17.734 136.271 18.6193 136.271 19.7813H142.191ZM154.309 15.1056C154.448 14.912 154.614 14.6906 154.835 14.4416C155.056 14.1926 155.333 13.9713 155.665 13.7776C155.997 13.584 156.357 13.418 156.744 13.2796C157.131 13.1413 157.546 13.086 158.017 13.086C158.293 13.086 158.57 13.1136 158.874 13.1413C159.179 13.1966 159.455 13.2796 159.704 13.3903C159.953 13.501 160.175 13.667 160.341 13.8883C160.507 14.1096 160.59 14.3586 160.59 14.663C160.59 15.161 160.479 15.7143 160.23 16.3506C159.981 16.987 159.732 17.5403 159.483 17.983C159.096 17.6786 158.708 17.4296 158.349 17.2636C157.961 17.0976 157.519 17.0146 156.993 17.0146C156.301 17.0146 155.72 17.2083 155.25 17.6233C154.78 18.0383 154.531 18.5086 154.531 19.0896V29.9903H149.938V13.5286C150.049 13.501 150.187 13.4733 150.353 13.4733C150.491 13.4456 150.657 13.4456 150.823 13.418C150.989 13.418 151.211 13.3903 151.46 13.3903C152.179 13.3903 152.815 13.5286 153.341 13.8053C153.839 14.1096 154.171 14.5246 154.309 15.1056ZM167.34 15.1056C167.479 14.912 167.645 14.6906 167.866 14.4416C168.087 14.1926 168.364 13.9713 168.696 13.7776C169.028 13.584 169.388 13.418 169.775 13.2796C170.162 13.1413 170.577 13.086 171.048 13.086C171.324 13.086 171.601 13.1136 171.905 13.1413C172.21 13.1966 172.486 13.2796 172.735 13.3903C172.984 13.501 173.206 13.667 173.372 13.8883C173.538 14.1096 173.621 14.3586 173.621 14.663C173.621 15.161 173.51 15.7143 173.261 16.3506C173.012 16.987 172.763 17.5403 172.514 17.983C172.127 17.6786 171.739 17.4296 171.38 17.2636C170.992 17.0976 170.55 17.0146 170.024 17.0146C169.332 17.0146 168.751 17.2083 168.281 17.6233C167.811 18.0383 167.562 18.5086 167.562 19.0896V29.9903H162.969V13.5286C163.08 13.501 163.218 13.4733 163.384 13.4733C163.522 13.4456 163.688 13.4456 163.854 13.418C164.02 13.418 164.242 13.3903 164.491 13.3903C165.21 13.3903 165.846 13.5286 166.372 13.8053C166.87 14.1096 167.202 14.5246 167.34 15.1056ZM189.225 25.5636C189.225 27.3343 189.474 28.6346 189.999 29.437C189.584 29.603 189.225 29.7136 188.865 29.769C188.505 29.8243 188.146 29.8796 187.758 29.8796C186.956 29.8796 186.347 29.7136 185.932 29.4093C185.517 29.105 185.241 28.6346 185.13 28.0536C184.632 28.5793 183.996 29.022 183.166 29.3816C182.363 29.7413 181.367 29.9073 180.205 29.9073C179.597 29.9073 178.988 29.8243 178.379 29.6583C177.771 29.4923 177.217 29.2156 176.719 28.8283C176.221 28.441 175.834 27.943 175.502 27.3066C175.198 26.6703 175.032 25.8956 175.032 24.9826C175.032 23.8483 175.308 22.9076 175.862 22.1883C176.415 21.469 177.107 20.9156 177.937 20.5006C178.767 20.0856 179.68 19.809 180.62 19.643C181.589 19.477 182.474 19.394 183.276 19.3386C183.553 19.311 183.802 19.311 184.079 19.311H184.798V18.7023C184.798 17.8446 184.577 17.236 184.106 16.8486C183.636 16.489 182.889 16.2953 181.865 16.2953C180.897 16.2953 180.039 16.4613 179.292 16.7656C178.545 17.07 177.798 17.4296 177.079 17.8446C176.775 17.4573 176.498 17.0423 176.332 16.572C176.138 16.1016 176.055 15.7696 176.055 15.5483C176.055 15.244 176.221 14.9396 176.581 14.6353C176.941 14.331 177.411 14.082 178.02 13.833C178.628 13.584 179.32 13.418 180.122 13.252C180.897 13.1136 181.727 13.0306 182.612 13.0306C183.83 13.0306 184.853 13.1413 185.683 13.3903C186.513 13.6393 187.205 14.0266 187.731 14.5246C188.256 15.0503 188.644 15.6866 188.865 16.4613C189.086 17.236 189.197 18.149 189.197 19.1726L189.225 25.5636ZM184.909 21.6626H184.438C184.272 21.6626 184.134 21.6626 183.968 21.6903C183.415 21.7456 182.861 21.801 182.308 21.884C181.755 21.967 181.257 22.133 180.842 22.3543C180.427 22.5756 180.067 22.88 179.79 23.2396C179.514 23.5993 179.375 24.0696 179.375 24.623C179.375 25.2593 179.541 25.785 179.901 26.2276C180.261 26.6703 180.869 26.8916 181.727 26.8916C182.142 26.8916 182.557 26.8363 182.944 26.7256C183.332 26.615 183.664 26.4766 183.968 26.283C184.272 26.0893 184.494 25.8956 184.66 25.702C184.826 25.4806 184.909 25.287 184.909 25.121V21.6626Z" fill="#044D80"/>
</svg>
