<svg width="1106" height="50" viewBox="0 0 1106 50" fill="none" xmlns="http://www.w3.org/2000/svg">
<g opacity="0.8">
<path d="M87.0129 16.6946L83.822 16.7029V33.0757H98.4555C100.056 32.3965 100.913 31.2225 101.245 29.8517H87.0046L87.0129 16.6946ZM110.892 19.9662H123.099C124.795 19.6308 126.058 18.1337 126.412 16.6863H107.577C107.929 18.1337 109.211 19.6308 110.892 19.9662ZM71.3607 19.9207C73.0566 19.4279 74.4853 18.1337 74.8332 16.6987H56.9218V26.3729H71.5822V29.7688L60.0838 29.7792C58.2802 30.2803 56.7562 31.4896 55.9921 33.0881L56.9218 33.0716H74.7338V23.1572H60.0838V19.9207H71.3607ZM108.07 33.0716H111.244V26.4806H122.8V33.0716H125.973V23.1862L108.07 23.1696V33.0716ZM32.2518 19.9559H44.4564C46.1543 19.6184 47.4154 18.1213 47.7694 16.6739H28.9366C29.2886 18.1213 30.5683 19.6184 32.2518 19.9559ZM0.5 16.7111C0.86651 18.144 2.10685 19.6039 3.80687 19.9725H8.94422L9.20513 20.076V33.0384H12.4147V20.076L12.7046 19.9725H17.8481C19.5647 19.5293 20.7781 18.144 21.1405 16.7111V16.6801H0.5V16.7111ZM32.2518 33.0736H44.4564C46.1543 32.734 47.4154 31.2411 47.7694 29.7916H28.9366C29.2886 31.2411 30.5683 32.734 32.2518 33.0736ZM32.2518 26.4268H44.4564C46.1543 26.0913 47.4154 24.5942 47.7694 23.1468H28.9366C29.2886 24.5942 30.5683 26.0913 32.2518 26.4268Z" fill="white"/>
<path d="M236.137 14.4382L227.461 27.2848C226.559 28.6443 224.976 29.4661 223.32 29.4661C220.622 29.4661 218.389 27.2495 218.389 24.5748C218.389 21.8606 220.622 19.6481 223.338 19.6481C223.608 19.6136 223.969 19.5759 224.221 19.5759C226.094 19.5759 228.002 20.3615 229.298 21.6833L231.889 17.7566C229.873 15.6878 226.885 14.3635 223.896 14.3635C218.316 14.3635 213.204 18.9684 213.204 24.537C213.204 30.0728 217.776 34.6046 223.358 34.6046C226.057 34.6046 228.757 33.4626 230.629 31.5694H236.605L236.641 34.6046H241.827V14.4382H236.137H236.137ZM233.763 27.1428L236.605 23.184L236.641 27.1428H233.763H233.763Z" fill="white"/>
<path d="M251.763 34.6044H246.579V19.1471H242.547V14.4717L255.793 14.438V19.1471H251.763V34.6043V34.6044Z" fill="white"/>
<path d="M273.075 14.4383L267.891 14.4396L267.855 21.9688H261.734L261.695 14.438H256.515V34.6043H261.734V26.6434H267.891V34.6043H273.075V14.438L273.075 14.4383Z" fill="white"/>
<path d="M314.62 14.438V23.8225L307.492 14.438L302.774 14.4708L302.739 21.8259C301.551 17.5421 297.482 14.438 292.946 14.438C287.367 14.438 282.794 18.9681 282.794 24.5368C282.794 26.3248 283.334 28.1408 284.196 29.7138H279.061V14.438H273.778V34.6043H285.855V31.7827C287.763 33.533 290.355 34.6043 292.946 34.6043C297.482 34.6043 301.48 31.5692 302.739 27.2845L302.774 34.6043H307.997V24.7904L315.086 34.6043H319.8L319.807 14.438H314.621H314.62ZM292.947 29.6785C290.103 29.6785 287.763 27.3946 287.763 24.5368C287.763 21.7184 290.103 19.3991 292.947 19.3991C295.828 19.3991 298.168 21.7184 298.168 24.5368C298.168 27.3946 295.828 29.6785 292.947 29.6785Z" fill="white"/>
<path d="M206.935 29.7164V26.8939H212.499L212.489 21.9705H206.935V19.4017H213.068L213.057 14.4406L201.249 14.4734V21.3991C200.025 17.6161 196.495 14.8305 192.464 14.4734L183.5 14.4406V34.6061H192.501C196.495 34.2506 200.025 31.4667 201.249 27.7181V34.6061H213.068L213.057 29.7164H206.935H206.935ZM195.524 27.6098C195.202 28.9676 193.904 29.929 192.501 29.9651H189.189V19.1488H192.501C193.904 19.1488 195.202 20.1529 195.524 21.5428C195.849 22.4713 196.029 23.5418 196.029 24.5393C196.029 25.577 195.849 26.6459 195.524 27.6098Z" fill="white"/>
<path d="M396.535 35.1447C394.723 35.0473 393.371 34.3018 392.58 32.9642C392.05 32.0663 391.889 30.8854 392.131 29.6788C392.4 28.3418 393.313 27.137 394.714 26.2704C395.52 25.7721 396.209 25.4628 397.612 24.9695C397.965 24.8455 398.27 24.7314 398.289 24.7154C398.317 24.6931 398.321 24.614 398.307 24.3573C398.267 23.6269 398.389 22.489 398.595 21.6679C398.942 20.286 399.61 19.1712 400.496 18.495C401.132 18.0091 401.966 17.6438 402.796 17.4872C403.255 17.4009 404.023 17.4012 404.454 17.488C406.303 17.8602 407.34 19.2851 406.932 20.8905C406.846 21.229 406.574 21.7839 406.343 22.0908C405.754 22.8772 404.867 23.5765 403.614 24.2418C403.457 24.3257 402.941 24.579 402.469 24.8052C401.997 25.0311 401.595 25.231 401.577 25.2496C401.551 25.2759 401.557 25.3526 401.608 25.6107C401.843 26.8038 402.238 27.8118 402.913 28.9391C403.181 29.3878 403.552 29.9536 403.594 29.9798C403.655 30.0175 403.905 29.6143 404.067 29.2152C404.269 28.7214 404.384 28.0683 404.327 27.7439C404.286 27.5116 404.159 27.2663 403.997 27.1078C403.923 27.0345 403.861 26.9652 403.861 26.9538C403.861 26.9426 404.49 26.9363 405.259 26.9402L406.657 26.9474L406.649 27.1247C406.638 27.3671 406.548 27.8841 406.453 28.252C406.186 29.2866 405.682 30.1715 404.811 31.1379C404.708 31.2518 404.624 31.3636 404.624 31.3864C404.624 31.4092 404.769 31.5677 404.945 31.7387C406.046 32.806 407.996 34.0368 409.584 34.6663C409.738 34.7276 409.864 34.79 409.864 34.8049C409.863 34.8229 408.946 34.8346 407.185 34.8394L404.506 34.8463L404.354 34.7605C404.043 34.5856 403.354 34.0288 402.692 33.4171C402.552 33.2876 402.419 33.1817 402.397 33.1817C402.375 33.1817 402.219 33.2722 402.051 33.3829C401.191 33.95 400.164 34.4595 399.294 34.7494C398.306 35.0794 397.49 35.1962 396.535 35.145V35.1447ZM398.79 32.8243C399.191 32.7529 399.683 32.6074 400.136 32.4266C400.591 32.245 401.156 31.9673 401.176 31.9147C401.184 31.894 401.08 31.7196 400.944 31.5268C400.321 30.639 399.656 29.3904 399.208 28.2706C399.044 27.8578 398.736 26.9434 398.677 26.6928C398.658 26.6129 398.624 26.5404 398.602 26.5316C398.539 26.5077 398.028 26.7804 397.586 27.0735C396.015 28.115 395.261 29.3865 395.429 30.715C395.503 31.3054 395.69 31.7358 396.03 32.0992C396.659 32.7709 397.642 33.0293 398.79 32.8243ZM401.457 23.5863C402.038 23.2459 402.96 22.4195 403.476 21.777C404.136 20.9547 404.487 20.1875 404.488 19.5652C404.488 19.2094 404.437 19.0501 404.273 18.8855C404.109 18.722 403.924 18.6543 403.642 18.654C402.804 18.654 401.899 19.648 401.504 21.0004C401.305 21.6822 401.257 22.0491 401.256 22.8819C401.255 23.5181 401.265 23.6596 401.313 23.6596C401.323 23.6596 401.388 23.6266 401.457 23.5863ZM415.305 35.1288C413.926 34.9899 413.016 34.7836 411.99 34.3774C410.595 33.8241 409.723 33.1389 408.987 32.0161C408.766 31.68 408.413 30.9744 408.27 30.5844C407.631 28.8467 407.491 26.6591 407.872 24.3769C408.257 22.0672 409.134 19.841 410.345 18.101C411.13 16.9727 412.299 15.7843 413.505 14.887C415.497 13.4055 417.789 12.4949 420.336 12.1747C421.108 12.0775 421.541 12.0526 422.454 12.0531C423.834 12.0539 424.885 12.159 426.274 12.4349C427.159 12.6112 428.57 12.9919 428.597 13.0622C428.611 13.0978 427.717 15.9627 427.68 16.0012C427.669 16.0132 427.532 15.9216 427.376 15.7968C426.12 14.7959 424.819 14.1866 423.503 13.984C423.083 13.9192 422.293 13.9184 421.881 13.9824C420.036 14.2681 418.326 15.4466 416.808 17.4784C416.315 18.1384 415.771 19.023 415.348 19.8535C414.776 20.9792 414.382 21.9742 413.984 23.3049C412.715 27.5384 412.651 30.4962 413.793 32.0974C414.263 32.7571 414.95 33.1774 415.822 33.338C416.323 33.4304 417.538 33.3744 417.66 33.2536C417.679 33.2345 418.272 31.3779 418.978 29.1279C420.138 25.432 420.263 25.0152 420.276 24.8057C420.294 24.5243 420.241 24.2728 420.115 24.0307C420 23.8106 419.696 23.512 419.446 23.3731C419.338 23.3131 419.249 23.2547 419.249 23.2435C419.248 23.2324 421.194 23.2231 423.573 23.2231C425.951 23.2231 427.897 23.2324 427.897 23.2435C427.897 23.2547 427.791 23.3123 427.662 23.371C426.989 23.6789 426.501 24.1404 426.211 24.7441C426.148 24.8747 425.604 26.5654 424.786 29.1688L423.463 33.3821L423.081 33.5653C421.524 34.3126 419.619 34.8508 417.719 35.0804C417.37 35.1229 415.598 35.1582 415.306 35.1288H415.305ZM375.501 34.8208C375.492 34.807 375.549 34.7584 375.628 34.713C376.098 34.4425 376.626 33.8812 376.849 33.4134C376.914 33.278 382.846 14.3857 382.977 13.8975C383 13.812 383.019 13.6315 383.02 13.4966C383.021 13.0845 382.893 12.7875 382.592 12.5023C382.51 12.4245 382.443 12.3494 382.443 12.3353C382.443 12.2979 392.801 12.3011 393.276 12.3388C394.304 12.4203 395.334 12.6937 396.121 13.0941C397.466 13.7777 398.271 14.8153 398.518 16.1833C398.587 16.5641 398.6 17.411 398.544 17.8209C398.313 19.4919 397.556 21.2643 396.525 22.5466C394.855 24.6238 392.124 25.9521 388.773 26.3174C387.71 26.4331 386.371 26.4623 385.423 26.3901C385.149 26.3692 384.919 26.3577 384.912 26.3646C384.879 26.3986 382.74 33.2602 382.716 33.4134C382.64 33.8857 382.883 34.4167 383.303 34.695C383.385 34.7499 383.446 34.8065 383.437 34.8203C383.416 34.8545 375.522 34.8548 375.5 34.8205L375.501 34.8208ZM387.258 24.6294C388.037 24.4913 388.724 24.203 389.387 23.7366C389.709 23.5101 390.371 22.8493 390.643 22.4816C391.326 21.5622 391.829 20.4774 392.234 19.0485C392.492 18.1379 392.602 17.4442 392.601 16.7292C392.601 16.178 392.552 15.8488 392.413 15.4795C392.207 14.9316 391.788 14.4985 391.256 14.2835C390.799 14.0987 390.408 14.0501 389.47 14.061L388.762 14.069L387.117 19.3076C386.212 22.189 385.477 24.5604 385.483 24.5774C385.489 24.5944 385.603 24.623 385.735 24.6411C385.868 24.6591 385.994 24.6783 386.017 24.6838C386.12 24.709 387.037 24.669 387.258 24.6297V24.6294Z" fill="white"/>
<path fill-rule="evenodd" clip-rule="evenodd" d="M563.694 24.0732C563.694 24.0732 562.325 23.2263 561.478 22.8986C561.478 22.8986 558.856 21.6836 558.336 21.1056C558.336 21.1056 557.314 20.1427 557.913 19.0244C557.913 19.0244 558.163 18.2926 559.243 18.2926C559.243 18.2926 560.648 18.3699 560.648 19.5251V21.1548H565.686L565.677 18.7547C565.677 18.7547 566.064 14.8242 559.743 14.6512C559.743 14.6512 554.772 14.3243 553.346 17.002C553.346 17.002 552.787 17.5994 552.787 19.6798V21.1829C552.787 21.1829 552.729 22.9171 553.615 24.0345C553.615 24.0345 554.116 24.7672 555.349 25.5754C555.349 25.5754 557.854 26.924 559.357 27.6962C559.357 27.6962 560.874 28.5624 560.675 29.9408C560.675 29.9408 560.551 31.356 559.085 31.2981C559.085 31.2981 557.746 31.2383 557.746 29.8503V28.2215H552.378V30.5873C552.378 30.5873 552.228 35.1117 559.125 35.1117C559.125 35.1117 565.716 35.2452 566.023 30.4687V28.5422C566.022 28.5422 566.256 25.615 563.694 24.0732ZM537.905 15.2143L536.218 25.7845H535.823L534.212 15.3092H525.798L525.376 34.451H530.358L530.418 20.0285H530.81L533.451 34.4484H538.692L541.3 20.0338H541.647L541.767 34.451H546.776L546.236 15.2143H537.905ZM508.248 15.2942L504.933 34.4291H510.296L512.26 19.5928H512.701L514.664 34.4291H520.026L516.712 15.2942H508.248ZM620.787 23.8096V26.6323H622.163V29.6623C622.163 31.1434 620.897 31.1707 620.897 31.1707C619.357 31.1707 619.415 29.7633 619.415 29.7633V19.2827C619.415 18.203 620.782 18.145 620.782 18.145C622.092 18.145 622.101 19.4329 622.101 19.4329V21.0265H627.151C627.316 17.9157 626.696 17.1628 626.696 17.1628C625.443 14.3498 620.704 14.5036 620.704 14.5036C613.422 14.5036 614.23 20.0909 614.23 20.0909V30.2245C614.387 35.4648 621.563 34.9325 621.684 34.9281C624.875 34.5749 625.839 33.5602 625.839 33.5602C626.726 32.9013 626.955 31.9886 626.955 31.9886C627.209 31.4571 627.272 29.7633 627.272 29.7633V23.8096H620.787ZM604.049 26.924H603.829L598.705 15.2195H592.573V34.4528H597.563L597.265 22.7501H597.488L602.797 34.4528H608.742V15.2178H603.688L604.049 26.924ZM580.393 29.6605C580.393 29.6605 580.465 31.2392 579.001 31.2392C579.001 31.2392 577.462 31.3218 577.462 29.7L577.446 15.231H571.973V29.585C571.973 29.585 571.412 35.0177 579.079 35.0177C579.079 35.0177 585.741 35.0967 585.741 29.8345V15.2318H580.393V29.6605ZM497.814 24.0732C497.814 24.0732 496.446 23.2263 495.598 22.8995C495.598 22.8995 492.978 21.6854 492.458 21.1065C492.458 21.1065 491.437 20.1418 492.036 19.0261C492.036 19.0261 492.285 18.2943 493.364 18.2943C493.364 18.2943 494.771 18.3708 494.771 19.526V21.1556H499.81L499.8 18.7547C499.8 18.7547 500.185 14.8242 493.867 14.652C493.867 14.652 493.39 14.6213 492.692 14.6564C492.692 14.6564 488.864 14.862 487.496 16.9616C487.488 16.9775 487.476 16.9889 487.468 17.0029C487.468 17.0029 486.91 17.5994 486.91 19.6806V21.1838C486.91 21.1838 486.852 22.9179 487.738 24.0354C487.738 24.0354 488.239 24.7681 489.472 25.5763C489.472 25.5763 491.976 26.9248 493.479 27.697C493.479 27.697 494.998 28.5615 494.797 29.9416C494.797 29.9416 494.673 31.3569 493.209 31.2989C493.209 31.2989 491.869 31.2392 491.869 29.8512V28.2215H486.5V30.5891C486.5 30.5891 486.35 35.1134 493.247 35.1134C493.247 35.1134 499.836 35.247 500.146 30.4705V28.5457C500.146 28.5439 500.376 25.615 497.814 24.0732Z" fill="white"/>
<path fill-rule="evenodd" clip-rule="evenodd" d="M742.781 17.1034C744.081 16.3951 745.38 16.0402 747.035 16.0402C751.052 16.0402 754.125 19.5859 754.125 24.4302C754.125 30.575 750.343 34.4749 744.081 34.4749C741.835 34.4749 739.589 34.12 737.462 33.6471C737.581 31.1653 737.7 16.0402 737.462 13.2043C737.228 11.7856 736.872 11.1953 735.809 10.9592L734.982 10.8412V10.1322L742.9 8.71484C742.781 9.89605 742.781 13.3223 742.781 17.1034ZM742.899 33.0569C743.252 33.1743 743.844 33.1743 744.317 33.1743C746.798 33.1743 748.571 29.5119 748.572 24.7836C748.572 21.0032 747.154 17.9311 744.553 17.9311C743.961 17.9311 743.489 18.0492 742.78 18.286C742.663 24.4302 742.78 31.4028 742.899 33.0569ZM684.405 9.18705H705.203L705.322 16.159L704.14 16.5138C702.959 12.9681 701.305 10.9599 698.113 10.9599H693.978C693.859 13.2049 693.741 16.986 693.741 21.0039L696.576 20.8852C698.349 20.8852 699.175 19.4679 699.53 17.4589H700.594V25.8461H699.53C699.175 23.8379 698.349 22.4199 696.576 22.4199L693.74 22.3018C693.74 25.3732 693.858 27.8551 693.977 29.3918C694.213 31.6375 694.804 32.7007 696.34 32.818L697.758 33.0555V34.0006H684.405V33.0555L685.587 32.818C687.123 32.7014 687.713 31.6375 687.95 29.3918C688.186 25.7301 688.305 18.0485 687.95 13.7945C687.714 11.5495 687.123 10.6044 685.587 10.3683L684.405 10.2502V9.18705ZM720.802 25.1391C720.802 19.822 717.848 15.8041 711.939 15.8041C706.031 15.8041 702.722 20.0581 702.722 25.1391C702.722 30.457 705.676 34.4755 711.585 34.4755C717.493 34.4755 720.802 30.2202 720.802 25.1391ZM708.276 25.1391C708.276 20.531 708.985 16.986 711.585 16.986C714.067 16.986 715.248 20.649 715.248 25.1391C715.248 29.7473 714.537 33.2923 711.821 33.2923C709.458 33.2923 708.276 29.6292 708.276 25.1391ZM764.759 15.8041C758.733 15.8041 755.66 20.4129 755.66 25.2579C755.66 30.6937 759.442 34.4748 764.759 34.4755C768.068 34.4755 770.667 32.8201 771.849 31.166L771.377 30.5757C770.195 31.4034 769.249 31.875 767.359 31.875C763.104 31.875 760.977 28.6841 761.096 24.3121H772.085C772.085 19.4678 769.721 15.8041 764.759 15.8041ZM766.65 22.8941L761.096 23.0128C761.213 20.2942 762.278 16.986 764.287 16.986C766.295 16.986 766.65 20.531 766.65 22.8941ZM780.714 15.8041C782.841 15.8041 784.731 16.1583 786.149 16.7499L786.27 21.358L785.444 21.5941C784.379 18.4033 782.961 17.1034 780.835 17.1034C779.417 17.1034 778.352 18.1672 778.352 19.7033C778.352 21.24 779.532 22.067 782.842 23.3663C785.914 24.5489 787.215 25.9662 787.215 28.448C787.215 32.1104 784.26 34.4748 779.651 34.4748C777.405 34.4748 774.806 34.0013 773.388 33.411L773.269 28.2119L774.097 27.9744C775.396 31.5201 777.052 32.8194 779.296 32.8194C781.187 32.8194 782.251 31.5201 782.251 30.1021C782.251 28.6841 781.423 27.8564 778.47 26.7939C775.63 25.8481 773.624 24.5489 773.624 21.4761C773.624 18.4033 776.343 15.8041 780.714 15.8041ZM728.719 19.9407C730.609 15.6861 734.155 15.0965 736.163 16.277L734.272 21.1226C731.909 19.5866 729.31 20.2949 728.719 21.1226C728.601 23.9586 728.601 28.4487 728.837 30.6944C728.955 32.1111 729.31 32.8201 730.491 32.9388L731.909 33.0575V34.0026H720.92V33.0575L721.747 32.9388C722.812 32.8201 723.283 32.1111 723.402 30.6944C723.52 28.2133 723.638 23.2496 723.402 20.4136C723.283 18.8769 722.812 18.2866 721.747 18.1679L720.92 18.0498V17.3408L728.837 15.8048L728.719 19.9407Z" fill="white"/>
<path fill-rule="evenodd" clip-rule="evenodd" d="M855.566 11.2839C855.568 11.2914 855.57 11.2988 855.573 11.3062C855.577 11.3173 855.581 11.3285 855.582 11.3396C855.585 11.3744 855.585 11.4069 855.585 11.4417V12.8196L855.585 12.8397C855.585 12.9158 855.585 12.9528 855.566 12.9708C855.549 12.9879 855.515 12.9881 855.449 12.9886L855.414 12.9889H854.694H843.75C843.713 12.9889 843.682 12.9895 843.655 12.9901H843.655H843.655H843.655H843.655H843.655H843.655H843.655H843.655H843.655H843.655H843.655H843.655H843.655C843.576 12.9917 843.537 12.9925 843.519 12.9735C843.501 12.9552 843.501 12.9187 843.502 12.8471C843.503 12.8201 843.504 12.788 843.503 12.75V11.2839H855.566ZM896.821 21.8293L896.81 21.8308C896.801 21.8319 896.794 21.8329 896.79 21.8363C896.779 21.8571 896.767 21.878 896.757 21.9012C896.71 22.0296 896.663 22.158 896.616 22.2869L896.582 22.3815L896.525 22.5368C896.511 22.5786 896.494 22.618 896.475 22.6597C896.462 22.6611 896.45 22.6632 896.438 22.6652C896.43 22.6666 896.422 22.668 896.414 22.669C896.384 22.6706 896.354 22.6701 896.324 22.6695L896.307 22.6693L896.279 22.669H887.099L887.081 22.6692L887.058 22.6696L887.058 22.6697C887.007 22.6708 886.954 22.672 886.9 22.6574C886.883 22.618 886.867 22.5762 886.852 22.5368C886.774 22.3303 886.698 22.1239 886.623 21.9174C886.617 21.9 886.609 21.8834 886.601 21.8666C886.596 21.8567 886.592 21.8466 886.587 21.8363C886.585 21.8339 886.58 21.8316 886.575 21.8316C886.566 21.8293 886.556 21.8363 886.556 21.8478L886.556 21.854V21.8541V21.8541V21.8542V21.8542V21.8543V21.8543V21.8543C886.554 21.8867 886.552 21.9173 886.552 21.9499V22.4927C886.552 22.5322 886.552 22.5716 886.549 22.611C886.549 22.6458 886.53 22.6667 886.497 22.669C886.492 22.669 886.486 22.6692 886.48 22.6695L886.468 22.6702C886.458 22.6708 886.447 22.6713 886.438 22.6713H886.334H881.533C881.478 22.6713 881.424 22.6713 881.367 22.669C881.334 22.669 881.315 22.6481 881.315 22.611C881.315 22.5933 881.314 22.5756 881.314 22.5582C881.313 22.5414 881.313 22.5249 881.313 22.509V21.1287C881.313 21.109 881.313 21.0893 881.314 21.0696C881.314 21.0499 881.315 21.0302 881.315 21.0104C881.315 20.9919 881.334 20.971 881.351 20.971C881.37 20.9687 881.391 20.9664 881.41 20.9664H881.545H890.964C891.001 20.9664 891.032 20.9657 891.058 20.9651C891.128 20.9636 891.161 20.9628 891.182 20.9784C891.201 20.9924 891.21 21.0196 891.227 21.0713L891.227 21.0713C891.236 21.098 891.247 21.1314 891.262 21.1728C891.354 21.4158 891.443 21.6599 891.532 21.9043L891.532 21.905L891.533 21.9059L891.533 21.907L891.534 21.9079L891.534 21.9086L891.534 21.9094L891.534 21.9099L891.534 21.9106L891.535 21.9109L891.535 21.9112L891.535 21.9116L891.535 21.9119L891.535 21.9123L891.535 21.9126L891.535 21.9129L891.535 21.9133L891.536 21.9136L891.536 21.914L891.536 21.9143L891.536 21.9146L891.536 21.915L891.536 21.9153L891.536 21.9158L891.536 21.9159L891.537 21.9161L891.537 21.9162L891.537 21.9164L891.537 21.9165L891.537 21.9167L891.537 21.9168L891.537 21.917L891.537 21.9171L891.537 21.9174L891.537 21.9177L891.537 21.9181L891.539 21.9228L891.54 21.926L891.541 21.9291L891.542 21.9321L891.544 21.9352C891.58 22.0352 891.617 22.1352 891.653 22.2352C891.657 22.2463 891.662 22.2573 891.666 22.2683L891.666 22.2684C891.675 22.2943 891.684 22.3198 891.696 22.3443C891.699 22.3504 891.708 22.3545 891.719 22.3592C891.725 22.3617 891.73 22.3643 891.736 22.3675C891.782 22.2574 891.821 22.1474 891.859 22.0382L891.859 22.0382L891.859 22.0382L891.859 22.0381L891.859 22.0381L891.859 22.0381C891.874 21.9954 891.889 21.9528 891.904 21.9105C891.933 21.8328 891.961 21.7545 891.99 21.6762C892.018 21.5979 892.046 21.5196 892.075 21.4419L892.132 21.2819C892.168 21.1831 892.204 21.0833 892.241 20.9826C892.25 20.9809 892.259 20.9787 892.268 20.9764L892.268 20.9764C892.284 20.9725 892.299 20.9687 892.314 20.9687C892.359 20.9664 892.404 20.9664 892.449 20.9664H901.809C901.831 20.9664 901.851 20.9662 901.869 20.966C901.951 20.9652 901.991 20.9648 902.01 20.9846C902.029 21.0037 902.028 21.0416 902.028 21.116V21.116C902.027 21.1342 902.027 21.1546 902.027 21.1775V22.4974C902.027 22.5414 902.025 22.5855 902.022 22.6296C902.022 22.6481 902.003 22.6667 901.984 22.669C901.97 22.6713 901.954 22.6713 901.939 22.6713H901.835H897.02H896.961L896.948 22.6714C896.884 22.6714 896.852 22.6715 896.837 22.6556C896.821 22.6401 896.821 22.6091 896.821 22.5475L896.821 22.5345V21.9476C896.826 21.9095 896.824 21.8737 896.821 21.8337L896.821 21.8293ZM875.64 32.3538H875.797C875.884 32.2772 875.939 32.1891 875.986 32.0986C876.05 31.9803 876.102 31.8597 876.147 31.7344C876.263 31.4213 876.341 31.0965 876.41 30.7718C876.413 30.7565 876.414 30.7403 876.415 30.7243V30.7243L876.415 30.7241L876.415 30.724L876.415 30.7238C876.416 30.7157 876.416 30.7076 876.417 30.6999C876.42 30.6813 876.401 30.6581 876.384 30.6581L876.378 30.6579C876.309 30.6556 876.242 30.6535 876.173 30.6535H857.527H857.437L857.417 30.6534C857.342 30.6533 857.305 30.6533 857.286 30.6719C857.268 30.6903 857.268 30.7268 857.268 30.7993L857.268 30.8251V32.1752L857.268 32.2062C857.268 32.2819 857.268 32.3191 857.286 32.3373C857.304 32.355 857.34 32.3547 857.41 32.3541H857.41L857.458 32.3538H875.64ZM866.832 16.2155H857.501C857.471 16.2155 857.441 16.2149 857.411 16.2144L857.411 16.2144C857.38 16.2138 857.35 16.2132 857.321 16.2132C857.295 16.2132 857.273 16.1923 857.271 16.1668C857.269 16.1436 857.266 16.1181 857.266 16.0926V14.6242C857.266 14.601 857.269 14.5755 857.271 14.5523C857.273 14.5337 857.292 14.5175 857.311 14.5152C857.325 14.5129 857.342 14.5129 857.356 14.5129H857.491H875.584H875.688L875.702 14.5128C875.743 14.5128 875.765 14.5127 875.783 14.5206C875.806 14.5301 875.823 14.5509 875.861 14.5965L875.863 14.5987C875.93 14.6776 875.979 14.768 876.027 14.8608C876.11 15.0278 876.171 15.2041 876.226 15.3827C876.299 15.617 876.353 15.856 876.406 16.0949C876.41 16.1162 876.412 16.1394 876.414 16.161V16.161L876.415 16.1668C876.417 16.1923 876.401 16.2132 876.37 16.2132C876.311 16.2155 876.249 16.2155 876.19 16.2155H870.07H866.832ZM874.215 33.8779H865.86C863.43 33.8779 861 33.8779 858.567 33.8756H857.473C857.423 33.8756 857.373 33.8779 857.324 33.8802C857.298 33.8825 857.276 33.9011 857.274 33.9266L857.274 33.9266C857.272 33.9707 857.269 34.0148 857.269 34.0588V34.9403V35.4251C857.269 35.4599 857.272 35.4947 857.279 35.5272C857.281 35.5388 857.295 35.5527 857.307 35.555C857.345 35.5597 857.385 35.562 857.426 35.562C857.726 35.5643 858.024 35.5643 858.325 35.5643H858.326C858.937 35.5643 859.548 35.5649 860.158 35.5655H860.159H860.16H860.161H860.162H860.163H860.163H860.164H860.165H860.166H860.167H860.168H860.169H860.17H860.171H860.171H860.172H860.173H860.174H860.175H860.176H860.177H860.178H860.179H860.179H860.18H860.181H860.182H860.183H860.184H860.185H860.186H860.186C860.787 35.566 861.387 35.5666 861.987 35.5666C862.698 35.5666 863.408 35.5672 864.118 35.5678C864.827 35.5684 865.537 35.5689 866.248 35.5689H869.533C869.553 35.5689 869.572 35.5687 869.592 35.5684L869.593 35.5684C869.633 35.5679 869.673 35.5674 869.713 35.5689C870.028 35.5759 870.343 35.5736 870.658 35.5597C870.798 35.5527 870.937 35.5388 871.075 35.5179C871.352 35.4762 871.624 35.4182 871.892 35.3347C872.79 35.0563 873.592 34.6086 874.31 34.0147C874.346 33.9869 874.379 33.9544 874.41 33.9243C874.414 33.9196 874.417 33.9057 874.414 33.8988C874.412 33.8918 874.403 33.8825 874.395 33.8825C874.336 33.8802 874.275 33.8779 874.215 33.8779ZM865.852 12.989H857.496C857.437 12.989 857.375 12.9867 857.316 12.9843C857.297 12.9843 857.278 12.9658 857.276 12.9472C857.275 12.9353 857.274 12.9236 857.273 12.9121C857.271 12.8899 857.269 12.868 857.269 12.8452V11.451V11.393C857.271 11.3304 857.285 11.3188 857.349 11.3165H857.454H858.744H866.321H870.298H870.523C870.769 11.3165 871.01 11.349 871.252 11.393C871.958 11.5183 872.614 11.7758 873.232 12.1237C873.611 12.3371 873.966 12.5784 874.298 12.8568C874.331 12.8846 874.367 12.9147 874.397 12.9449C874.402 12.9495 874.404 12.9611 874.404 12.9704C874.404 12.982 874.397 12.9867 874.386 12.9867C874.331 12.989 874.277 12.989 874.22 12.989H865.852ZM873.884 22.6712H874.028C874.04 22.6629 874.051 22.657 874.06 22.6518L874.071 22.6457C874.383 22.3975 874.675 22.1308 874.942 21.8385C875.089 21.6784 875.226 21.5091 875.345 21.3281C875.404 21.2377 875.461 21.1449 875.506 21.0475C875.53 20.9941 875.518 20.9709 875.463 20.9686C875.414 20.9663 875.364 20.9663 875.314 20.9663H872.254H860.971H860.822C860.807 20.9663 860.791 20.9686 860.777 20.9709C860.758 20.9732 860.739 20.9918 860.739 21.0103L860.739 21.0104C860.736 21.0545 860.734 21.0985 860.734 21.1426V22.4926L860.734 22.5394C860.733 22.6069 860.733 22.6404 860.749 22.6568C860.766 22.673 860.799 22.6726 860.864 22.6717C860.881 22.6715 860.9 22.6712 860.921 22.6712H873.884ZM874.023 24.1978C874.048 24.2187 874.073 24.2391 874.097 24.2593C874.127 24.2839 874.156 24.3081 874.186 24.3324C874.484 24.5806 874.766 24.8427 875.02 25.135C875.152 25.2881 875.278 25.4458 875.382 25.6198C875.427 25.6963 875.467 25.7752 875.508 25.8541C875.511 25.8619 875.509 25.8718 875.506 25.8831C875.505 25.8886 875.504 25.8944 875.503 25.9005H875.335H872.379H860.949C860.89 25.9005 860.828 25.8982 860.769 25.8958C860.75 25.8958 860.733 25.8773 860.731 25.8564C860.729 25.8216 860.729 25.7891 860.729 25.7543V24.3463C860.729 24.3289 860.729 24.3122 860.73 24.2954L860.73 24.2952L860.73 24.2951C860.73 24.2783 860.731 24.2616 860.731 24.2442C860.731 24.221 860.755 24.2001 860.781 24.1978C860.8 24.1955 860.821 24.1955 860.84 24.1955H860.989H873.8L873.835 24.1944C873.901 24.1921 873.964 24.1899 874.023 24.1978ZM855.364 14.5128H849.545C847.709 14.5128 845.874 14.5128 844.043 14.5151H843.652C843.619 14.5151 843.588 14.5172 843.554 14.5194L843.548 14.5198C843.531 14.5198 843.513 14.5407 843.513 14.5592C843.51 14.6079 843.508 14.6566 843.508 14.7054V16.0253V16.1273C843.508 16.2039 843.517 16.2132 843.591 16.2155H843.74H855.35H855.499C855.513 16.2155 855.53 16.2132 855.544 16.2108C855.563 16.2085 855.582 16.19 855.582 16.1714C855.584 16.1343 855.587 16.0949 855.587 16.0554V14.6752C855.587 14.6427 855.587 14.6079 855.584 14.5731C855.582 14.5383 855.563 14.5151 855.53 14.5151C855.473 14.5128 855.419 14.5128 855.364 14.5128ZM849.624 32.3538H843.804C843.752 32.3538 843.7 32.3517 843.645 32.3495L843.639 32.3492C843.62 32.3492 843.601 32.3307 843.601 32.3121C843.598 32.2889 843.596 32.2634 843.596 32.2402V30.7741C843.596 30.7614 843.597 30.7492 843.597 30.737C843.598 30.7248 843.598 30.7127 843.598 30.6999C843.601 30.6813 843.617 30.6628 843.634 30.6605C843.648 30.6582 843.662 30.6558 843.679 30.6558H843.814H855.452C855.512 30.6558 855.573 30.6582 855.632 30.6605C855.651 30.6605 855.67 30.6814 855.673 30.6976L855.673 30.7036C855.675 30.7315 855.677 30.7576 855.677 30.7857V32.2239V32.224C855.677 32.2495 855.677 32.2727 855.675 32.2982C855.673 32.333 855.654 32.3538 855.62 32.3562C855.575 32.3585 855.53 32.3585 855.485 32.3585H853.55C852.243 32.3538 850.933 32.3538 849.624 32.3538ZM843.821 35.5616H849.64C851.57 35.5616 853.498 35.5616 855.431 35.5593H855.566C855.585 35.5593 855.606 35.5593 855.625 35.557C855.656 35.5546 855.675 35.5338 855.677 35.499C855.679 35.4688 855.679 35.441 855.679 35.4108V35.4108V34.0306V34.0306C855.679 33.9958 855.679 33.9633 855.677 33.9285C855.677 33.9053 855.653 33.8821 855.63 33.8821L855.623 33.8819C855.568 33.8796 855.516 33.8775 855.464 33.8775H843.809H843.704C843.697 33.8775 843.69 33.8781 843.682 33.8787C843.674 33.8792 843.667 33.8798 843.659 33.8798C843.622 33.8821 843.603 33.9007 843.6 33.9332C843.598 33.9587 843.598 33.9819 843.598 34.0074V35.4317C843.598 35.4598 843.6 35.4859 843.602 35.5138L843.603 35.5198C843.603 35.5384 843.622 35.557 843.641 35.557C843.7 35.5593 843.761 35.5616 843.821 35.5616ZM889.418 16.2104L889.411 16.2115C889.398 16.2136 889.386 16.2157 889.373 16.2157C889.343 16.2172 889.313 16.2167 889.283 16.2162L889.283 16.2162C889.268 16.2159 889.253 16.2157 889.238 16.2157H878.076C878.017 16.2157 877.955 16.2133 877.896 16.211C877.877 16.211 877.858 16.1925 877.855 16.1739C877.855 16.1635 877.854 16.1534 877.852 16.1434L877.852 16.1433C877.85 16.1242 877.848 16.1055 877.848 16.0857V14.6475C877.848 14.622 877.848 14.5988 877.851 14.5733C877.853 14.5316 877.872 14.513 877.917 14.513C877.962 14.5107 878.007 14.5107 878.052 14.5107H888.644C888.655 14.5107 888.667 14.5105 888.679 14.5103C888.727 14.5096 888.777 14.5088 888.826 14.52C888.84 14.5501 888.854 14.5826 888.866 14.6127C889.056 15.1324 889.245 15.6543 889.432 16.1739C889.435 16.1785 889.432 16.1832 889.43 16.1878C889.432 16.1948 889.432 16.1994 889.43 16.2087L889.418 16.2104ZM893.989 16.1773V16.1773C893.988 16.1867 893.986 16.1965 893.984 16.2064C894.027 16.2172 894.067 16.2177 894.106 16.2182C894.126 16.2185 894.145 16.2187 894.164 16.2203H905.201H905.322C905.338 16.2203 905.355 16.2203 905.367 16.2133C905.379 16.2064 905.393 16.1948 905.395 16.1832C905.402 16.153 905.402 16.1252 905.402 16.095V14.6429C905.402 14.6147 905.4 14.5886 905.398 14.5608L905.398 14.5547C905.398 14.5385 905.376 14.5199 905.357 14.5199L905.351 14.5197C905.296 14.5174 905.244 14.5153 905.192 14.5153H894.77C894.757 14.5153 894.744 14.515 894.73 14.5148C894.703 14.5143 894.677 14.5138 894.65 14.5153L894.63 14.5176C894.617 14.5192 894.604 14.5207 894.593 14.5223C894.565 14.5555 894.553 14.5925 894.54 14.6299L894.54 14.6299L894.536 14.6429C894.401 15.0187 894.264 15.3968 894.126 15.7749L894.098 15.8525C894.063 15.9512 894.027 16.0491 893.994 16.1484C893.991 16.1569 893.99 16.1668 893.989 16.1773ZM887.656 11.3234L887.666 11.3418L887.666 11.3418C887.672 11.3531 887.677 11.3638 887.682 11.3745C887.874 11.8987 888.066 12.423 888.255 12.9472C888.257 12.9503 888.256 12.9534 888.256 12.9565L888.255 12.9585L888.255 12.9611C888.255 12.964 888.254 12.9669 888.253 12.9708L888.251 12.976L888.25 12.9797C888.241 12.9808 888.231 12.9826 888.222 12.9843C888.213 12.9861 888.203 12.9878 888.194 12.989C888.16 12.9905 888.127 12.99 888.094 12.9895C888.077 12.9892 888.061 12.989 888.044 12.989H878.087C878.028 12.989 877.967 12.989 877.907 12.9866C877.874 12.9866 877.855 12.9658 877.853 12.9287C877.851 12.8939 877.851 12.8614 877.851 12.8266V11.4765C877.851 11.4371 877.853 11.3977 877.855 11.3605C877.858 11.342 877.874 11.3211 877.893 11.3211C877.907 11.3188 877.924 11.3188 877.938 11.3188H878.073H887.459L887.483 11.3179C887.539 11.3156 887.598 11.3132 887.656 11.3234ZM895.157 12.9614C895.158 12.9671 895.159 12.9732 895.159 12.9797C895.214 12.9931 895.267 12.9906 895.322 12.9881L895.356 12.9866H905.182H905.317C905.331 12.9866 905.348 12.9843 905.362 12.982C905.381 12.982 905.4 12.9634 905.4 12.9449L905.4 12.9446C905.402 12.896 905.405 12.8474 905.405 12.7987C905.405 12.658 905.405 12.517 905.405 12.3759V12.3757V12.3754V12.3752V12.3749V12.3746V12.3744V12.3741V12.3739C905.406 12.0901 905.406 11.806 905.405 11.5229C905.405 11.4943 905.405 11.4695 905.405 11.4482V11.4482V11.4482V11.4481V11.4481V11.4481V11.4481V11.4481V11.4481V11.4481V11.4481V11.448V11.448V11.448V11.448V11.448V11.448V11.448V11.448V11.448V11.4479V11.4479C905.406 11.3805 905.406 11.3466 905.389 11.33C905.372 11.3132 905.338 11.3139 905.269 11.3154C905.246 11.3159 905.219 11.3164 905.187 11.3164H895.945H895.855H895.81C895.751 11.3188 895.739 11.3257 895.72 11.3744C895.708 11.4022 895.699 11.43 895.69 11.4578L895.689 11.4579C895.539 11.8735 895.388 12.2914 895.237 12.7093L895.237 12.7095L895.235 12.7152L895.157 12.9379C895.154 12.9449 895.155 12.9527 895.157 12.9614ZM885.974 19.4421H881.519C881.467 19.4421 881.415 19.44 881.361 19.4378L881.361 19.4378L881.361 19.4378L881.361 19.4378H881.36H881.36H881.36L881.354 19.4375C881.335 19.4375 881.318 19.4166 881.318 19.3981C881.316 19.3633 881.316 19.3308 881.316 19.296V17.8879C881.316 17.8485 881.318 17.8091 881.323 17.772C881.323 17.765 881.335 17.7557 881.344 17.7511C881.358 17.7464 881.372 17.7441 881.389 17.7441H881.538H889.816L889.849 17.7444L889.866 17.7446C889.899 17.7452 889.932 17.7457 889.965 17.7441C890.001 17.7441 890.02 17.7627 890.031 17.7928C890.06 17.8671 890.086 17.939 890.112 18.0132C890.271 18.4447 890.429 18.8785 890.586 19.3099C890.598 19.3424 890.607 19.3749 890.616 19.4073C890.621 19.4189 890.605 19.4375 890.593 19.4375C890.538 19.4398 890.484 19.4398 890.427 19.4398C888.944 19.4421 887.459 19.4421 885.974 19.4421ZM892.822 19.4225L892.823 19.426L892.825 19.4315L892.826 19.4353C892.862 19.4427 892.9 19.4435 892.937 19.4443H892.937C892.959 19.4448 892.98 19.4452 893.001 19.4469H901.816H901.892L901.91 19.4467C902.03 19.4449 902.032 19.4449 902.032 19.3078V17.8858V17.8856C902.032 17.8555 902.032 17.8277 902.03 17.7976C902.03 17.7698 902.011 17.7489 901.985 17.7489C901.928 17.7466 901.873 17.7466 901.819 17.7466H893.617H893.482L893.475 17.7466C893.452 17.7464 893.43 17.7462 893.408 17.7675C893.403 17.7823 893.397 17.7977 893.39 17.8139C893.384 17.8281 893.378 17.8427 893.373 17.8579C893.2 18.3404 893.025 18.8253 892.849 19.3078C892.838 19.3402 892.828 19.3727 892.819 19.4052C892.817 19.4095 892.819 19.4156 892.822 19.4225ZM901.163 32.3539H897.039C896.989 32.3539 896.94 32.3539 896.89 32.3516C896.852 32.3516 896.833 32.333 896.831 32.3005L896.831 32.2913L896.83 32.2843L896.83 32.2715C896.829 32.2617 896.828 32.2518 896.828 32.2425V30.7603C896.828 30.7417 896.831 30.7208 896.831 30.7023C896.833 30.6767 896.852 30.6559 896.88 30.6559C896.935 30.6536 896.989 30.6536 897.046 30.6536H900.286H905.265C905.297 30.6536 905.325 30.653 905.349 30.6526H905.349H905.349H905.349H905.349H905.349H905.349C905.426 30.6512 905.464 30.6505 905.482 30.6691C905.5 30.6872 905.499 30.7238 905.498 30.7961V30.7962V30.7962V30.7963V30.7963V30.7964C905.497 30.8193 905.497 30.8457 905.497 30.8762C905.498 31.1622 905.498 31.4471 905.497 31.7323V31.7326V31.7328V31.7331V31.7333V31.7336V31.7338V31.7341V31.7344V31.7346V31.7349V31.7351V31.7354V31.7356V31.7359V31.7362V31.7364V31.7367V31.7369V31.7372C905.497 31.8808 905.497 32.0244 905.497 32.1683C905.497 32.217 905.494 32.2657 905.492 32.3145C905.492 32.333 905.471 32.3492 905.452 32.3516C905.438 32.3516 905.421 32.3539 905.407 32.3539H905.272H901.163ZM878.161 32.3538H882.239C883.604 32.3538 884.97 32.3538 886.332 32.3561C886.361 32.3561 886.389 32.3555 886.416 32.3549L886.417 32.3549H886.417H886.417H886.417H886.417H886.417H886.417L886.451 32.3542C886.467 32.3539 886.482 32.3538 886.498 32.3538C886.524 32.3538 886.545 32.3329 886.547 32.3097L886.548 32.3035C886.55 32.2757 886.552 32.2496 886.552 32.2215V30.7833C886.552 30.7552 886.55 30.7291 886.548 30.7013L886.547 30.6952C886.545 30.6789 886.526 30.6581 886.507 30.6581C886.453 30.6557 886.398 30.6534 886.344 30.6534H878.158C878.113 30.6534 878.068 30.6534 878.023 30.6557C877.967 30.6581 877.95 30.672 877.948 30.723C877.945 30.7671 877.945 30.8112 877.945 30.8552C877.945 30.9969 877.945 31.1388 877.945 31.2809V31.2811V31.2814V31.2816V31.2819V31.2821V31.2824V31.2827V31.2829V31.2832V31.2834V31.2837V31.2839V31.2842V31.2845V31.2847C877.944 31.5716 877.944 31.8588 877.945 32.145C877.945 32.1703 877.945 32.1925 877.945 32.2121C877.944 32.2844 877.943 32.3206 877.961 32.3384C877.979 32.3562 878.015 32.3556 878.088 32.3545C878.109 32.3541 878.133 32.3538 878.161 32.3538ZM901.156 35.5619H897.061C897.029 35.5619 897.001 35.5624 896.976 35.5628L896.976 35.5629C896.899 35.5642 896.861 35.5649 896.843 35.5464C896.826 35.5286 896.827 35.4929 896.828 35.4228C896.829 35.3991 896.829 35.3714 896.829 35.3392C896.828 35.0452 896.828 34.7512 896.829 34.4579V34.4574V34.4569L896.829 34.2998L896.829 34.0193C896.829 33.8825 896.829 33.8801 896.969 33.8801H897.073H905.249L905.274 33.88L905.297 33.8798L905.34 33.8791C905.422 33.8776 905.462 33.8769 905.481 33.8966C905.5 33.9155 905.499 33.953 905.498 34.0265C905.498 34.0526 905.497 34.0832 905.498 34.1191C905.499 34.4085 905.499 34.6969 905.498 34.9857V34.9859V34.9862V34.9865V34.9867V34.987V34.9872V34.9875V34.9877V34.988V34.9883V34.9885V34.9888V34.989V34.9893C905.498 35.1344 905.498 35.2796 905.498 35.425V35.4318C905.498 35.4964 905.498 35.5289 905.481 35.5453C905.465 35.5619 905.432 35.5619 905.365 35.5619H905.358H905.237H901.156ZM878.177 35.562H882.242C883.606 35.562 884.97 35.562 886.337 35.5597C886.394 35.5597 886.448 35.5597 886.503 35.5574C886.529 35.555 886.552 35.5342 886.552 35.511L886.552 35.4958L886.553 35.4733L886.553 35.4448C886.554 35.4228 886.555 35.4008 886.555 35.3787C886.555 35.2348 886.555 35.0909 886.555 34.9471V34.9468V34.9466V34.9463V34.9461V34.9458V34.9456V34.9453V34.945V34.9448V34.9445V34.9443V34.944V34.9438V34.9435V34.9432V34.943C886.556 34.657 886.556 34.3713 886.555 34.0867L886.554 34.0475L886.555 34.0189V34.0187V34.0186V34.0184V34.0182V34.0181C886.555 33.949 886.555 33.913 886.537 33.8945C886.518 33.8743 886.477 33.8746 886.393 33.8753L886.374 33.8754L886.337 33.8756H878.163H878.163C878.118 33.8756 878.073 33.8756 878.028 33.8779C877.964 33.8802 877.95 33.8965 877.948 33.9568C877.945 34.0008 877.945 34.0449 877.945 34.089C877.945 34.2283 877.945 34.3674 877.945 34.5064V34.5069V34.5074V34.5079V34.5084V34.5089V34.5094V34.5099V34.5104V34.511V34.5115V34.512V34.5125V34.513V34.5135V34.514V34.5145C877.944 34.7891 877.944 35.0631 877.945 35.337C877.946 35.3676 877.945 35.3942 877.945 35.4171V35.4172C877.944 35.4902 877.944 35.5272 877.962 35.5457C877.981 35.5646 878.02 35.564 878.098 35.5628L878.136 35.5622L878.177 35.562ZM888.103 25.8936C888.084 25.8495 888.07 25.8124 888.056 25.7753C887.877 25.2951 887.7 24.8148 887.523 24.3346L887.523 24.3342L887.523 24.3338L887.523 24.3333L887.523 24.3329L887.523 24.3325L887.522 24.3321L887.522 24.3316L887.522 24.3312L887.522 24.3308L887.522 24.3304L887.522 24.3299L887.521 24.3295L887.521 24.3291L887.521 24.3286L887.521 24.3282L887.521 24.3278L887.492 24.2443C887.483 24.2164 887.499 24.1956 887.528 24.1956C887.568 24.1932 887.608 24.1932 887.649 24.1932H887.649H895.744C895.789 24.1932 895.834 24.1956 895.879 24.1979L895.879 24.1979C895.898 24.1979 895.912 24.2211 895.905 24.2396C895.9 24.2535 895.896 24.2675 895.892 24.2814C895.888 24.2953 895.884 24.3092 895.879 24.3231C895.79 24.5667 895.701 24.8109 895.613 25.055C895.524 25.2991 895.435 25.5433 895.346 25.7869C895.337 25.8147 895.325 25.8425 895.313 25.8681C895.306 25.8797 895.292 25.8889 895.28 25.8936C895.266 25.8982 895.251 25.8982 895.235 25.8982H895.114H888.293C888.278 25.8982 888.262 25.8985 888.247 25.8988C888.201 25.8997 888.155 25.9005 888.103 25.8936ZM889.253 29.0061L889.253 29.0062C889.266 29.0462 889.279 29.0864 889.312 29.1224C889.352 29.1224 889.397 29.1247 889.442 29.127L889.442 29.127H893.987C894.02 29.127 894.056 29.127 894.091 29.1247C894.115 29.1224 894.129 29.1108 894.139 29.0922C894.151 29.0667 894.162 29.0389 894.172 29.011C894.261 28.7675 894.349 28.5233 894.438 28.2792C894.527 28.035 894.616 27.7909 894.705 27.5473C894.714 27.5195 894.724 27.4916 894.731 27.4638C894.736 27.4452 894.719 27.4244 894.698 27.4244C894.648 27.422 894.598 27.4197 894.548 27.4197H888.878H888.758C888.743 27.4197 888.727 27.422 888.713 27.4244C888.701 27.4244 888.684 27.4429 888.687 27.4545C888.694 27.4823 888.701 27.5102 888.71 27.538C888.728 27.5867 888.746 27.6349 888.764 27.683C888.781 27.7311 888.799 27.7793 888.817 27.828C888.888 28.0182 888.958 28.2089 889.029 28.3997C889.099 28.5905 889.17 28.7813 889.241 28.9716L889.245 28.9824L889.248 28.9921L889.253 29.0061ZM876.232 19.4331C876.223 19.4339 876.215 19.4351 876.207 19.4363C876.194 19.4382 876.182 19.44 876.168 19.44C876.142 19.4416 876.115 19.4411 876.088 19.4405L876.062 19.4401L876.048 19.44H871.218C871.169 19.44 871.119 19.4377 871.069 19.4354L871.069 19.4354C871.05 19.4354 871.034 19.4145 871.031 19.396L871.031 19.3898C871.029 19.362 871.027 19.3359 871.027 19.3078V17.8696C871.027 17.8348 871.029 17.8023 871.034 17.7675C871.034 17.7606 871.045 17.7513 871.053 17.7467C871.062 17.742 871.072 17.7397 871.081 17.7397C871.104 17.7397 871.126 17.7391 871.149 17.7385C871.171 17.738 871.194 17.7374 871.216 17.7374H876.374H876.495C876.547 17.7397 876.564 17.7536 876.562 17.8093C876.562 17.8835 876.559 17.9554 876.552 18.0297C876.509 18.4704 876.41 18.8972 876.268 19.3171C876.261 19.3612 876.247 19.3983 876.232 19.4331ZM876.248 27.482L876.231 27.436C876.167 27.4145 876.115 27.4169 876.067 27.4193L876.055 27.4198H871.224C871.208 27.4198 871.191 27.4203 871.174 27.4209H871.174H871.174H871.173H871.173L871.173 27.4209C871.156 27.4215 871.138 27.4221 871.12 27.4221C871.103 27.4221 871.089 27.4244 871.075 27.4267C871.058 27.4291 871.034 27.4499 871.034 27.4662L871.034 27.4664C871.032 27.5104 871.03 27.5544 871.03 27.5984C871.03 27.7444 871.029 27.8906 871.029 28.037C871.029 28.3303 871.028 28.6243 871.03 28.9183C871.03 28.9441 871.029 28.9668 871.029 28.9867C871.028 29.06 871.027 29.096 871.045 29.1134C871.062 29.1303 871.097 29.1296 871.165 29.1281H871.165H871.165H871.165H871.165H871.165C871.188 29.1276 871.214 29.1271 871.245 29.1271H876.347H876.496C876.501 29.1264 876.506 29.1259 876.511 29.1254L876.511 29.1254L876.511 29.1254C876.521 29.1243 876.531 29.1233 876.541 29.1201C876.548 29.1155 876.558 29.1062 876.56 29.0992C876.565 29.076 876.567 29.0505 876.567 29.0273C876.569 28.8789 876.548 28.7327 876.527 28.5889C876.479 28.2549 876.396 27.9278 876.292 27.6054C876.278 27.5645 876.263 27.5237 876.248 27.482ZM846.985 17.7511C846.994 17.7502 847.003 17.7489 847.011 17.7477C847.023 17.7458 847.035 17.7441 847.046 17.7441H847.167H852.01C852.035 17.7441 852.06 17.7447 852.085 17.7453L852.085 17.7453C852.11 17.7459 852.135 17.7464 852.16 17.7464C852.186 17.7464 852.205 17.7673 852.205 17.7952C852.207 17.8207 852.207 17.8439 852.207 17.8694V19.3215C852.207 19.3517 852.205 19.3795 852.2 19.4097C852.198 19.4213 852.183 19.4329 852.172 19.4398C852.162 19.4454 852.15 19.445 852.137 19.4446L852.127 19.4445H852.006H847.162C847.117 19.4445 847.072 19.4445 847.027 19.4421C846.987 19.4398 846.968 19.4329 846.966 19.3772C846.963 19.3331 846.963 19.289 846.963 19.245V19.245V17.939V17.939C846.963 17.8949 846.963 17.8508 846.966 17.8068C846.968 17.7975 846.972 17.7882 846.975 17.7789C846.979 17.7696 846.982 17.7604 846.985 17.7511ZM847.165 22.6712H849.595C850.204 22.6712 850.815 22.6712 851.431 22.6689H852.075C852.111 22.6689 852.144 22.6689 852.179 22.6643C852.194 22.662 852.205 22.6504 852.208 22.6341L852.208 22.6281C852.211 22.6002 852.213 22.5741 852.213 22.546V21.0939C852.213 21.0657 852.211 21.0396 852.208 21.0118L852.208 21.0057C852.208 20.9895 852.187 20.9709 852.168 20.9709L852.168 20.9709C852.118 20.9686 852.068 20.9663 852.018 20.9663H847.173C847.132 20.9663 847.092 20.9663 847.052 20.9686C847.04 20.9686 847.03 20.9708 847.02 20.9729C847.016 20.9739 847.011 20.9748 847.007 20.9755C846.988 20.9779 846.981 20.9918 846.978 21.0057C846.974 21.0359 846.971 21.0637 846.971 21.0939V22.546C846.971 22.5741 846.973 22.6002 846.975 22.6281L846.976 22.6341C846.976 22.6504 846.997 22.6689 847.016 22.6689C847.066 22.6712 847.116 22.6712 847.165 22.6712ZM849.588 25.8982H847.16C847.135 25.8982 847.11 25.8976 847.085 25.897C847.061 25.8965 847.036 25.8959 847.011 25.8959C846.992 25.8959 846.975 25.8773 846.973 25.8565L846.973 25.8504C846.97 25.8226 846.968 25.7964 846.968 25.7683V24.3324C846.968 24.2633 846.968 24.2285 846.986 24.211C847.003 24.1932 847.039 24.1932 847.11 24.1932H847.186H851.996C852.051 24.1932 852.105 24.1956 852.16 24.1979L852.16 24.1979C852.186 24.1979 852.205 24.2188 852.205 24.2466C852.207 24.2814 852.207 24.3139 852.207 24.3487V25.7567C852.207 25.7961 852.203 25.8356 852.198 25.8727C852.198 25.8797 852.186 25.8889 852.179 25.8936C852.169 25.8982 852.16 25.8982 852.15 25.8982C852.126 25.8982 852.101 25.8988 852.076 25.8994C852.051 25.8999 852.026 25.9005 852.001 25.9005C851.196 25.8982 850.391 25.8982 849.588 25.8982ZM881.505 25.8982H883.935C884.74 25.8982 885.543 25.8982 886.358 25.9005C886.383 25.9005 886.407 25.8999 886.432 25.8994C886.457 25.8988 886.482 25.8982 886.507 25.8982C886.533 25.8982 886.554 25.8773 886.557 25.8541L886.557 25.8359L886.558 25.8101L886.559 25.7859L886.559 25.7773L886.559 25.766V24.3278C886.559 24.2976 886.557 24.2698 886.554 24.2396C886.552 24.2234 886.533 24.2025 886.516 24.2002L886.487 24.1984L886.471 24.1974C886.441 24.1953 886.411 24.1932 886.381 24.1932H881.491H881.49C881.45 24.1932 881.41 24.1932 881.37 24.1956C881.344 24.1979 881.32 24.2188 881.32 24.2419C881.32 24.2593 881.319 24.2762 881.319 24.293C881.318 24.3098 881.318 24.3266 881.318 24.344V25.7521C881.318 25.7869 881.318 25.8193 881.32 25.8541C881.32 25.875 881.337 25.8936 881.356 25.8936C881.405 25.8959 881.455 25.8982 881.505 25.8982ZM849.579 29.1248H847.165C847.12 29.1248 847.075 29.1248 847.03 29.1224C846.99 29.1201 846.971 29.1132 846.969 29.0575C846.966 29.0134 846.966 28.9693 846.966 28.9253V27.6216C846.966 27.5775 846.966 27.5334 846.969 27.4894C846.969 27.4755 846.973 27.4615 846.98 27.4476C846.985 27.4407 846.992 27.4314 847.002 27.4291C847.016 27.4244 847.03 27.4198 847.044 27.4198C847.089 27.4175 847.134 27.4175 847.179 27.4175H851.99C852.012 27.4175 852.032 27.4173 852.05 27.4171H852.05C852.132 27.4163 852.172 27.4159 852.191 27.4357C852.209 27.4546 852.209 27.492 852.208 27.5654C852.208 27.5835 852.208 27.6036 852.208 27.6262V28.9299C852.208 28.974 852.208 29.0181 852.205 29.0621C852.203 29.1062 852.186 29.1224 852.139 29.1224H852.004C851.196 29.1248 850.389 29.1248 849.579 29.1248ZM881.505 29.1245H883.92C884.73 29.1245 885.54 29.1245 886.35 29.1222H886.485C886.53 29.1222 886.547 29.1059 886.549 29.0619V29.0178V27.5355C886.549 27.51 886.547 27.4845 886.545 27.4613C886.545 27.445 886.523 27.4219 886.507 27.4219C886.485 27.4211 886.464 27.42 886.444 27.4189C886.404 27.4169 886.365 27.4149 886.327 27.4149H881.542H881.452C881.315 27.4172 881.313 27.4195 881.313 27.5564V28.7V28.9946C881.313 29.0227 881.315 29.0488 881.317 29.0766L881.317 29.0827C881.317 29.1013 881.336 29.1199 881.355 29.1199C881.405 29.1222 881.455 29.1245 881.505 29.1245ZM863.353 17.744H865.767L865.809 17.7438C865.874 17.7433 865.907 17.743 865.924 17.7593C865.94 17.7757 865.94 17.809 865.94 17.8761L865.94 17.9064V19.2843C865.94 19.3237 865.937 19.3632 865.935 19.4003C865.935 19.4189 865.916 19.4351 865.895 19.4374C865.88 19.4397 865.864 19.4397 865.85 19.4397H865.729H860.933C860.907 19.4397 860.884 19.4401 860.865 19.4404C860.797 19.4415 860.763 19.442 860.746 19.4253C860.73 19.4088 860.73 19.3752 860.731 19.3083C860.731 19.2904 860.731 19.2702 860.731 19.2472V17.9273C860.731 17.8786 860.734 17.8299 860.736 17.7812C860.736 17.7626 860.755 17.7464 860.774 17.744C860.788 17.7417 860.805 17.7417 860.819 17.7417H860.954C861.755 17.744 862.553 17.744 863.353 17.744ZM897.025 25.8978H899.424C900.22 25.8978 901.013 25.8978 901.812 25.9025H901.947C901.961 25.9025 901.977 25.9025 901.992 25.9001C902.013 25.8978 902.029 25.8816 902.032 25.863L902.032 25.8569L902.032 25.8568C902.035 25.829 902.037 25.8029 902.037 25.7749V24.3367V24.3365C902.037 24.3064 902.037 24.2786 902.034 24.2485C902.032 24.223 902.011 24.1998 901.987 24.1998L901.98 24.1995C901.926 24.1973 901.873 24.1952 901.821 24.1952H897.051H896.916C896.902 24.1952 896.885 24.1975 896.871 24.1998C896.854 24.2021 896.833 24.2184 896.833 24.2369C896.831 24.274 896.828 24.3135 896.828 24.3529V25.747V25.8352C896.828 25.8816 896.843 25.8955 896.89 25.8978H897.025ZM863.339 29.1246H860.925C860.876 29.1246 860.826 29.1223 860.776 29.12C860.757 29.12 860.738 29.1014 860.738 29.0828L860.738 29.0768C860.736 29.0489 860.734 29.0228 860.734 28.9947V28.7024V27.5588C860.734 27.4219 860.736 27.4196 860.873 27.4173H860.963H865.717C865.756 27.4173 865.794 27.4193 865.834 27.4213L865.862 27.4227L865.897 27.4243C865.913 27.4243 865.935 27.4475 865.935 27.4637L865.935 27.4697C865.937 27.4976 865.939 27.5237 865.939 27.5518V29.004C865.939 29.0341 865.937 29.062 865.932 29.0921C865.93 29.106 865.92 29.12 865.901 29.12C865.861 29.1223 865.821 29.1246 865.783 29.1246H864.627H863.339ZM897.004 29.1245H899.434H901.834C901.883 29.1245 901.933 29.1245 901.983 29.1222C902.007 29.1199 902.028 29.099 902.028 29.0735L902.028 29.047C902.028 29.0246 902.029 29.0021 902.029 28.9796L902.029 28.9784C902.03 28.9465 902.03 28.9146 902.03 28.8833V27.5912C902.03 27.5472 902.028 27.5032 902.026 27.4592L902.026 27.459C902.026 27.445 901.999 27.4195 901.985 27.4195C901.926 27.4172 901.864 27.4149 901.805 27.4149H897.052H896.962C896.894 27.416 896.859 27.4166 896.842 27.4341C896.824 27.4519 896.824 27.4873 896.824 27.5587V28.9969V28.997C896.824 29.0225 896.824 29.0457 896.827 29.0711C896.828 29.0742 896.828 29.0776 896.829 29.0809C896.83 29.0876 896.831 29.0943 896.834 29.099C896.839 29.1059 896.848 29.1175 896.855 29.1175C896.905 29.1222 896.955 29.1245 897.004 29.1245ZM892.945 32.3491L892.933 32.3501L892.933 32.3501C892.91 32.352 892.889 32.3538 892.867 32.3538H890.588C890.569 32.3538 890.548 32.3538 890.529 32.3514C890.508 32.3491 890.493 32.3352 890.484 32.319C890.467 32.2842 890.453 32.247 890.439 32.2099C890.393 32.0871 890.348 31.964 890.302 31.8406L890.3 31.8356L890.3 31.8347C890.227 31.6385 890.154 31.4417 890.081 31.2449C890.053 31.1696 890.025 31.0936 889.997 31.0176C889.969 30.9416 889.941 30.8657 889.913 30.7903C889.91 30.781 889.907 30.7718 889.903 30.7625C889.901 30.7555 889.899 30.7486 889.896 30.7416C889.891 30.7253 889.886 30.7091 889.88 30.6929C889.875 30.6813 889.889 30.6604 889.901 30.6581C889.915 30.6557 889.93 30.6534 889.946 30.6534H890.05H893.364C893.414 30.6534 893.463 30.6557 893.513 30.6581C893.539 30.6581 893.556 30.6836 893.546 30.7114C893.542 30.7253 893.537 30.7393 893.533 30.7532C893.524 30.781 893.515 30.8088 893.504 30.8367C893.442 31.0049 893.381 31.1725 893.32 31.34C893.259 31.5076 893.198 31.6752 893.137 31.8434C893.11 31.9142 893.084 31.9856 893.058 32.0569C893.032 32.1282 893.006 32.1995 892.98 32.2702C892.974 32.2921 892.963 32.3139 892.951 32.3372C892.949 32.3411 892.947 32.3451 892.945 32.3491ZM892.367 33.9658C892.374 33.9426 892.381 33.9194 892.371 33.8939C892.346 33.8784 892.317 33.879 892.286 33.8797C892.28 33.8798 892.274 33.8799 892.267 33.8799H891.173C891.157 33.8799 891.14 33.8821 891.123 33.8842C891.115 33.8852 891.107 33.8862 891.1 33.8869C891.088 33.8892 891.074 33.9078 891.076 33.9194C891.082 33.9356 891.087 33.9518 891.092 33.9681C891.098 33.9843 891.103 34.0006 891.109 34.0168C891.284 34.4856 891.458 34.9567 891.633 35.4279L891.635 35.4341C891.647 35.4666 891.659 35.4968 891.673 35.5292C891.675 35.5362 891.685 35.5432 891.692 35.5501C891.72 35.571 891.782 35.5571 891.796 35.5246C891.808 35.5002 891.817 35.4746 891.826 35.4487C891.83 35.4377 891.834 35.4266 891.839 35.4156C891.894 35.2635 891.949 35.1115 892.004 34.9594C892.059 34.8076 892.114 34.6558 892.17 34.5039C892.203 34.4146 892.236 34.3247 892.268 34.2349C892.301 34.145 892.334 34.0551 892.367 33.9658Z" fill="white"/>
<path d="M961.5 12.3854C961.5 12.3854 965.067 26.9986 965.636 29.3705C966.3 32.139 967.497 33.1579 970.948 32.4708L973.175 23.4107C973.739 21.1602 974.118 19.5558 974.481 17.2665H974.544C974.799 19.5783 975.162 21.1669 975.627 23.4186C975.627 23.4186 976.533 27.5316 976.997 29.6919C977.463 31.8514 978.758 33.2125 982.138 32.4715L987.444 12.3869H983.16L981.349 21.0704C980.862 23.5981 980.42 25.5731 980.079 27.8855H980.019C979.709 25.5962 979.315 23.6994 978.82 21.2367L976.934 12.3869H972.471L970.453 21.0137C969.882 23.6352 969.347 25.7521 969.007 27.986H968.946C968.597 25.8822 968.134 23.2217 967.632 20.6841C967.632 20.6841 966.433 14.5138 966.012 12.3869L961.501 12.3875L961.5 12.3854ZM1002.34 12.3854V32.47H1006.42V28.2051V12.3844H1002.34V12.3854ZM1059.78 12.3854V27.2021C1059.78 29.245 1060.17 30.6762 1060.99 31.5506C1061.71 32.3154 1062.89 32.8105 1064.31 32.8105C1065.52 32.8105 1066.7 32.5818 1067.26 32.3736L1067.21 29.1862C1066.79 29.2886 1066.31 29.3706 1065.66 29.3706C1064.27 29.3706 1063.8 28.4807 1063.8 26.6465V20.9777H1067.36V17.1349H1063.8V12.3854H1059.78L1059.78 12.3854ZM993.224 17.0414C990.689 17.0414 988.677 17.7531 987.58 18.3869L988.383 21.1354C989.387 20.5026 990.985 19.9787 992.498 19.9787C995.004 19.9723 995.413 21.3955 995.413 22.3082V22.5241C989.954 22.5159 986.505 24.405 986.505 28.2559C986.505 30.6071 988.261 32.8105 991.313 32.8105C993.192 32.8105 994.764 32.0611 995.706 30.8603H995.798C995.798 30.8603 996.422 33.4681 999.858 32.4708C999.677 31.3855 999.619 30.2282 999.619 28.8345V23.469C999.619 20.0493 998.159 17.0415 993.224 17.0415L993.224 17.0414ZM1017.62 17.0414C1015.07 17.0414 1013.92 18.3348 1013.23 19.4322H1013.17V17.382H1009.27V32.471H1013.37V23.6219C1013.37 23.2071 1013.42 22.7684 1013.57 22.3868C1013.91 21.4958 1014.74 20.4537 1016.06 20.4537C1017.71 20.4537 1018.49 21.8524 1018.49 23.8711V32.4708H1022.58V23.5147C1022.58 23.1187 1022.64 22.6417 1022.75 22.2916C1023.09 21.2781 1023.98 20.4535 1025.21 20.4535C1026.89 20.4535 1027.7 21.8279 1027.7 24.2033V32.4708H1031.8V23.5839C1031.8 18.8971 1029.42 17.0415 1026.73 17.0415C1025.54 17.0415 1024.6 17.3398 1023.75 17.861C1023.04 18.2989 1022.4 18.9211 1021.84 19.7404H1021.78C1021.13 18.1142 1019.61 17.0415 1017.62 17.0415L1017.62 17.0414ZM1040.14 17.0414C1037.6 17.0414 1035.59 17.7531 1034.49 18.3869L1035.3 21.1354C1036.3 20.5026 1037.9 19.9787 1039.41 19.9787C1041.92 19.9723 1042.33 21.3955 1042.33 22.3082V22.5241C1036.87 22.5159 1033.42 24.405 1033.42 28.2559C1033.42 30.6071 1035.18 32.8105 1038.23 32.8105C1040.11 32.8105 1041.68 32.0611 1042.62 30.8603H1042.71C1042.71 30.8603 1043.34 33.4681 1046.77 32.4708C1046.59 31.3855 1046.53 30.2282 1046.53 28.8345V23.469C1046.53 20.0493 1045.07 17.0415 1040.14 17.0415L1040.14 17.0414ZM1057.17 17.0414C1055.6 17.0414 1053.81 18.0549 1053.06 20.2276H1052.94V17.3818H1049.25V32.4708H1053.46V24.7443C1053.46 24.3274 1053.49 23.964 1053.55 23.6308C1053.86 22.0123 1055.1 20.9776 1056.88 20.9776C1057.37 20.9776 1057.72 21.0304 1058.09 21.085V17.1347C1057.78 17.0708 1057.56 17.0413 1057.17 17.0413L1057.17 17.0414ZM995.545 25.1979V27.0803C995.545 27.3587 995.521 27.646 995.444 27.8972C995.128 28.9426 994.045 29.8261 992.691 29.8261C991.562 29.8261 990.666 29.1855 990.666 27.8303C990.666 25.7574 992.948 25.1844 995.545 25.1979H995.545ZM1042.46 25.1979V27.0803C1042.46 27.3587 1042.43 27.646 1042.36 27.8972C1042.04 28.9426 1040.96 29.8261 1039.61 29.8261C1038.48 29.8261 1037.58 29.1855 1037.58 27.8303C1037.58 25.7574 1039.86 25.1844 1042.46 25.1979H1042.46Z" fill="white"/>
<path d="M1089.41 5.12195C1088.09 5.12195 1087.04 5.85726 1087.04 6.75243L1087.84 15.8073C1087.93 16.3529 1088.6 16.7737 1089.41 16.7737C1090.22 16.7726 1090.88 16.3522 1090.97 15.8073L1091.78 6.75243C1091.78 5.85734 1090.73 5.12203 1089.41 5.12203L1089.41 5.12195ZM1076.38 12.3853C1075.69 12.4016 1074.92 12.9191 1074.42 13.7756C1073.76 14.916 1073.88 16.1904 1074.65 16.6375L1082.89 20.4752C1083.41 20.6667 1084.11 20.3011 1084.51 19.6031C1084.51 19.603 1084.51 19.6028 1084.51 19.6027C1084.92 18.9012 1084.89 18.1125 1084.46 17.7627L1077.02 12.5424C1076.82 12.4304 1076.61 12.3801 1076.38 12.3855L1076.38 12.3853ZM1102.44 12.3853C1102.21 12.3799 1101.99 12.4303 1101.8 12.5423L1094.36 17.7626C1093.93 18.1124 1093.9 18.9011 1094.31 19.6026L1094.31 19.6029C1094.71 20.301 1095.41 20.6665 1095.92 20.4751L1104.17 16.6376C1104.94 16.1905 1105.06 14.9161 1104.4 13.7756C1103.9 12.9192 1103.13 12.4017 1102.44 12.3854L1102.44 12.3853ZM1083.2 24.332C1083.09 24.3305 1082.99 24.347 1082.89 24.3834L1074.65 28.2165C1073.88 28.6655 1073.76 29.9404 1074.42 31.0821C1075.08 32.2202 1076.24 32.7613 1077.02 32.315L1084.46 27.0987C1084.89 26.7446 1084.92 25.9561 1084.51 25.2554L1084.52 25.2569C1084.19 24.6861 1083.66 24.3382 1083.2 24.3319L1083.2 24.332ZM1095.62 24.332C1095.16 24.3383 1094.63 24.6862 1094.3 25.257L1094.31 25.2555C1093.9 25.9563 1093.93 26.7447 1094.36 27.0989L1101.8 32.3151C1102.58 32.7615 1103.74 32.2204 1104.4 31.0822C1105.06 29.9405 1104.94 28.6656 1104.17 28.2166L1095.93 24.3835C1095.83 24.3471 1095.73 24.3307 1095.62 24.3321L1095.62 24.332ZM1089.41 28.0847C1088.6 28.0856 1087.93 28.5047 1087.85 29.0488L1087.05 38.1033C1087.05 39 1088.09 39.7338 1089.41 39.7338C1090.73 39.7338 1091.78 38.9999 1091.78 38.1033L1090.98 29.0488C1090.89 28.5047 1090.22 28.0857 1089.41 28.0847H1089.41H1089.41Z" fill="white"/>
</g>
</svg>
