<svg width="339" height="68" viewBox="0 0 339 68" fill="none" xmlns="http://www.w3.org/2000/svg">
<g opacity="0.8">
<path d="M46.2739 8.66063L44.5672 8.66506V17.4226H52.3943C53.2505 17.0593 53.709 16.4313 53.8862 15.6981H46.2695L46.2739 8.66063ZM59.0463 10.4106H65.5754C66.4825 10.2312 67.1581 9.43039 67.3475 8.6562H57.2731C57.4614 9.43039 58.147 10.2312 59.0463 10.4106ZM37.9019 10.3862C38.809 10.1226 39.5732 9.43039 39.7593 8.66285H30.1788V13.8374H38.0204V15.6538L31.8701 15.6593C30.9054 15.9273 30.0902 16.5742 29.6815 17.4292L30.1788 17.4203H39.7061V12.1173H31.8701V10.3862H37.9019ZM57.5367 17.4203H59.2346V13.895H65.4159V17.4203H67.1127V12.1328L57.5367 12.124V17.4203ZM16.9834 10.405H23.5113C24.4195 10.2245 25.094 9.42374 25.2834 8.64956H15.2101C15.3984 9.42374 16.0829 10.2245 16.9834 10.405ZM0 8.66949C0.196038 9.43593 0.859468 10.2168 1.76878 10.4139H4.51664L4.65619 10.4693V17.4026H6.37291V10.4693L6.52797 10.4139H9.27915C10.1973 10.1769 10.8463 9.43593 11.0402 8.66949V8.65288H0V8.66949ZM16.9834 17.4214H23.5113C24.4195 17.2398 25.094 16.4413 25.2834 15.666H15.2101C15.3984 16.4413 16.0829 17.2398 16.9834 17.4214ZM16.9834 13.8662H23.5113C24.4195 13.6867 25.094 12.886 25.2834 12.1118H15.2101C15.3984 12.886 16.0829 13.6867 16.9834 13.8662Z" fill="white"/>
<path d="M127.329 7.45402L122.689 14.3254C122.206 15.0526 121.36 15.4921 120.473 15.4921C119.03 15.4921 117.836 14.3065 117.836 12.8758C117.836 11.4241 119.03 10.2407 120.483 10.2407C120.628 10.2222 120.821 10.202 120.956 10.202C121.957 10.202 122.978 10.6223 123.671 11.3293L125.057 9.22895C123.979 8.12236 122.38 7.41406 120.782 7.41406C117.797 7.41406 115.063 9.87709 115.063 12.8556C115.063 15.8166 117.508 18.2406 120.494 18.2406C121.938 18.2406 123.382 17.6298 124.383 16.6171H127.58L127.599 18.2406H130.373V7.45402H127.329H127.329ZM126.059 14.2494L127.58 12.132L127.599 14.2494H126.06H126.059Z" fill="white"/>
<path d="M135.687 18.2402H132.914V9.97242H130.757V7.47164L137.843 7.45361V9.97241H135.687V18.2402V18.2402Z" fill="white"/>
<path d="M147.087 7.45379L144.313 7.45449L144.294 11.4817H141.02L140.999 7.45361H138.229V18.2402H141.02V13.982H144.313V18.2402H147.086V7.45361L147.087 7.45379Z" fill="white"/>
<path d="M169.307 7.45361V12.4732L165.495 7.45361L162.971 7.47118L162.952 11.4053C162.317 9.11393 160.141 7.45361 157.714 7.45361C154.73 7.45361 152.284 9.87668 152.284 12.8552C152.284 13.8116 152.573 14.783 153.034 15.6243H150.287V7.45361H147.461V18.2402H153.921V16.7309C154.942 17.6671 156.328 18.2402 157.714 18.2402C160.141 18.2402 162.279 16.6167 162.952 14.325L162.971 18.2402H165.764V12.9909L169.556 18.2402H172.078L172.082 7.45361H169.308H169.307ZM157.714 15.6054C156.193 15.6054 154.942 14.3838 154.942 12.8552C154.942 11.3477 156.193 10.1072 157.714 10.1072C159.256 10.1072 160.507 11.3477 160.507 12.8552C160.507 14.3838 159.256 15.6054 157.714 15.6054Z" fill="white"/>
<path d="M111.709 15.626V14.1163H114.685L114.68 11.4829H111.709V10.1089H114.99L114.984 7.45532L108.668 7.47289V11.1773C108.013 9.15384 106.126 7.6639 103.969 7.47289L99.1743 7.45532V18.2414H103.989C106.126 18.0513 108.013 16.5622 108.668 14.5572V18.2414H114.99L114.984 15.626H111.71H111.709ZM105.606 14.4992C105.433 15.2256 104.74 15.7398 103.989 15.7591H102.217V9.97368H103.989C104.74 9.97368 105.433 10.5107 105.606 11.2542C105.78 11.7508 105.876 12.3234 105.876 12.8569C105.876 13.412 105.78 13.9837 105.606 14.4992Z" fill="white"/>
<path d="M213.251 18.5294C212.282 18.4773 211.559 18.0786 211.136 17.3631C210.852 16.8829 210.766 16.2512 210.895 15.6058C211.039 14.8907 211.528 14.2463 212.277 13.7828C212.708 13.5162 213.076 13.3508 213.827 13.0869C214.016 13.0206 214.179 12.9595 214.189 12.951C214.204 12.9391 214.206 12.8968 214.199 12.7595C214.177 12.3688 214.242 11.7602 214.353 11.321C214.538 10.5818 214.895 9.98553 215.37 9.62384C215.71 9.36397 216.156 9.16858 216.6 9.08479C216.845 9.03864 217.256 9.03878 217.487 9.08522C218.475 9.28431 219.03 10.0465 218.812 10.9052C218.766 11.0862 218.62 11.383 218.497 11.5472C218.182 11.9678 217.707 12.3418 217.037 12.6977C216.953 12.7426 216.677 12.878 216.425 12.999C216.172 13.1199 215.958 13.2268 215.948 13.2367C215.934 13.2508 215.937 13.2918 215.964 13.4299C216.09 14.068 216.301 14.6072 216.662 15.2102C216.806 15.4502 217.004 15.7528 217.027 15.7669C217.059 15.787 217.193 15.5713 217.28 15.3579C217.387 15.0937 217.449 14.7444 217.419 14.5709C217.397 14.4466 217.329 14.3154 217.242 14.2306C217.203 14.1914 217.17 14.1544 217.169 14.1483C217.169 14.1423 217.506 14.1389 217.917 14.141L218.665 14.1449L218.661 14.2397C218.655 14.3694 218.607 14.6459 218.556 14.8427C218.413 15.3961 218.143 15.8694 217.678 16.3863C217.623 16.4472 217.578 16.507 217.578 16.5192C217.578 16.5314 217.655 16.6162 217.749 16.7076C218.338 17.2785 219.381 17.9368 220.23 18.2735C220.313 18.3063 220.38 18.3397 220.38 18.3477C220.38 18.3573 219.889 18.3636 218.947 18.3661L217.514 18.3698L217.433 18.3239C217.267 18.2304 216.898 17.9326 216.544 17.6054C216.469 17.5361 216.398 17.4794 216.386 17.4794C216.374 17.4794 216.291 17.5279 216.201 17.5871C215.741 17.8904 215.192 18.1629 214.727 18.318C214.198 18.4945 213.761 18.557 213.251 18.5296V18.5294ZM214.457 17.2883C214.671 17.2501 214.935 17.1723 215.177 17.0756C215.42 16.9784 215.722 16.8299 215.733 16.8018C215.737 16.7907 215.682 16.6974 215.609 16.5943C215.276 16.1195 214.92 15.4516 214.681 14.8526C214.593 14.6318 214.428 14.1427 214.396 14.0087C214.386 13.9659 214.368 13.9272 214.356 13.9225C214.323 13.9097 214.049 14.0555 213.813 14.2123C212.972 14.7694 212.57 15.4495 212.659 16.1601C212.699 16.4759 212.799 16.7061 212.981 16.9005C213.317 17.2598 213.843 17.3979 214.457 17.2883ZM215.883 12.3471C216.194 12.165 216.688 11.723 216.964 11.3793C217.317 10.9395 217.504 10.5291 217.505 10.1963C217.505 10.006 217.478 9.92078 217.39 9.83273C217.302 9.74526 217.203 9.70905 217.052 9.70891C216.604 9.70891 216.12 10.2406 215.909 10.9639C215.802 11.3286 215.776 11.5249 215.776 11.9703C215.775 12.3106 215.781 12.3863 215.806 12.3863C215.812 12.3863 215.846 12.3687 215.883 12.3471ZM223.291 18.5209C222.553 18.4466 222.066 18.3363 221.518 18.119C220.771 17.8231 220.305 17.4566 219.911 16.856C219.793 16.6763 219.604 16.2988 219.528 16.0902C219.186 15.1608 219.111 13.9906 219.315 12.77C219.521 11.5345 219.99 10.3438 220.637 9.41311C221.058 8.80959 221.682 8.17397 222.328 7.69399C223.393 6.9016 224.619 6.41452 225.981 6.24327C226.395 6.19129 226.626 6.17794 227.114 6.17823C227.852 6.17865 228.415 6.23489 229.157 6.38243C229.631 6.47672 230.386 6.68036 230.4 6.71799C230.408 6.73702 229.929 8.2694 229.91 8.28999C229.904 8.29638 229.83 8.24739 229.747 8.18064C229.075 7.64528 228.379 7.31938 227.676 7.21103C227.451 7.17638 227.028 7.17596 226.808 7.21018C225.821 7.36298 224.906 7.99334 224.094 9.08011C223.83 9.43313 223.54 9.90629 223.314 10.3505C223.007 10.9526 222.797 11.4848 222.584 12.1966C221.905 14.461 221.871 16.0431 222.482 16.8995C222.733 17.2524 223.101 17.4772 223.567 17.5631C223.835 17.6125 224.485 17.5825 224.55 17.5179C224.56 17.5077 224.878 16.5147 225.255 15.3112C225.875 13.3343 225.942 13.1114 225.949 12.9993C225.959 12.8488 225.931 12.7143 225.863 12.5848C225.802 12.4671 225.639 12.3073 225.505 12.233C225.447 12.201 225.4 12.1697 225.4 12.1638C225.4 12.1578 226.44 12.1528 227.713 12.1528C228.985 12.1528 230.026 12.1578 230.025 12.1638C230.025 12.1697 229.969 12.2005 229.9 12.2319C229.54 12.3966 229.279 12.6434 229.124 12.9664C229.09 13.0362 228.799 13.9405 228.362 15.333L227.654 17.5867L227.45 17.6846C226.617 18.0844 225.598 18.3722 224.582 18.4951C224.395 18.5178 223.447 18.5367 223.291 18.5209H223.291ZM202 18.3562C201.995 18.3488 202.026 18.3228 202.068 18.2985C202.32 18.1538 202.602 17.8536 202.721 17.6034C202.756 17.531 205.929 7.42589 205.999 7.16474C206.011 7.11901 206.022 7.02245 206.022 6.95031C206.023 6.72992 205.954 6.57101 205.793 6.4185C205.749 6.37689 205.713 6.3367 205.713 6.32918C205.713 6.30916 211.253 6.31086 211.508 6.33102C212.058 6.37462 212.608 6.52089 213.03 6.73503C213.749 7.10069 214.179 7.65565 214.312 8.3874C214.348 8.59104 214.356 9.04404 214.325 9.26329C214.202 10.1571 213.797 11.1051 213.246 11.791C212.352 12.902 210.892 13.6125 209.099 13.8079C208.531 13.8698 207.814 13.8854 207.307 13.8468C207.161 13.8356 207.038 13.8295 207.034 13.8332C207.016 13.8513 205.872 17.5215 205.859 17.6034C205.819 17.856 205.949 18.14 206.173 18.2889C206.217 18.3183 206.25 18.3485 206.245 18.3559C206.234 18.3742 202.011 18.3744 202 18.356L202 18.3562ZM208.289 12.905C208.705 12.8312 209.073 12.677 209.427 12.4275C209.6 12.3063 209.954 11.9529 210.1 11.7562C210.465 11.2644 210.733 10.6842 210.95 9.91993C211.088 9.43285 211.147 9.06179 211.147 8.67937C211.147 8.38456 211.12 8.20848 211.046 8.01095C210.936 7.71785 210.712 7.48624 210.427 7.37121C210.183 7.27238 209.974 7.24639 209.472 7.25221L209.093 7.25647L208.213 10.0585C207.729 11.5997 207.336 12.8681 207.339 12.8772C207.343 12.8863 207.403 12.9016 207.474 12.9113C207.545 12.9209 207.613 12.9311 207.625 12.9341C207.68 12.9476 208.171 12.9262 208.289 12.9052V12.905Z" fill="white"/>
<path fill-rule="evenodd" clip-rule="evenodd" d="M304.825 12.6079C304.825 12.6079 304.092 12.1549 303.639 11.9797C303.639 11.9797 302.237 11.3298 301.959 11.0206C301.959 11.0206 301.412 10.5056 301.732 9.90741C301.732 9.90741 301.866 9.51599 302.444 9.51599C302.444 9.51599 303.196 9.55734 303.196 10.1753V11.0469H305.89L305.885 9.76315C305.885 9.76315 306.092 7.66084 302.712 7.56827C302.712 7.56827 300.052 7.39346 299.29 8.82571C299.29 8.82571 298.99 9.14524 298.99 10.258V11.0619C298.99 11.0619 298.96 11.9895 299.434 12.5872C299.434 12.5872 299.701 12.9791 300.361 13.4114C300.361 13.4114 301.701 14.1327 302.505 14.5458C302.505 14.5458 303.316 15.0091 303.21 15.7463C303.21 15.7463 303.143 16.5034 302.36 16.4723C302.36 16.4723 301.643 16.4404 301.643 15.6979V14.8268H298.772V16.0922C298.772 16.0922 298.692 18.5122 302.381 18.5122C302.381 18.5122 305.906 18.5836 306.07 16.0288V14.9983C306.07 14.9983 306.195 13.4326 304.825 12.6079ZM291.03 7.86947L290.128 13.5233H289.917L289.055 7.92022H284.555L284.329 18.1588H286.994L287.026 10.4445H287.235L288.648 18.1574H291.451L292.847 10.4473H293.032L293.097 18.1588H295.775L295.487 7.86947H291.03ZM275.168 7.91223L273.395 18.1471H276.263L277.314 10.2114H277.549L278.599 18.1471H281.467L279.695 7.91223H275.168ZM335.362 12.4669V13.9767H336.098V15.5974C336.098 16.3896 335.421 16.4042 335.421 16.4042C334.598 16.4042 334.629 15.6514 334.629 15.6514V10.0456C334.629 9.46806 335.359 9.43704 335.359 9.43704C336.061 9.43704 336.065 10.1259 336.065 10.1259V10.9783H338.766C338.855 9.3144 338.523 8.9117 338.523 8.9117C337.853 7.40709 335.318 7.48932 335.318 7.48932C331.423 7.48932 331.855 10.4779 331.855 10.4779V15.8981C331.939 18.7011 335.777 18.4163 335.842 18.414C337.549 18.2251 338.065 17.6823 338.065 17.6823C338.539 17.3299 338.661 16.8417 338.661 16.8417C338.797 16.5574 338.831 15.6514 338.831 15.6514V12.4669H335.362ZM326.409 14.1327H326.292L323.551 7.87229H320.272V18.1597H322.941L322.781 11.9002H322.9L325.74 18.1597H328.92V7.87135H326.217L326.409 14.1327ZM313.756 15.5965C313.756 15.5965 313.795 16.4409 313.012 16.4409C313.012 16.4409 312.189 16.485 312.189 15.6176L312.18 7.8784H309.253V15.556C309.253 15.556 308.953 18.4619 313.053 18.4619C313.053 18.4619 316.617 18.5042 316.617 15.6895V7.87887H313.756V15.5965ZM269.587 12.6079C269.587 12.6079 268.855 12.1549 268.402 11.9801C268.402 11.9801 267 11.3307 266.722 11.0211C266.722 11.0211 266.176 10.5051 266.496 9.90835C266.496 9.90835 266.63 9.51693 267.207 9.51693C267.207 9.51693 267.959 9.55781 267.959 10.1757V11.0474H270.654L270.649 9.76315C270.649 9.76315 270.855 7.66084 267.475 7.56874C267.475 7.56874 267.221 7.55229 266.847 7.57108C266.847 7.57108 264.8 7.68104 264.068 8.80409C264.063 8.81255 264.057 8.81866 264.053 8.82618C264.053 8.82618 263.754 9.14524 263.754 10.2584V11.0624C263.754 11.0624 263.723 11.99 264.197 12.5877C264.197 12.5877 264.465 12.9796 265.125 13.4119C265.125 13.4119 266.464 14.1332 267.268 14.5462C267.268 14.5462 268.081 15.0086 267.973 15.7468C267.973 15.7468 267.907 16.5038 267.123 16.4728C267.123 16.4728 266.407 16.4409 266.407 15.6984V14.8268H263.535V16.0931C263.535 16.0931 263.455 18.5131 267.144 18.5131C267.144 18.5131 270.668 18.5845 270.834 16.0297V15.0002C270.834 14.9992 270.957 13.4326 269.587 12.6079Z" fill="white"/>
<path fill-rule="evenodd" clip-rule="evenodd" d="M81.6738 50.8797C82.3691 50.5008 83.064 50.311 83.9488 50.311C86.0979 50.311 87.7411 52.2075 87.7411 54.7986C87.7411 58.0854 85.7186 60.1713 82.3687 60.1713C81.1675 60.1713 79.9663 59.9815 78.8287 59.7286C78.8922 58.4011 78.956 50.311 78.8287 48.7941C78.7035 48.0353 78.5129 47.7196 77.9446 47.5933L77.5023 47.5301V47.1509L81.7373 46.3928C81.6738 47.0246 81.6738 48.8573 81.6738 50.8797ZM81.7366 59.4129C81.9256 59.4756 82.2421 59.4756 82.495 59.4756C83.8225 59.4756 84.7707 57.5167 84.7711 54.9877C84.7711 52.9656 84.0127 51.3224 82.6213 51.3224C82.3049 51.3224 82.0523 51.3856 81.6731 51.5122C81.6103 54.7986 81.6731 58.5281 81.7366 59.4129ZM50.4497 46.6454H61.574L61.6375 50.3745L61.0053 50.5643C60.3735 48.6678 59.4888 47.5936 57.7817 47.5936H55.5698C55.5063 48.7945 55.4432 50.8169 55.4432 52.966L56.9597 52.9025C57.908 52.9025 58.3496 52.1444 58.5398 51.0698H59.1088V55.556H58.5398C58.35 54.4818 57.908 53.7233 56.9597 53.7233L55.4428 53.6602C55.4428 55.303 55.506 56.6305 55.5695 57.4525C55.6958 58.6537 56.0118 59.2223 56.8334 59.2851L57.5919 59.4121V59.9176H50.4497V59.4121L51.0819 59.2851C51.9035 59.2227 52.2192 58.6537 52.3455 57.4525C52.4721 55.4939 52.5356 51.3852 52.3455 49.1098C52.2196 47.909 51.9031 47.4035 51.0819 47.2772L50.4497 47.2141V46.6454ZM69.9179 55.1781C69.9179 52.3341 68.3378 50.185 65.1774 50.185C62.0169 50.185 60.2474 52.4604 60.2474 55.1781C60.2474 58.0225 61.8275 60.172 64.9876 60.172C68.148 60.172 69.9179 57.8959 69.9179 55.1781ZM63.2177 55.1781C63.2177 52.7133 63.5969 50.8172 64.9876 50.8172C66.3154 50.8172 66.9468 52.7765 66.9468 55.1781C66.9468 57.6429 66.5669 59.5391 65.1142 59.5391C63.8499 59.5391 63.2177 57.5798 63.2177 55.1781ZM93.4297 50.185C90.206 50.185 88.5628 52.6502 88.5628 55.2416C88.5628 58.1492 90.5853 60.1716 93.4297 60.172C95.1992 60.172 96.5894 59.2865 97.2216 58.4017L96.9694 58.086C96.3368 58.5288 95.8313 58.781 94.8199 58.781C92.5442 58.781 91.4065 57.0743 91.47 54.7357H97.3482C97.3482 52.1447 96.0835 50.185 93.4297 50.185ZM94.4407 53.9773L91.47 54.0408C91.5328 52.5867 92.1025 50.8172 93.1767 50.8172C94.2509 50.8172 94.4407 52.7133 94.4407 53.9773ZM101.964 50.185C103.101 50.185 104.112 50.3744 104.871 50.6909L104.935 53.1557L104.493 53.282C103.924 51.5753 103.165 50.88 102.028 50.88C101.27 50.88 100.7 51.449 100.7 52.2706C100.7 53.0925 101.331 53.5349 103.102 54.2299C104.745 54.8624 105.44 55.6205 105.44 56.948C105.44 58.9069 103.86 60.1716 101.395 60.1716C100.194 60.1716 98.8035 59.9183 98.045 59.6026L97.9815 56.8217L98.4242 56.6947C99.1192 58.5912 100.005 59.2861 101.205 59.2861C102.217 59.2861 102.786 58.5912 102.786 57.8327C102.786 57.0743 102.343 56.6315 100.763 56.0632C99.2444 55.5573 98.1709 54.8624 98.1709 53.2188C98.1709 51.5753 99.6254 50.185 101.964 50.185ZM74.1525 52.3976C75.1636 50.1219 77.0601 49.8065 78.1343 50.4379L77.1229 53.0298C75.8589 52.2082 74.4683 52.587 74.1525 53.0298C74.089 54.5467 74.089 56.9483 74.2153 58.1495C74.2788 58.9073 74.4686 59.2865 75.1004 59.35L75.8589 59.4135V59.919H69.981V59.4135L70.4234 59.35C70.9928 59.2865 71.245 58.9073 71.3085 58.1495C71.3717 56.8224 71.4348 54.1674 71.3085 52.6505C71.245 51.8286 70.9928 51.5129 70.4234 51.4493L69.981 51.3862V51.007L74.2153 50.1854L74.1525 52.3976Z" fill="white"/>
<path fill-rule="evenodd" clip-rule="evenodd" d="M148.117 47.8403C148.118 47.8444 148.119 47.8484 148.121 47.8524L148.121 47.8524C148.123 47.8584 148.125 47.8645 148.126 47.8705C148.127 47.8893 148.127 47.9069 148.127 47.9258V48.6721L148.127 48.683C148.127 48.7241 148.127 48.7441 148.117 48.7539C148.108 48.7633 148.089 48.7634 148.053 48.7637L148.033 48.7639H147.639H141.637C141.617 48.7639 141.6 48.7642 141.585 48.7645C141.541 48.7654 141.52 48.7658 141.51 48.7554C141.5 48.7455 141.501 48.7257 141.501 48.6871C141.502 48.6724 141.502 48.655 141.502 48.6344V47.8403H148.117ZM170.74 53.5518L170.734 53.5526C170.732 53.5529 170.73 53.5532 170.728 53.5535C170.726 53.554 170.724 53.5546 170.723 53.5555C170.717 53.5669 170.71 53.5782 170.705 53.5907C170.679 53.6598 170.654 53.7289 170.628 53.7983L170.628 53.799L170.628 53.7995L170.628 53.7998L170.578 53.935C170.57 53.9576 170.561 53.979 170.551 54.0016L170.541 54.0028L170.53 54.0045C170.526 54.0053 170.521 54.0061 170.517 54.0066C170.501 54.0075 170.484 54.0072 170.468 54.0069H170.468L170.443 54.0066H165.409C165.401 54.0066 165.394 54.0068 165.386 54.007C165.358 54.0076 165.329 54.0083 165.3 54.0003C165.29 53.979 165.281 53.9564 165.274 53.935C165.231 53.8232 165.189 53.7114 165.148 53.5995C165.144 53.5901 165.14 53.5811 165.136 53.572L165.13 53.5608L165.128 53.5555C165.127 53.5543 165.124 53.553 165.122 53.553C165.116 53.5518 165.111 53.5555 165.111 53.5618L165.111 53.5652C165.11 53.5828 165.109 53.5994 165.109 53.6171V53.9111C165.109 53.9325 165.109 53.9539 165.107 53.9752C165.107 53.9941 165.097 54.0054 165.079 54.0066C165.074 54.0066 165.068 54.0069 165.063 54.0073C165.057 54.0076 165.052 54.0079 165.046 54.0079H164.989H162.356C162.327 54.0079 162.297 54.0079 162.266 54.0066C162.247 54.0066 162.237 53.9953 162.237 53.9752C162.237 53.9656 162.237 53.956 162.236 53.9466C162.236 53.9375 162.236 53.9286 162.236 53.9199V53.1723C162.236 53.1616 162.236 53.151 162.236 53.1403L162.236 53.1401C162.237 53.1295 162.237 53.1189 162.237 53.1082C162.237 53.0982 162.247 53.0869 162.256 53.0869C162.267 53.0856 162.279 53.0844 162.289 53.0844H162.363H167.528C167.549 53.0844 167.566 53.084 167.58 53.0837H167.58C167.618 53.0828 167.636 53.0824 167.648 53.091C167.658 53.0986 167.663 53.1133 167.672 53.1412L167.672 53.1412C167.677 53.1557 167.683 53.1737 167.692 53.1962C167.743 53.3303 167.793 53.4651 167.843 53.6001L167.906 53.7717L167.913 53.7896C167.918 53.8036 167.923 53.8175 167.93 53.8307C167.931 53.834 167.936 53.8362 167.942 53.8388C167.945 53.8401 167.949 53.8416 167.952 53.8433C167.977 53.7836 167.998 53.724 168.019 53.6648C168.027 53.6417 168.036 53.6187 168.044 53.5958L168.091 53.4688L168.138 53.3419L168.169 53.2552L168.169 53.2546C168.189 53.2013 168.208 53.1475 168.228 53.0932L168.235 53.0917L168.243 53.0898C168.252 53.0877 168.26 53.0856 168.269 53.0856C168.293 53.0844 168.318 53.0844 168.343 53.0844H173.476L173.509 53.0842C173.553 53.0837 173.575 53.0835 173.586 53.0944C173.596 53.1048 173.596 53.1253 173.595 53.1654V53.1654L173.595 53.1987V53.9136C173.595 53.9375 173.594 53.9614 173.593 53.9853C173.593 53.9953 173.582 54.0054 173.572 54.0066C173.564 54.0079 173.555 54.0079 173.547 54.0079H173.49H170.849H170.817L170.81 54.0079C170.775 54.0079 170.757 54.0079 170.749 53.9993C170.74 53.9908 170.74 53.974 170.74 53.9408L170.74 53.9338V53.6159C170.743 53.5953 170.742 53.5758 170.74 53.5542V53.5542L170.74 53.5518ZM159.125 59.253H159.211C159.259 59.2115 159.288 59.1638 159.314 59.1148C159.35 59.0507 159.378 58.9854 159.403 58.9175C159.466 58.7479 159.509 58.572 159.547 58.3961C159.549 58.3878 159.549 58.3789 159.55 58.3703C159.55 58.3658 159.55 58.3614 159.551 58.3571C159.552 58.3471 159.542 58.3345 159.533 58.3345L159.529 58.3344C159.491 58.3332 159.455 58.332 159.417 58.332H149.191H149.142L149.132 58.332C149.09 58.3319 149.07 58.3319 149.06 58.3421C149.05 58.3521 149.05 58.3719 149.05 58.411L149.05 58.425V59.1562L149.05 59.1731C149.05 59.2139 149.05 59.2341 149.06 59.2439C149.069 59.2536 149.089 59.2535 149.128 59.2531L149.154 59.253H159.125ZM154.295 50.5115H149.177C149.161 50.5115 149.145 50.5112 149.128 50.5109C149.111 50.5106 149.095 50.5103 149.079 50.5103C149.064 50.5103 149.053 50.499 149.051 50.4851C149.05 50.4726 149.049 50.4588 149.049 50.4449V49.6496C149.049 49.637 149.05 49.6232 149.051 49.6106C149.053 49.6006 149.063 49.5918 149.073 49.5905C149.081 49.5893 149.09 49.5893 149.098 49.5893H149.172H159.094H159.151L159.159 49.5893C159.181 49.5892 159.193 49.5892 159.204 49.5935C159.216 49.5986 159.225 49.6099 159.246 49.6346L159.247 49.6358C159.284 49.6785 159.311 49.7275 159.337 49.7777C159.382 49.8682 159.416 49.9637 159.446 50.0605C159.486 50.1874 159.516 50.3168 159.545 50.4462C159.547 50.4577 159.548 50.4703 159.549 50.482L159.55 50.4851C159.551 50.499 159.542 50.5103 159.525 50.5103C159.493 50.5115 159.459 50.5115 159.426 50.5115H156.07H154.295ZM158.343 60.0788H153.761H153.758C152.426 60.0788 151.095 60.0788 149.762 60.0775H149.162C149.135 60.0775 149.107 60.0788 149.08 60.08C149.066 60.0813 149.054 60.0914 149.053 60.1052C149.052 60.129 149.05 60.1529 149.05 60.1768V60.6543V60.9169C149.05 60.9357 149.052 60.9546 149.055 60.9722C149.057 60.9784 149.065 60.986 149.071 60.9872C149.092 60.9898 149.114 60.991 149.136 60.991C149.301 60.9923 149.465 60.9923 149.63 60.9923C149.965 60.9923 150.3 60.9926 150.634 60.9929C150.969 60.9932 151.303 60.9935 151.638 60.9935C152.027 60.9935 152.416 60.9938 152.806 60.9942C153.195 60.9945 153.584 60.9948 153.974 60.9948H155.776L155.808 60.9945H155.808H155.808H155.808H155.808H155.808H155.808H155.808H155.808H155.808H155.809C155.83 60.9942 155.853 60.9939 155.874 60.9948C156.047 60.9985 156.22 60.9973 156.393 60.9898C156.469 60.986 156.546 60.9784 156.621 60.9671C156.773 60.9445 156.922 60.9131 157.069 60.8679C157.561 60.7171 158.002 60.4746 158.395 60.1529C158.415 60.1378 158.433 60.1203 158.45 60.1039C158.452 60.1014 158.454 60.0939 158.452 60.0901C158.451 60.0863 158.446 60.0813 158.442 60.0813C158.41 60.08 158.376 60.0788 158.343 60.0788ZM153.757 48.7635H149.175C149.142 48.7635 149.109 48.7622 149.076 48.761C149.066 48.761 149.055 48.7509 149.054 48.7409C149.054 48.7344 149.053 48.7281 149.053 48.7218C149.051 48.7098 149.05 48.698 149.05 48.6856V47.9304V47.899C149.052 47.8651 149.059 47.8588 149.094 47.8576H149.152H149.859H154.014H156.195H156.318C156.454 47.8576 156.586 47.8752 156.719 47.899C157.106 47.9669 157.465 48.1064 157.804 48.2948C158.012 48.4104 158.207 48.5411 158.389 48.6919C158.407 48.707 158.426 48.7233 158.443 48.7396C158.446 48.7421 158.447 48.7484 158.447 48.7535C158.447 48.7597 158.443 48.7622 158.437 48.7622C158.407 48.7635 158.377 48.7635 158.346 48.7635H153.757ZM158.162 54.0082H158.241C158.247 54.0037 158.253 54.0005 158.258 53.9977L158.264 53.9944C158.436 53.86 158.595 53.7155 158.742 53.5571C158.823 53.4704 158.898 53.3787 158.963 53.2807C158.995 53.2317 159.027 53.1815 159.051 53.1287C159.064 53.0998 159.058 53.0872 159.028 53.086C159.001 53.0847 158.973 53.0847 158.946 53.0847H157.268H151.08H150.999C150.991 53.0847 150.982 53.086 150.974 53.0872C150.964 53.0885 150.953 53.0985 150.953 53.1086C150.952 53.1324 150.951 53.1563 150.951 53.1802V53.9115L150.95 53.9368C150.95 53.9732 150.95 53.9914 150.959 54.0003C150.968 54.0092 150.986 54.009 151.022 54.0085L151.053 54.0082H158.162ZM158.238 54.8352L158.279 54.8685C158.295 54.8818 158.311 54.8949 158.328 54.9081C158.491 55.0425 158.646 55.1845 158.785 55.3428C158.858 55.4257 158.927 55.5112 158.984 55.6054C159.008 55.6469 159.03 55.6896 159.053 55.7323C159.054 55.7366 159.053 55.7419 159.052 55.7481C159.051 55.751 159.05 55.7542 159.05 55.7575H158.958H157.337H151.069C151.036 55.7575 151.002 55.7562 150.97 55.755C150.96 55.755 150.95 55.7449 150.949 55.7336C150.948 55.7147 150.948 55.6972 150.948 55.6783V54.9156C150.948 54.9062 150.948 54.8971 150.949 54.888C150.949 54.8789 150.949 54.8697 150.949 54.8603C150.949 54.8478 150.962 54.8365 150.976 54.8352C150.987 54.8339 150.999 54.8339 151.009 54.8339H151.091H158.116L158.135 54.8333C158.171 54.8321 158.206 54.8309 158.238 54.8352ZM148.006 49.5892H144.815C143.808 49.5892 142.802 49.5892 141.798 49.5905H141.583C141.565 49.5905 141.548 49.5916 141.53 49.5928L141.53 49.5928L141.526 49.593C141.517 49.593 141.507 49.6043 141.507 49.6144C141.505 49.6408 141.504 49.6671 141.504 49.6935V50.4085V50.4638C141.504 50.5052 141.509 50.5103 141.55 50.5115H141.631H147.998H148.08C148.088 50.5115 148.097 50.5103 148.105 50.509C148.115 50.5077 148.125 50.4977 148.125 50.4876C148.127 50.4675 148.128 50.4462 148.128 50.4248V49.6772C148.128 49.6596 148.128 49.6408 148.127 49.6219C148.125 49.6031 148.115 49.5905 148.097 49.5905C148.066 49.5892 148.036 49.5892 148.006 49.5892ZM144.857 59.2536H141.666C141.638 59.2536 141.609 59.2525 141.579 59.2513L141.579 59.2513L141.579 59.2513L141.575 59.2511C141.565 59.2511 141.554 59.2411 141.554 59.231C141.553 59.2184 141.552 59.2046 141.552 59.1921V58.398C141.552 58.391 141.552 58.3844 141.553 58.3778C141.553 58.3713 141.553 58.3647 141.553 58.3577C141.554 58.3477 141.564 58.3376 141.573 58.3364L141.573 58.3364C141.58 58.3351 141.588 58.3339 141.597 58.3339H141.671H148.054C148.086 58.3339 148.12 58.3351 148.153 58.3364C148.163 58.3364 148.173 58.3477 148.175 58.3565L148.175 58.3598L148.175 58.3598C148.176 58.3749 148.177 58.389 148.177 58.4042V59.1833V59.1833C148.177 59.1971 148.177 59.2097 148.176 59.2235C148.175 59.2423 148.164 59.2536 148.146 59.2549C148.121 59.2561 148.097 59.2561 148.072 59.2561H147.011C146.294 59.2536 145.576 59.2536 144.857 59.2536ZM141.675 60.9907H144.867C145.925 60.9907 146.982 60.9907 148.042 60.9894H148.116C148.127 60.9894 148.138 60.9894 148.149 60.9882C148.166 60.9869 148.176 60.9756 148.177 60.9568C148.179 60.9404 148.179 60.9254 148.179 60.909V60.909V60.1614V60.1614C148.179 60.1425 148.179 60.125 148.177 60.1061C148.177 60.0936 148.164 60.081 148.151 60.081L148.148 60.0808L148.147 60.0808H148.147H148.147H148.147H148.147H148.147H148.147H148.147H148.147H148.147H148.147H148.147H148.147C148.118 60.0796 148.089 60.0785 148.06 60.0785H141.669H141.612C141.608 60.0785 141.604 60.0788 141.599 60.0791C141.595 60.0794 141.591 60.0797 141.587 60.0797C141.566 60.081 141.556 60.091 141.555 60.1086C141.553 60.1225 141.553 60.135 141.553 60.1488V60.9203C141.553 60.9356 141.554 60.9497 141.556 60.9648L141.556 60.9681C141.556 60.9781 141.566 60.9882 141.577 60.9882C141.609 60.9894 141.643 60.9907 141.675 60.9907ZM166.687 50.508L166.676 50.5095C166.67 50.5106 166.663 50.5117 166.656 50.5117C166.639 50.5126 166.623 50.5123 166.606 50.512L166.582 50.5117H160.46C160.428 50.5117 160.394 50.5105 160.362 50.5092C160.351 50.5092 160.341 50.4992 160.34 50.4891C160.339 50.4835 160.338 50.478 160.338 50.4726C160.337 50.4622 160.336 50.4521 160.336 50.4414V49.6623C160.336 49.6485 160.336 49.636 160.337 49.6221C160.338 49.5995 160.349 49.5895 160.373 49.5895C160.398 49.5882 160.423 49.5882 160.447 49.5882H166.256L166.275 49.588C166.302 49.5876 166.329 49.5872 166.356 49.5932C166.363 49.6096 166.371 49.6272 166.378 49.6435C166.482 49.9249 166.586 50.2077 166.688 50.4891C166.689 50.4916 166.688 50.4941 166.687 50.4967C166.688 50.5004 166.688 50.5029 166.687 50.508ZM169.188 50.4905C169.187 50.4956 169.186 50.5009 169.185 50.5063C169.208 50.5121 169.231 50.5124 169.252 50.5127C169.263 50.5128 169.273 50.513 169.284 50.5138H175.336H175.403C175.412 50.5138 175.421 50.5138 175.427 50.51C175.434 50.5063 175.441 50.5 175.443 50.4937C175.447 50.4774 175.447 50.4623 175.447 50.446V49.6594C175.447 49.6441 175.446 49.6299 175.444 49.6148L175.444 49.6116C175.444 49.6028 175.432 49.5928 175.422 49.5928L175.418 49.5926C175.388 49.5914 175.36 49.5903 175.331 49.5903H169.616L169.594 49.59C169.579 49.5897 169.565 49.5894 169.55 49.5903L169.539 49.5915L169.519 49.594C169.504 49.6121 169.497 49.6321 169.49 49.6524L169.488 49.6594C169.414 49.8629 169.338 50.0677 169.263 50.2726L169.248 50.3145C169.228 50.368 169.209 50.421 169.19 50.4749C169.189 50.4795 169.188 50.4848 169.188 50.4905ZM165.714 47.8617L165.72 47.8716C165.723 47.8777 165.726 47.8835 165.728 47.8893C165.834 48.1733 165.939 48.4572 166.043 48.7412C166.044 48.7429 166.043 48.7445 166.043 48.7462L166.043 48.7487C166.043 48.7503 166.042 48.7518 166.042 48.754L166.04 48.7588C166.035 48.7594 166.03 48.7604 166.025 48.7613C166.019 48.7622 166.014 48.7632 166.009 48.7638C165.991 48.7647 165.973 48.7644 165.954 48.7641L165.927 48.7638H160.467C160.435 48.7638 160.401 48.7638 160.368 48.7626C160.35 48.7626 160.34 48.7513 160.338 48.7311C160.337 48.7123 160.337 48.6947 160.337 48.6759V47.9446C160.337 47.9232 160.338 47.9019 160.34 47.8818C160.341 47.8717 160.35 47.8604 160.36 47.8604C160.368 47.8591 160.377 47.8591 160.385 47.8591H160.459H165.606L165.619 47.8586C165.65 47.8574 165.682 47.8561 165.714 47.8617ZM169.828 48.749C169.828 48.7521 169.829 48.7554 169.829 48.7589C169.859 48.7662 169.888 48.7649 169.918 48.7635L169.937 48.7627H175.325H175.399C175.407 48.7627 175.416 48.7615 175.424 48.7602C175.434 48.7602 175.445 48.7501 175.445 48.7401L175.445 48.7396C175.446 48.7134 175.447 48.6872 175.447 48.6609L175.448 48.4308V48.4294C175.448 48.2762 175.448 48.1227 175.447 47.9699C175.447 47.9544 175.447 47.941 175.448 47.9294V47.9294V47.9294V47.9294V47.9294V47.9294V47.9293V47.9293V47.9293V47.9293V47.9293V47.9293V47.9293V47.9293V47.9293V47.9293V47.9293V47.9292V47.9292V47.9292V47.9292V47.9292C175.448 47.8928 175.448 47.8745 175.439 47.8655C175.43 47.8563 175.411 47.8567 175.373 47.8575C175.36 47.8577 175.345 47.858 175.328 47.858H170.26H170.211H170.186C170.153 47.8593 170.147 47.8631 170.137 47.8894C170.13 47.9045 170.125 47.9196 170.12 47.9347C170.037 48.1606 169.954 48.3878 169.871 48.615L169.871 48.615L169.871 48.615L169.871 48.6151L169.871 48.6151L169.871 48.6152L169.871 48.6152L169.87 48.6152L169.87 48.6152L169.87 48.6153L169.87 48.6153L169.87 48.6153L169.87 48.6154L169.87 48.6154L169.87 48.6154L169.87 48.6155L169.87 48.6155L169.87 48.6155L169.87 48.6156L169.87 48.6156L169.87 48.6156L169.87 48.6157L169.87 48.6157L169.87 48.6157L169.827 48.7363C169.826 48.7401 169.827 48.7443 169.828 48.749ZM164.792 52.2589H162.349C162.32 52.2589 162.291 52.2577 162.262 52.2565L162.258 52.2564C162.247 52.2564 162.238 52.2451 162.238 52.235C162.237 52.2162 162.237 52.1986 162.237 52.1797V51.417C162.237 51.3957 162.238 51.3743 162.241 51.3542C162.241 51.3504 162.247 51.3454 162.253 51.3429C162.26 51.3404 162.268 51.3391 162.277 51.3391H162.359H166.899L166.926 51.3394C166.944 51.3397 166.962 51.34 166.98 51.3391C167 51.3391 167.01 51.3492 167.017 51.3655C167.032 51.4057 167.047 51.4447 167.061 51.4849C167.148 51.7186 167.235 51.9536 167.321 52.1873C167.327 52.2049 167.332 52.2224 167.338 52.24C167.34 52.2463 167.331 52.2564 167.325 52.2564C167.295 52.2576 167.265 52.2576 167.234 52.2576C166.421 52.2589 165.606 52.2589 164.792 52.2589ZM168.547 52.2484C168.548 52.2506 168.549 52.253 168.55 52.2553C168.569 52.2593 168.59 52.2598 168.611 52.2602C168.623 52.2605 168.634 52.2607 168.646 52.2616H173.48H173.521L173.531 52.2615C173.597 52.2605 173.598 52.2605 173.598 52.1862V51.416V51.4158C173.598 51.3996 173.598 51.3845 173.597 51.3682C173.597 51.3532 173.586 51.3419 173.572 51.3419C173.541 51.3406 173.511 51.3406 173.481 51.3406H168.983H168.909L168.906 51.3406C168.893 51.3405 168.881 51.3404 168.869 51.3519C168.866 51.3599 168.863 51.3683 168.859 51.377L168.859 51.3771L168.859 51.3771L168.859 51.3772C168.856 51.3848 168.853 51.3927 168.85 51.4009C168.755 51.6623 168.659 51.9249 168.563 52.1862C168.556 52.2038 168.551 52.2214 168.546 52.239C168.545 52.2413 168.546 52.2447 168.547 52.2484ZM173.121 59.2529H170.859C170.832 59.2529 170.805 59.2529 170.778 59.2516C170.757 59.2516 170.746 59.2416 170.745 59.224C170.745 59.2189 170.745 59.2136 170.744 59.2083C170.744 59.2029 170.744 59.1976 170.744 59.1926V58.3896C170.744 58.3846 170.744 58.3793 170.744 58.3739C170.745 58.3686 170.745 58.3633 170.745 58.3582C170.746 58.3444 170.757 58.3331 170.772 58.3331C170.802 58.3318 170.832 58.3318 170.863 58.3318H170.863H172.64H175.37C175.388 58.3318 175.403 58.3316 175.417 58.3313C175.459 58.3306 175.479 58.3302 175.489 58.3404C175.499 58.3503 175.499 58.3701 175.498 58.4091C175.498 58.4215 175.497 58.4359 175.497 58.4525C175.498 58.6082 175.498 58.7634 175.498 58.9188L175.497 59.1523C175.497 59.1787 175.496 59.2051 175.495 59.2315C175.495 59.2416 175.483 59.2504 175.473 59.2516L175.468 59.2517L175.461 59.2522L175.454 59.2527L175.448 59.2529H175.374H173.121ZM160.507 59.253H162.744C163.492 59.253 164.241 59.253 164.988 59.2542L165.016 59.2539L165.034 59.2536H165.034H165.034L165.035 59.2536C165.049 59.2533 165.064 59.253 165.079 59.253C165.093 59.253 165.105 59.2417 165.106 59.2291L165.106 59.2258C165.108 59.2107 165.109 59.1966 165.109 59.1813V58.4023C165.109 58.386 165.107 58.3709 165.106 58.3546C165.105 58.3458 165.094 58.3345 165.084 58.3345L165.084 58.3345C165.054 58.3332 165.024 58.332 164.994 58.332H160.506C160.481 58.332 160.456 58.332 160.432 58.3332C160.4 58.3345 160.391 58.342 160.39 58.3696C160.389 58.3935 160.389 58.4174 160.389 58.4413L160.388 58.6739C160.388 58.8293 160.388 58.9849 160.389 59.1399C160.389 59.1535 160.389 59.1656 160.388 59.1762V59.1762C160.388 59.2152 160.388 59.2348 160.397 59.2445C160.407 59.2543 160.427 59.254 160.467 59.2534C160.478 59.2532 160.492 59.253 160.507 59.253ZM173.118 60.9908H170.872C170.854 60.9908 170.839 60.9911 170.825 60.9913C170.783 60.9921 170.762 60.9925 170.752 60.9823C170.743 60.9726 170.743 60.9533 170.744 60.9155L170.744 60.9153C170.744 60.9025 170.745 60.8876 170.745 60.8702C170.744 60.711 170.744 60.5517 170.745 60.3928L170.745 60.1553C170.745 60.0811 170.745 60.0799 170.821 60.0799H170.879H175.362C175.381 60.0799 175.398 60.0796 175.412 60.0793C175.457 60.0785 175.479 60.0781 175.49 60.0889C175.5 60.0992 175.499 60.1195 175.499 60.1591L175.499 60.1758L175.498 60.1917L175.498 60.2093C175.499 60.3655 175.499 60.5212 175.499 60.6771V60.6772V60.6774V60.6775V60.6776V60.6778V60.6779V60.678V60.6782V60.6783V60.6784V60.6786V60.6787V60.6788V60.679V60.6807L175.498 60.9167V60.9203C175.499 60.9552 175.499 60.9728 175.49 60.9817C175.481 60.9908 175.462 60.9908 175.426 60.9908H175.422H175.356H173.118ZM160.516 60.9908H162.745H162.747C163.494 60.9908 164.242 60.9908 164.99 60.9895H164.991C165.022 60.9895 165.052 60.9895 165.081 60.9883C165.096 60.987 165.109 60.9757 165.109 60.9631L165.109 60.9505L165.109 60.9275L165.109 60.9273L165.11 60.9092L165.11 60.8915L165.11 60.6577V60.6576V60.6574V60.6573V60.6572V60.657V60.6569V60.6567C165.111 60.5014 165.111 60.3463 165.11 60.1917L165.11 60.1801L165.11 60.1545C165.11 60.1172 165.11 60.0978 165.101 60.0877C165.09 60.0766 165.068 60.0768 165.021 60.0772L164.99 60.0773H160.508C160.484 60.0773 160.459 60.0773 160.434 60.0786C160.399 60.0798 160.391 60.0886 160.39 60.1213C160.389 60.1452 160.389 60.169 160.389 60.1929L160.388 60.419V60.4193V60.4195V60.4198V60.4201V60.4204V60.4207V60.4209V60.4212V60.4215V60.4218V60.422V60.4223V60.4226V60.4229V60.4232V60.4234C160.388 60.5722 160.388 60.7205 160.389 60.8689C160.389 60.8855 160.389 60.8999 160.389 60.9123C160.388 60.9517 160.388 60.9718 160.398 60.9818C160.408 60.9922 160.429 60.9919 160.473 60.9912C160.485 60.991 160.5 60.9908 160.516 60.9908ZM165.96 55.7537C165.949 55.7298 165.941 55.7097 165.934 55.6896C165.835 55.4283 165.738 55.1669 165.64 54.9055L165.625 54.8603C165.619 54.8452 165.628 54.8339 165.644 54.8339C165.666 54.8327 165.688 54.8327 165.71 54.8327H165.71H170.15C170.174 54.8327 170.199 54.8339 170.224 54.8352C170.234 54.8352 170.242 54.8477 170.238 54.8578C170.235 54.8653 170.233 54.8729 170.231 54.8804L170.231 54.8806L170.228 54.8907L170.224 54.903L170.078 55.2995L169.931 55.6959C169.926 55.711 169.92 55.726 169.913 55.7399C169.909 55.7461 169.902 55.7512 169.895 55.7537C169.887 55.7562 169.88 55.7562 169.87 55.7562H169.804H166.064L166.054 55.7563L166.038 55.7565C166.013 55.757 165.988 55.7575 165.96 55.7537ZM166.59 57.44C166.597 57.4616 166.604 57.4834 166.623 57.5029C166.645 57.5029 166.669 57.5042 166.694 57.5054H169.186C169.205 57.5054 169.224 57.5054 169.244 57.5042C169.257 57.5029 169.264 57.4966 169.27 57.4866C169.276 57.4728 169.283 57.4577 169.288 57.4426L169.434 57.0454L169.58 56.6497C169.585 56.6347 169.59 56.6196 169.594 56.6045C169.597 56.5945 169.588 56.5831 169.576 56.5831L169.576 56.5831C169.549 56.5819 169.522 56.5806 169.494 56.5806H166.385H166.319C166.311 56.5806 166.302 56.5819 166.294 56.5831C166.288 56.5831 166.278 56.5932 166.28 56.5995C166.284 56.6146 166.287 56.6296 166.293 56.6447L166.322 56.7231L166.351 56.8018C166.39 56.9044 166.428 57.0073 166.467 57.1102L166.467 57.1105L166.467 57.1107L166.467 57.111L166.467 57.1112L166.467 57.1115C166.506 57.2148 166.545 57.3182 166.584 57.4212L166.587 57.4318L166.59 57.44ZM159.45 52.2548C159.445 52.2552 159.44 52.2559 159.436 52.2565C159.429 52.2575 159.422 52.2585 159.415 52.2585C159.4 52.2594 159.385 52.2591 159.37 52.2588H159.37L159.348 52.2585H156.7C156.673 52.2585 156.646 52.2573 156.618 52.256C156.608 52.256 156.599 52.2447 156.597 52.2346L156.597 52.2314C156.596 52.2163 156.595 52.2021 156.595 52.1869V51.4079C156.595 51.389 156.596 51.3714 156.599 51.3526C156.599 51.3488 156.605 51.3438 156.609 51.3413C156.614 51.3388 156.62 51.3375 156.625 51.3375C156.637 51.3375 156.649 51.3372 156.662 51.3369C156.674 51.3366 156.686 51.3363 156.699 51.3363H159.528H159.594C159.622 51.3375 159.632 51.345 159.63 51.3752C159.63 51.4154 159.629 51.4544 159.625 51.4946C159.602 51.7333 159.547 51.9645 159.469 52.1919C159.465 52.2158 159.457 52.2359 159.45 52.2548ZM159.458 56.6139L159.449 56.5891C159.414 56.5774 159.385 56.5787 159.359 56.58L159.353 56.5803H156.703C156.694 56.5803 156.685 56.5806 156.675 56.5809C156.666 56.5812 156.656 56.5815 156.646 56.5815C156.637 56.5815 156.629 56.5828 156.621 56.5841C156.612 56.5853 156.599 56.5966 156.599 56.6054L156.599 56.6055C156.598 56.6293 156.596 56.6532 156.596 56.677L156.596 56.9146V56.9147V56.9148V56.9149V56.9151V56.9152V56.9153V56.9154V56.9155V56.9156V56.9157V56.9159V56.916C156.596 57.0744 156.596 57.2332 156.596 57.392L156.596 57.4174L156.596 57.429C156.596 57.4685 156.595 57.4881 156.605 57.4975C156.614 57.5068 156.633 57.5064 156.671 57.5056C156.683 57.5054 156.698 57.5051 156.715 57.5051H159.512H159.594L159.602 57.5041C159.608 57.5036 159.613 57.503 159.619 57.5013C159.623 57.4988 159.628 57.4938 159.629 57.49C159.632 57.4774 159.633 57.4636 159.633 57.451C159.634 57.3706 159.623 57.2915 159.611 57.2136C159.585 57.0326 159.54 56.8555 159.482 56.6808C159.475 56.6587 159.466 56.6366 159.458 56.6139ZM143.411 51.3429C143.416 51.3424 143.421 51.3417 143.425 51.3411C143.432 51.34 143.439 51.3391 143.445 51.3391H143.511H146.167C146.181 51.3391 146.194 51.3394 146.208 51.3398C146.222 51.3401 146.235 51.3404 146.249 51.3404C146.263 51.3404 146.274 51.3517 146.274 51.3668C146.275 51.3806 146.275 51.3932 146.275 51.407V52.1935C146.275 52.2099 146.274 52.225 146.271 52.2413C146.27 52.2476 146.262 52.2539 146.255 52.2576C146.25 52.2606 146.243 52.2604 146.236 52.2602L146.231 52.2601H146.165H143.508H143.508C143.484 52.2601 143.459 52.2601 143.434 52.2589C143.412 52.2576 143.402 52.2539 143.401 52.2237C143.399 52.1998 143.399 52.176 143.399 52.1521V52.1521V51.4447V51.4447C143.399 51.4208 143.399 51.3969 143.401 51.3731C143.402 51.368 143.404 51.363 143.406 51.358C143.408 51.3529 143.41 51.3479 143.411 51.3429ZM143.51 54.0082H144.842C145.176 54.0082 145.511 54.0082 145.849 54.007H146.202C146.222 54.007 146.24 54.007 146.259 54.0045C146.267 54.0032 146.274 53.9969 146.275 53.9881L146.275 53.9849L146.275 53.9848C146.276 53.9698 146.278 53.9556 146.278 53.9404V53.1538C146.278 53.1386 146.276 53.1244 146.275 53.1093L146.275 53.1093L146.275 53.1061C146.275 53.0973 146.263 53.0872 146.253 53.0872C146.226 53.086 146.198 53.0847 146.171 53.0847H143.514C143.492 53.0847 143.469 53.0847 143.447 53.086C143.441 53.086 143.435 53.0872 143.43 53.0883L143.423 53.0897C143.412 53.091 143.408 53.0985 143.407 53.1061C143.405 53.1224 143.403 53.1375 143.403 53.1538V53.9404C143.403 53.9556 143.404 53.9698 143.406 53.9848L143.406 53.9881C143.406 53.9969 143.418 54.007 143.428 54.007C143.455 54.0082 143.482 54.0082 143.51 54.0082ZM144.838 55.7562H143.507C143.493 55.7562 143.48 55.7559 143.466 55.7556C143.452 55.7553 143.439 55.7549 143.425 55.7549C143.415 55.7549 143.406 55.7449 143.404 55.7336L143.404 55.7303C143.403 55.7152 143.402 55.7011 143.402 55.6858V54.9081C143.402 54.8708 143.402 54.8519 143.411 54.8424C143.421 54.8327 143.44 54.8327 143.48 54.8327H143.521H146.159C146.189 54.8327 146.219 54.8339 146.249 54.8352C146.263 54.8352 146.273 54.8465 146.273 54.8616C146.275 54.8804 146.275 54.898 146.275 54.9169V55.6795C146.275 55.7009 146.272 55.7223 146.27 55.7424C146.27 55.7461 146.263 55.7512 146.259 55.7537C146.254 55.7562 146.249 55.7562 146.244 55.7562C146.23 55.7562 146.216 55.7565 146.203 55.7568C146.189 55.7571 146.175 55.7574 146.162 55.7574C145.72 55.7562 145.279 55.7562 144.839 55.7562H144.838ZM162.341 55.7562H163.674H163.674C164.116 55.7562 164.556 55.7562 165.002 55.7574C165.016 55.7574 165.03 55.7571 165.043 55.7568L165.064 55.7564L165.084 55.7562C165.099 55.7562 165.11 55.7449 165.112 55.7323C165.112 55.7242 165.112 55.7164 165.112 55.7086L165.112 55.7084L165.113 55.6975L165.113 55.6846V54.9055C165.113 54.8903 165.112 54.8762 165.111 54.8612V54.8612L165.11 54.8578C165.109 54.849 165.099 54.8377 165.089 54.8364L165.065 54.8349C165.048 54.8338 165.032 54.8327 165.015 54.8327H162.333H162.333C162.311 54.8327 162.289 54.8327 162.267 54.8339C162.253 54.8352 162.24 54.8465 162.24 54.8591C162.24 54.8685 162.24 54.8776 162.239 54.8867C162.239 54.8958 162.239 54.9049 162.239 54.9143V55.677C162.239 55.6959 162.239 55.7135 162.24 55.7323C162.24 55.7436 162.249 55.7537 162.259 55.7537L162.259 55.7537C162.287 55.7549 162.314 55.7562 162.341 55.7562ZM144.833 57.5038H143.51C143.485 57.5038 143.461 57.5038 143.436 57.5026C143.414 57.5013 143.403 57.4976 143.402 57.4674C143.401 57.4435 143.401 57.4197 143.401 57.3958V56.6896C143.401 56.6658 143.401 56.6419 143.402 56.618C143.402 56.6105 143.405 56.6029 143.409 56.5954C143.411 56.5916 143.415 56.5866 143.42 56.5854L143.42 56.5853C143.428 56.5828 143.436 56.5803 143.444 56.5803C143.468 56.5791 143.493 56.5791 143.518 56.5791H146.156L146.189 56.5789C146.234 56.5784 146.256 56.5782 146.266 56.589C146.276 56.5993 146.276 56.6196 146.275 56.6592L146.275 56.6922V57.3983C146.275 57.4222 146.275 57.4461 146.274 57.4699C146.273 57.4938 146.263 57.5026 146.237 57.5026H146.163C145.721 57.5038 145.278 57.5038 144.833 57.5038ZM162.341 57.5038H163.666C164.11 57.5038 164.554 57.5038 164.998 57.5025H165.072C165.097 57.5025 165.106 57.4937 165.107 57.4699V57.446V56.6431C165.107 56.6293 165.106 56.6155 165.105 56.6029C165.105 56.5941 165.093 56.5815 165.084 56.5815L165.071 56.581L165.049 56.5799H165.049H165.049H165.049H165.049L165.049 56.5799C165.028 56.5788 165.006 56.5778 164.985 56.5778H162.362H162.312C162.237 56.579 162.236 56.5803 162.236 56.6544V57.2739V57.4334C162.236 57.4498 162.237 57.4648 162.238 57.4812C162.238 57.4912 162.249 57.5013 162.259 57.5013C162.286 57.5025 162.314 57.5038 162.341 57.5038ZM152.387 51.3399H153.711L153.734 51.3398C153.77 51.3395 153.788 51.3394 153.797 51.3483C153.806 51.3572 153.806 51.3753 153.805 51.4114L153.805 51.4279V52.1742C153.805 52.1956 153.804 52.2169 153.803 52.237C153.803 52.2471 153.792 52.2559 153.781 52.2572C153.773 52.2584 153.764 52.2584 153.756 52.2584H153.69H151.06C151.046 52.2584 151.033 52.2586 151.022 52.2588C150.985 52.2594 150.966 52.2597 150.957 52.2505C150.948 52.2415 150.949 52.2233 150.949 52.1872C150.949 52.1775 150.949 52.1666 150.949 52.1541V51.4392C150.949 51.4128 150.951 51.3864 150.952 51.36C150.952 51.35 150.962 51.3412 150.973 51.3399C150.98 51.3386 150.99 51.3386 150.997 51.3386H151.071C151.51 51.3399 151.948 51.3399 152.387 51.3399ZM170.852 55.7559H172.167C172.604 55.7559 173.039 55.7559 173.477 55.7584H173.551C173.558 55.7584 173.567 55.7584 173.575 55.7572C173.587 55.7559 173.596 55.7471 173.597 55.737L173.598 55.7339C173.599 55.7188 173.6 55.7046 173.6 55.6893V54.9103V54.9101C173.6 54.8939 173.6 54.8788 173.599 54.8625C173.597 54.8487 173.586 54.8361 173.573 54.8361L173.569 54.836C173.539 54.8348 173.51 54.8336 173.482 54.8336H170.866H170.792C170.784 54.8336 170.775 54.8349 170.767 54.8361C170.758 54.8374 170.746 54.8462 170.746 54.8562C170.745 54.8763 170.744 54.8977 170.744 54.9191V55.6742V55.722C170.744 55.7471 170.752 55.7546 170.778 55.7559H170.852ZM152.379 57.504H151.055C151.028 57.504 151.001 57.5027 150.974 57.5015C150.963 57.5015 150.953 57.4914 150.953 57.4814L150.953 57.4781C150.951 57.463 150.95 57.4489 150.95 57.4336V57.2753V56.6558C150.95 56.5817 150.952 56.5805 151.027 56.5792H151.076H153.683C153.704 56.5792 153.726 56.5803 153.747 56.5814H153.747H153.747C153.759 56.582 153.77 56.5825 153.782 56.583C153.791 56.583 153.802 56.5955 153.802 56.6043L153.803 56.6076C153.804 56.6227 153.805 56.6368 153.805 56.6521V57.4386C153.805 57.455 153.804 57.4701 153.801 57.4864C153.8 57.4939 153.795 57.5015 153.784 57.5015C153.762 57.5027 153.74 57.504 153.719 57.504H153.086H152.379ZM170.841 57.5038H172.174H173.489C173.517 57.5038 173.544 57.5038 173.571 57.5025C173.584 57.5013 173.596 57.49 173.596 57.4762C173.596 57.4594 173.596 57.4423 173.597 57.4252L173.597 57.4246C173.597 57.4155 173.597 57.4064 173.597 57.3973C173.597 57.3892 173.597 57.3811 173.597 57.3731V56.6733C173.597 56.6494 173.596 56.6255 173.595 56.6016C173.595 56.5941 173.58 56.5803 173.572 56.5803C173.54 56.579 173.506 56.5778 173.474 56.5778H170.867H170.818C170.78 56.5784 170.761 56.5787 170.752 56.5883C170.742 56.598 170.742 56.6171 170.742 56.6557V57.4347V57.4348C170.742 57.4485 170.742 57.4611 170.744 57.4749C170.744 57.4758 170.744 57.4767 170.744 57.4776C170.744 57.4785 170.745 57.4793 170.745 57.4802C170.745 57.4838 170.746 57.4875 170.748 57.49C170.75 57.4937 170.755 57.5 170.759 57.5C170.787 57.5025 170.814 57.5038 170.841 57.5038ZM168.614 59.2505C168.599 59.2517 168.586 59.253 168.571 59.253H167.322C167.312 59.253 167.3 59.253 167.29 59.2517C167.278 59.2505 167.27 59.2429 167.265 59.2341C167.256 59.2153 167.248 59.1952 167.24 59.1751L167.164 58.9724C167.124 58.8659 167.084 58.7591 167.044 58.6524C167.029 58.6117 167.013 58.5707 166.998 58.5298L166.998 58.5292C166.983 58.4881 166.967 58.4469 166.952 58.4061C166.95 58.4018 166.949 58.3975 166.947 58.3932C166.946 58.3887 166.944 58.3842 166.943 58.3797C166.94 58.3709 166.937 58.3621 166.934 58.3533C166.931 58.347 166.939 58.3357 166.945 58.3345C166.953 58.3332 166.961 58.332 166.97 58.332H167.027H168.844C168.871 58.332 168.899 58.3332 168.926 58.3345L168.926 58.3345C168.94 58.3345 168.949 58.3483 168.944 58.3634L168.937 58.386L168.937 58.3861C168.932 58.4011 168.927 58.4162 168.921 58.4312C168.906 58.4708 168.892 58.5104 168.877 58.55C168.858 58.6014 168.839 58.6528 168.82 58.7042C168.787 58.7949 168.753 58.8855 168.72 58.9765L168.677 59.0921L168.634 59.2077C168.631 59.2196 168.624 59.2314 168.618 59.244C168.617 59.2461 168.615 59.2483 168.614 59.2505ZM168.298 60.1262C168.302 60.1136 168.305 60.1011 168.3 60.0873C168.286 60.0789 168.27 60.0792 168.253 60.0796C168.25 60.0796 168.247 60.0797 168.243 60.0797H167.643C167.634 60.0797 167.625 60.0809 167.615 60.082C167.611 60.0826 167.607 60.0831 167.603 60.0835C167.596 60.0847 167.588 60.0948 167.59 60.1011C167.593 60.1099 167.596 60.1187 167.599 60.1275C167.602 60.1363 167.605 60.1451 167.608 60.1539C167.704 60.4089 167.8 60.6652 167.896 60.9216C167.903 60.9392 167.909 60.9555 167.917 60.9731C167.918 60.9759 167.921 60.9787 167.924 60.9816C167.925 60.9825 167.927 60.9835 167.927 60.9844C167.943 60.9957 167.977 60.9882 167.985 60.9706C167.991 60.9573 167.996 60.9435 168.001 60.9295C168.003 60.9235 168.006 60.9175 168.008 60.9115C168.039 60.8292 168.069 60.7469 168.099 60.6646C168.129 60.5823 168.159 60.5 168.19 60.4177C168.208 60.3693 168.226 60.3207 168.244 60.272C168.262 60.2233 168.279 60.1746 168.298 60.1262Z" fill="white"/>
<path d="M211.139 48.357C211.139 48.357 213.047 56.1733 213.351 57.442C213.706 58.9228 214.347 59.4678 216.192 59.1002L217.384 54.2542C217.685 53.0504 217.888 52.1923 218.082 50.9678H218.116C218.252 52.2043 218.447 53.054 218.695 54.2584C218.695 54.2584 219.18 56.4584 219.428 57.6139C219.677 58.769 220.37 59.497 222.178 59.1006L225.016 48.3578H222.725L221.756 53.0024C221.495 54.3544 221.259 55.4108 221.077 56.6476H221.044C220.879 55.4231 220.668 54.4086 220.403 53.0914L219.394 48.3578H217.007L215.928 52.9721C215.622 54.3742 215.336 55.5065 215.154 56.7014H215.121C214.935 55.5761 214.687 54.1531 214.419 52.7958C214.419 52.7958 213.777 49.4954 213.552 48.3578L211.139 48.3581L211.139 48.357ZM232.983 48.357V59.0998H235.164V56.8186V48.3564H232.983V48.357ZM263.708 48.357V56.2821C263.708 57.3748 263.914 58.1404 264.354 58.6081C264.738 59.0171 265.371 59.282 266.13 59.282C266.775 59.282 267.409 59.1596 267.708 59.0482L267.68 57.3434C267.458 57.3982 267.202 57.442 266.852 57.442C266.108 57.442 265.859 56.966 265.859 55.9849V52.9528H267.759V50.8974H265.859V48.357H263.708L263.708 48.357ZM228.107 50.8474C226.751 50.8474 225.675 51.2281 225.089 51.5671L225.518 53.0372C226.055 52.6987 226.91 52.4185 227.719 52.4185C229.059 52.415 229.278 53.1763 229.278 53.6645V53.7799C226.358 53.7755 224.514 54.786 224.514 56.8458C224.514 58.1034 225.453 59.2819 227.085 59.2819C228.091 59.2819 228.931 58.8811 229.435 58.2388H229.484C229.484 58.2388 229.818 59.6336 231.656 59.1002C231.559 58.5197 231.528 57.9007 231.528 57.1552V54.2853C231.528 52.4562 230.747 50.8474 228.107 50.8474L228.107 50.8474ZM241.157 50.8474C239.792 50.8474 239.179 51.5392 238.807 52.1262H238.774V51.0296H236.692V59.1003H238.886V54.3672C238.886 54.1453 238.911 53.9106 238.988 53.7065C239.17 53.23 239.613 52.6725 240.321 52.6725C241.206 52.6725 241.62 53.4207 241.62 54.5004V59.1002H243.811V54.3098C243.811 54.098 243.84 53.8429 243.903 53.6556C244.083 53.1135 244.561 52.6724 245.219 52.6724C246.116 52.6724 246.546 53.4076 246.546 54.6781V59.1003H248.739V54.3468C248.739 51.84 247.466 50.8474 246.029 50.8474C245.393 50.8474 244.89 51.007 244.436 51.2858C244.054 51.52 243.713 51.8528 243.414 52.291H243.382C243.034 51.4212 242.219 50.8474 241.157 50.8474L241.157 50.8474ZM253.201 50.8474C251.845 50.8474 250.769 51.2281 250.182 51.5671L250.612 53.0372C251.148 52.6987 252.004 52.4185 252.813 52.4185C254.152 52.415 254.372 53.1763 254.372 53.6645V53.7799C251.452 53.7755 249.607 54.786 249.607 56.8458C249.607 58.1034 250.546 59.2819 252.18 59.2819C253.184 59.2819 254.025 58.8811 254.528 58.2388H254.578C254.578 58.2388 254.911 59.6336 256.749 59.1002C256.653 58.5197 256.622 57.9007 256.622 57.1552V54.2853C256.622 52.4562 255.841 50.8474 253.201 50.8474L253.201 50.8474ZM262.308 50.8474C261.469 50.8474 260.513 51.3895 260.112 52.5516H260.051V51.0295H258.076V59.1002H260.327V54.9675C260.327 54.7445 260.341 54.5501 260.376 54.3719C260.542 53.5062 261.205 52.9528 262.155 52.9528C262.416 52.9528 262.602 52.981 262.804 53.0102V50.8973C262.635 50.8631 262.519 50.8473 262.308 50.8473L262.308 50.8474ZM229.349 55.2101V56.2169C229.349 56.3659 229.336 56.5195 229.295 56.6539C229.126 57.2131 228.547 57.6856 227.822 57.6856C227.219 57.6856 226.739 57.343 226.739 56.6181C226.739 55.5094 227.96 55.2029 229.349 55.2101H229.349ZM254.442 55.2101V56.2169C254.442 56.3659 254.429 56.5195 254.388 56.6539C254.219 57.2131 253.64 57.6856 252.916 57.6856C252.312 57.6856 251.832 57.343 251.832 56.6181C251.832 55.5094 253.053 55.2029 254.442 55.2101H254.442Z" fill="white"/>
<path d="M279.554 44.4719C278.85 44.4719 278.29 44.8652 278.29 45.344L278.718 50.1873C278.765 50.4791 279.123 50.7042 279.555 50.7042C279.988 50.7036 280.344 50.4787 280.392 50.1873L280.822 45.344C280.822 44.8653 280.261 44.472 279.555 44.472L279.554 44.4719ZM272.584 48.357C272.219 48.3656 271.803 48.6425 271.539 49.1006C271.186 49.7105 271.248 50.3922 271.662 50.6314L276.069 52.684C276.345 52.7865 276.719 52.5909 276.935 52.2176C276.935 52.2175 276.935 52.2174 276.935 52.2174C277.153 51.8422 277.136 51.4203 276.907 51.2332L272.926 48.441C272.823 48.3811 272.706 48.3541 272.584 48.357L272.584 48.357ZM286.525 48.357C286.403 48.3541 286.287 48.381 286.184 48.4409L282.202 51.2331C281.974 51.4202 281.958 51.8421 282.174 52.2173L282.174 52.2175C282.392 52.5908 282.764 52.7864 283.04 52.684L287.449 50.6314C287.865 50.3923 287.924 49.7106 287.573 49.1006C287.308 48.6425 286.892 48.3657 286.526 48.357L286.525 48.357ZM276.234 54.747C276.177 54.7462 276.122 54.755 276.07 54.7745L271.662 56.8247C271.249 57.0649 271.186 57.7468 271.54 58.3574C271.892 58.9662 272.513 59.2556 272.926 59.0169L276.908 56.2268C277.137 56.0374 277.154 55.6157 276.936 55.2409L276.938 55.2417C276.762 54.9364 276.481 54.7503 276.234 54.7469L276.234 54.747ZM282.877 54.747C282.63 54.7503 282.35 54.9365 282.174 55.2418L282.175 55.2409C281.959 55.6158 281.975 56.0375 282.203 56.2269L286.185 59.017C286.597 59.2557 287.219 58.9663 287.573 58.3575C287.924 57.7469 287.864 57.0649 287.449 56.8248L283.041 54.7745C282.989 54.7551 282.934 54.7463 282.877 54.747L282.877 54.747ZM279.554 56.7542C279.122 56.7547 278.766 56.9788 278.719 57.2699L278.291 62.1129C278.291 62.5925 278.851 62.9851 279.555 62.9851C280.261 62.9851 280.822 62.5925 280.822 62.1129L280.393 57.2699C280.345 56.9788 279.988 56.7548 279.555 56.7542H279.554H279.554Z" fill="white"/>
</g>
</svg>
