<svg width="70" height="70" viewBox="0 0 70 70" fill="none" xmlns="http://www.w3.org/2000/svg">
<path d="M46.8354 53.4397C46.4526 53.4877 46.1176 53.2477 46.0698 52.8657C45.5434 48.5587 46.9789 44.2517 50.0414 41.1897C51.9076 39.3237 54.2044 38.0797 56.6448 37.5057C55.3049 35.3517 54.5872 32.8157 54.5872 30.2317C54.5872 27.5997 55.3049 25.1117 56.6448 22.9107C54.1565 22.3367 51.8597 21.0447 50.0414 19.2267C48.1752 17.3597 46.9311 15.0637 46.3569 12.6227C44.2036 13.9627 41.6675 14.6807 39.0357 14.6807C36.404 14.6807 33.9157 13.9627 31.7146 12.6227C31.1404 15.1107 29.8484 17.4077 28.0301 19.2267C24.9198 22.3367 20.6133 23.7717 16.3067 23.1977C15.9239 23.1497 15.6847 22.7677 15.7804 22.4327L16.4024 18.9867C16.4503 18.6517 16.7852 18.4127 17.1202 18.4607C19.8477 18.7957 22.623 17.8387 24.6327 15.8287C26.6425 13.8197 27.5995 11.0437 27.2645 8.22069C27.2167 7.93369 27.3602 7.64669 27.6473 7.50269L31.0447 6.06769C31.3318 5.97169 31.6189 6.06769 31.8103 6.25869C33.5329 8.45969 36.2126 9.79969 39.0357 9.79969C41.8589 9.79969 44.5386 8.50769 46.2612 6.25869C46.4526 6.01969 46.7397 5.92369 47.0268 6.06769L50.4242 7.45469C50.7113 7.55069 50.8548 7.83768 50.807 8.12468C50.472 10.9007 51.429 13.7237 53.4388 15.7337C55.4485 17.7427 58.2717 18.6997 61.047 18.3647C61.3341 18.3167 61.6212 18.4607 61.7648 18.7477L63.2003 22.1457C63.296 22.4327 63.2003 22.7197 63.0089 22.9107C60.8077 24.6337 59.4679 27.3127 59.4679 30.1367C59.4679 32.9597 60.7599 35.5917 62.961 37.3617C63.2003 37.5527 63.296 37.8397 63.1524 38.1277L61.7169 41.5247C61.6212 41.8117 61.3341 41.9557 61.047 41.9077C58.2717 41.5727 55.4485 42.5297 53.4866 44.5397C51.5247 46.5007 50.5677 49.2767 50.8548 52.0037C50.9027 52.3387 50.6634 52.6737 50.3285 52.7217L46.8354 53.4397Z" fill="#421983"/>
<path d="M39.9452 19.2734C35.5908 18.6514 31.6192 20.4224 29.0831 23.3894C28.8438 23.6764 28.9395 24.1544 29.2745 24.3464L31.0928 25.3984C31.3799 25.5424 31.7149 25.4944 31.9063 25.2554C33.5811 23.4364 35.9736 22.3844 38.6532 22.4794C42.8162 22.6714 46.3572 25.9724 46.8357 30.1354C47.2663 34.1554 44.9216 37.6964 41.4764 39.1314C41.1893 39.2274 40.9979 39.5144 41.0457 39.8494L41.3807 41.9074C41.4285 42.2894 41.8592 42.5774 42.242 42.4334C43.9646 41.8114 45.4958 40.8544 46.74 39.6104C49.276 37.0744 50.6637 33.4854 50.1852 29.5614C49.4674 24.2984 45.2087 19.9914 39.9452 19.2734Z" fill="#421983"/>
<path d="M33.1025 48.7495C32.5283 49.8505 31.8105 50.8555 30.9013 51.7645C30.6621 52.0035 30.375 52.2905 30.0879 52.4825L43.486 63.2965C43.7732 63.5355 44.156 63.4875 44.3952 63.2005L46.5963 60.4735C46.8356 60.1865 46.7877 59.8035 46.5006 59.5645L33.1025 48.7495Z" fill="#FF622D"/>
<path d="M22.0012 57.8415C18.1731 57.8415 14.2972 56.3584 11.3783 53.4394C5.54058 47.6014 5.54058 38.0794 11.3783 32.1934C17.2161 26.3554 26.7384 26.3554 32.624 32.1934C35.4472 35.0164 37.0262 38.7964 37.0262 42.8164C37.0262 46.8354 35.4472 50.6164 32.624 53.4394C29.6572 56.3584 25.8292 57.8415 22.0012 57.8415ZM22.0012 32.6244C19.3694 32.6244 16.7854 33.6294 14.7757 35.5904C10.8041 39.5624 10.8041 46.0224 14.7757 50.0414C18.7473 54.0134 25.2071 54.0134 29.2266 50.0414C31.1406 48.1274 32.1933 45.5434 32.1933 42.8164C32.1933 40.0884 31.1406 37.5044 29.2266 35.5904C27.2169 33.6294 24.5851 32.6244 22.0012 32.6244Z" fill="#FF622D"/>
<path d="M21.5225 36.3567V38.2227C21.5225 38.5577 21.7617 38.8447 22.0967 38.8927C23.9628 39.1797 25.3984 40.6157 25.6855 42.4817C25.7333 42.8167 26.0204 43.0557 26.3554 43.0557H28.2215C28.6522 43.0557 28.9871 42.6737 28.9393 42.2907C28.5565 38.7977 25.7812 36.0217 22.2881 35.6387C21.9053 35.5917 21.5225 35.9267 21.5225 36.3567Z" fill="#FF622D"/>
<rect x="0.5" y="0.5" width="69" height="69" stroke="white"/>
</svg>
