<svg width="70" height="70" viewBox="0 0 70 70" fill="none" xmlns="http://www.w3.org/2000/svg">
<path d="M32.0323 22.6382H18.0455C17.6609 22.6382 17.3726 22.3498 17.3726 21.9653V19.8985C17.3726 19.514 17.6609 19.2256 18.0455 19.2256H32.0323C32.4168 19.2256 32.7052 19.514 32.7052 19.8985V21.9653C32.6571 22.3498 32.3688 22.6382 32.0323 22.6382Z" fill="#898D9A"/>
<path d="M25.88 28.6948H18.0455C17.6609 28.6948 17.3726 28.4064 17.3726 28.0219V25.9551C17.3726 25.5706 17.6609 25.2822 18.0455 25.2822H25.88C26.2645 25.2822 26.5529 25.5706 26.5529 25.9551V28.0219C26.5048 28.4064 26.2165 28.6948 25.88 28.6948Z" fill="#898D9A"/>
<path d="M12.1816 50.9015H8.6729C8.28839 50.9015 8 50.6131 8 50.2286V17.0159C8 13.0265 11.2203 9.80615 15.2097 9.80615H38.8575C39.2421 9.80615 39.5305 10.0945 39.5305 10.4791V13.9878C39.5305 14.3723 39.2421 14.6607 38.8575 14.6607H15.2097C13.912 14.6607 12.8545 15.7181 12.8545 17.0159V50.2767C12.8545 50.6131 12.5181 50.9015 12.1816 50.9015Z" fill="#898D9A"/>
<path d="M44.2892 61.4746H17.5171C17.1326 61.4746 16.8442 61.1862 16.8442 60.8017V57.2929C16.8442 56.9084 17.1326 56.62 17.5171 56.62H44.2892C45.587 56.62 46.6444 55.5626 46.6444 54.2649V40.23C46.6444 39.8454 46.9328 39.5571 47.3173 39.5571H50.826C51.2105 39.5571 51.4989 39.8454 51.4989 40.23V54.2649C51.4989 58.2542 48.2786 61.4746 44.2892 61.4746Z" fill="#898D9A"/>
<path d="M31.6479 48.9778H22.4195C22.035 48.9778 21.7466 48.6895 21.7466 48.3049V39.1246C21.7466 38.5959 21.9388 38.1152 22.3234 37.7788L50.9219 9.18025C51.1622 8.93992 51.5948 8.93992 51.8351 9.18025L54.3345 11.6796C54.5748 11.9199 54.5748 12.3525 54.3345 12.5928L26.6011 40.3262V44.1714H30.4463L58.1796 16.438C58.42 16.1977 58.8526 16.1977 59.0929 16.438L61.5923 18.9374C61.8326 19.1777 61.8326 19.6103 61.5923 19.8506L32.9937 48.4491C32.6573 48.7856 32.1766 48.9778 31.6479 48.9778Z" fill="#898D9A"/>
<rect x="0.5" y="0.5" width="69" height="69" stroke="white"/>
</svg>
