<svg width="70" height="70" viewBox="0 0 70 70" fill="none" xmlns="http://www.w3.org/2000/svg">
<path d="M16.9729 46.7253L15.4766 45.2289C15.2272 44.9796 15.2272 44.5306 15.4766 44.2812L22.7588 36.9991C23.0082 36.7497 23.4571 36.7497 23.7065 36.9991L28.9437 42.2363L32.5848 38.645C32.8342 38.3956 33.283 38.3956 33.5324 38.645L35.0288 40.1913C35.2782 40.4406 35.2782 40.8895 35.0288 41.1389L29.3926 46.7253C29.1432 46.9747 28.6943 46.9747 28.4449 46.7253L23.2077 41.4881L17.9206 46.7751C17.6712 46.9747 17.2223 46.9747 16.9729 46.7253Z" fill="#898D9A"/>
<path d="M10.3394 53.3591H6.69827C6.29925 53.3591 6 53.0599 6 52.6608V18.1951C6 14.0552 9.34183 10.7134 13.4817 10.7134H21.0133C21.4123 10.7134 21.7116 11.0126 21.7116 11.4117V15.0528C21.7116 15.4518 21.4123 15.7511 21.0133 15.7511H13.4318C12.0851 15.7511 10.9878 16.8484 10.9878 18.1951V52.6608C10.9878 53.0599 10.6885 53.3591 10.3394 53.3591Z" fill="#898D9A"/>
<path d="M42.6605 64.3822H15.5767C15.1777 64.3822 14.8784 64.0829 14.8784 63.6839V60.0428C14.8784 59.6438 15.1777 59.3445 15.5767 59.3445H42.6605C44.0072 59.3445 45.1045 58.2472 45.1045 56.9005V42.2862C45.1045 41.8872 45.4038 41.5879 45.8028 41.5879H49.4439C49.8429 41.5879 50.1422 41.8872 50.1422 42.2862V56.9005C50.1422 61.0403 46.8004 64.3822 42.6605 64.3822Z" fill="#898D9A"/>
<path d="M60.8658 44.7797L49.8428 33.7566L53.3841 30.2153L64.4072 41.2383C64.6566 41.4877 64.6566 41.9366 64.4072 42.186L61.8135 44.7797C61.5641 45.0291 61.1152 45.0291 60.8658 44.7797Z" fill="#898D9A"/>
<path d="M41.064 37.2985C37.0738 37.2985 33.0337 35.7522 29.9911 32.7097C23.906 26.6246 23.906 16.6988 29.9911 10.5638C36.0762 4.47872 46.002 4.47872 52.137 10.5638C58.2221 16.6489 58.2221 26.5747 52.137 32.7097C49.0944 35.7522 45.1042 37.2985 41.064 37.2985ZM41.064 11.0127C38.3207 11.0127 35.6273 12.0602 33.5324 14.1052C29.3925 18.245 29.3925 24.9786 33.5324 29.1683C37.6723 33.3082 44.4058 33.3082 48.5956 29.1683C52.7355 25.0285 52.7355 18.2949 48.5956 14.1052C46.5007 12.0103 43.8073 11.0127 41.064 11.0127Z" fill="#898D9A"/>
<path d="M40.6152 14.8532V16.7984C40.6152 17.1476 40.8646 17.4468 41.2138 17.4967C43.159 17.796 44.6554 19.2923 44.9546 21.2376C45.0045 21.5867 45.3038 21.8361 45.6529 21.8361H47.5982C48.0471 21.8361 48.3962 21.4371 48.3463 21.038C47.9473 17.397 45.0544 14.504 41.4133 14.105C40.9644 14.105 40.6152 14.4541 40.6152 14.8532Z" fill="#898D9A"/>
<rect x="0.5" y="0.5" width="69" height="69" stroke="white"/>
</svg>
