<svg width="70" height="70" viewBox="0 0 70 70" fill="none" xmlns="http://www.w3.org/2000/svg">
<path d="M30.8627 36.9429H28.9276C24.0897 36.9429 19.8323 33.3145 19.4937 28.4282C19.155 23.1065 23.364 18.7041 28.5889 18.7041C33.3784 18.7041 37.3455 22.4292 37.6841 27.122C37.7325 27.509 37.3939 27.7993 37.0068 27.7993H34.9265C34.5879 27.7993 34.2976 27.5574 34.2492 27.2187C33.9106 23.929 30.8143 21.4617 27.3311 22.1874C25.154 22.6228 23.4124 24.3644 22.977 26.5414C22.2029 30.2182 25.0089 33.508 28.5405 33.508H30.8143C31.2014 33.508 31.4917 33.7983 31.4917 34.1853V36.2656C31.54 36.6042 31.2497 36.9429 30.8627 36.9429Z" fill="#898D9A"/>
<path d="M28.638 50.5373C23.4131 50.5373 19.1557 46.4734 18.8171 41.3453C18.7687 40.9583 19.1073 40.668 19.4944 40.668H21.5747C21.9133 40.668 22.2036 40.9099 22.252 41.2485C22.5422 44.5383 25.2998 47.1024 28.6863 47.1024C32.0245 47.1024 34.8305 44.5383 35.1207 41.2485C35.1691 40.9099 35.4594 40.668 35.798 40.668H37.8783C38.2653 40.668 38.5556 40.9583 38.5556 41.3453C38.1202 46.4734 33.8145 50.5373 28.638 50.5373Z" fill="#898D9A"/>
<path d="M30.3308 20.3975H26.9443V15.5596C26.9443 15.1726 27.2346 14.8823 27.6216 14.8823H29.7019C30.0889 14.8823 30.3792 15.1726 30.3792 15.5596V20.3975H30.3308Z" fill="#898D9A"/>
<path d="M29.6541 54.3106H27.5738C27.1868 54.3106 26.8965 54.0203 26.8965 53.6333V48.7954H30.2831V53.6333C30.3314 54.0203 30.0411 54.3106 29.6541 54.3106Z" fill="#898D9A"/>
<path d="M44.7965 50.5857C40.1037 55.3268 33.3791 58.036 26.0255 57.2136C15.5757 56.0525 7.15776 47.6346 5.99667 37.1848C4.44855 23.4936 15.1887 11.8343 28.5896 11.8343C38.2653 11.8343 46.5381 17.8816 49.8279 26.3963C49.9246 26.6382 50.1665 26.8317 50.4568 26.8317H54.2303C54.6658 26.8317 55.0044 26.3963 54.8593 25.9609C51.0857 14.4951 39.9586 6.31908 27.0415 7.04476C13.2535 7.81882 1.98123 18.946 1.06203 32.7339C-0.00230049 48.7957 12.7697 62.1966 28.6379 62.1966C36.185 62.1966 43.0548 59.1487 48.0862 54.1657C48.3281 53.9238 48.3281 53.5368 48.1346 53.2465L45.8608 50.5373C45.5221 50.2954 45.0868 50.2954 44.7965 50.5857Z" fill="#898D9A"/>
<path d="M59.2619 52.2788L57.7138 55.6169C57.5202 56.0523 56.9397 56.1491 56.6011 55.7621L37.0076 32.8305C36.6206 32.3951 36.9593 31.7178 37.4914 31.7178H67.6797C68.1635 31.7178 68.5023 32.2016 68.2604 32.637L66.7122 35.9751C66.5187 36.3622 66.1317 36.6524 65.6963 36.6524H46.7802L59.0684 51.0209C59.3587 51.408 59.407 51.8434 59.2619 52.2788Z" fill="#898D9A"/>
<rect x="0.5" y="0.5" width="69" height="69" stroke="white"/>
</svg>
