<svg width="70" height="70" viewBox="0 0 70 70" fill="none" xmlns="http://www.w3.org/2000/svg">
<path d="M42.29 66.8879L28.846 56.9766H12.3599C8.28741 56.9766 5 53.6892 5 49.6168V21.8946C5 17.8221 8.28741 14.5347 12.3599 14.5347H28.846C29.2385 14.5347 29.5329 14.8291 29.5329 15.2216V18.8034C29.5329 19.196 29.2385 19.4904 28.846 19.4904H12.3599C11.0351 19.4904 9.95563 20.5698 9.95563 21.8946V49.6168C9.95563 50.9415 11.0351 52.021 12.3599 52.021H29.8273C30.2689 52.021 30.6614 52.1682 31.0049 52.4135L38.4629 57.9089V52.7079C38.4629 52.3154 38.7573 52.021 39.1498 52.021H47.491V48.3901C47.491 47.9976 47.7854 47.7032 48.1779 47.7032H51.7597C52.1522 47.7032 52.4466 47.9976 52.4466 48.3901V56.2897C52.4466 56.6822 52.1522 56.9766 51.7597 56.9766H43.3694L43.3204 66.3482C43.3694 66.8879 42.7316 67.2314 42.29 66.8879Z" fill="#898D9A"/>
<path d="M52.0044 42.7968H36.1562C35.7636 42.7968 35.4692 42.5024 35.4692 42.1099V38.5281C35.4692 38.1356 35.7636 37.8412 36.1562 37.8412H52.0044C56.8619 37.8412 58.8246 31.3645 60.0021 25.771C60.1003 25.2312 60.1984 24.7896 60.2965 24.4953C60.4437 23.8574 60.3946 23.2195 60.0512 22.827C59.8059 22.5326 59.4624 22.3364 58.9718 22.3364H47.8338C47.3922 22.3364 47.0488 21.8948 47.196 21.5022L48.0301 18.6564C48.8642 15.7615 49.2077 14.584 49.2077 11.64V10.4624C49.2077 9.23579 48.7661 8.30355 47.932 7.66569C47.245 7.17503 46.2637 6.9297 45.3314 6.9297V14.0933C45.3314 14.633 45.1352 15.1237 44.7427 15.4672L37.7262 22.4836C37.4809 22.7289 37.0393 22.7289 36.794 22.4836L34.2426 19.9321C33.9972 19.6868 33.9972 19.2452 34.2426 18.9999L40.3758 12.8667V3.54417C40.3758 3.24977 40.5721 3.00443 40.8174 2.9063L42.0441 2.51378C45.1352 1.53246 48.4226 1.97405 50.7777 3.69136C52.9366 5.26146 54.0652 7.66568 54.0652 10.4624V11.64C54.0652 14.0933 53.8198 15.7125 53.4273 17.4298H58.9227C60.8853 17.4298 62.7008 18.313 63.8783 19.7849C65.1541 21.4041 65.5465 23.5139 65.0068 25.6728C64.9578 25.9182 64.8596 26.3107 64.7615 26.7523C63.9274 31.1682 61.5231 42.7968 52.0044 42.7968Z" fill="#898D9A"/>
<path d="M28.8948 29.3528H16.8247C16.4321 29.3528 16.1377 29.0584 16.1377 28.6659V26.556C16.1377 26.1635 16.4321 25.8691 16.8247 25.8691H28.8948C29.2874 25.8691 29.5818 26.1635 29.5818 26.556V28.6659C29.5327 29.0584 29.2383 29.3528 28.8948 29.3528Z" fill="#898D9A"/>
<path d="M28.8948 36.6146H16.8247C16.4321 36.6146 16.1377 36.3202 16.1377 35.9277V33.8179C16.1377 33.4253 16.4321 33.1309 16.8247 33.1309H28.8948C29.2874 33.1309 29.5818 33.4253 29.5818 33.8179V35.9277C29.5327 36.3202 29.2383 36.6146 28.8948 36.6146Z" fill="#898D9A"/>
<path d="M23.2523 43.8762H16.8247C16.4321 43.8762 16.1377 43.5818 16.1377 43.1893V41.0795C16.1377 40.687 16.4321 40.3926 16.8247 40.3926H23.2523C23.6448 40.3926 23.9392 40.687 23.9392 41.0795V43.1893C23.8901 43.5328 23.5957 43.8762 23.2523 43.8762Z" fill="#898D9A"/>
<rect x="0.5" y="0.5" width="69" height="69" stroke="white"/>
</svg>
