<svg width="70" height="70" viewBox="0 0 70 70" fill="none" xmlns="http://www.w3.org/2000/svg">
<path d="M68.1786 51.0665H63.7678V43.2629C63.7678 42.9236 63.4286 42.5844 63.0893 42.5844H59.3572C59.0179 42.5844 58.6786 42.9236 58.6786 43.2629V51.0665H11.1786V15.2718C11.1786 14.4236 11.8572 13.7451 12.7054 13.7451H30.8571C31.1964 13.7451 31.5357 13.4058 31.5357 13.0665V9.33433C31.5357 8.99505 31.1964 8.65576 30.8571 8.65576H12.7054C8.97325 8.65576 6.08928 11.5397 6.08928 15.2718V51.0665H1.67861C1.33933 51.0665 1 51.4058 1 51.7451V55.4772C1 55.8165 1.33933 56.1558 1.67861 56.1558H30.8571L23.0536 63.9594C22.7143 64.2986 22.7143 64.6379 23.0536 64.9772L25.7679 67.6915C26.1071 68.0308 26.4464 68.0308 26.7857 67.6915L35.0982 59.379L43.4107 67.6915C43.75 68.0308 44.0893 68.0308 44.4286 67.6915L47.1429 64.9772C47.4822 64.6379 47.4822 64.2986 47.1429 63.9594L39.3393 56.1558H68.5179C68.8572 56.1558 69.1964 55.8165 69.1964 55.4772V51.7451C68.8572 51.4058 68.5179 51.0665 68.1786 51.0665Z" fill="#898D9A"/>
<path d="M16.2686 45.2983C16.2686 45.6376 16.6079 45.9769 16.9472 45.9769H35.9471C36.2864 45.9769 36.6257 45.6376 36.6257 45.2983V43.2626C36.6257 42.9233 36.2864 42.584 35.9471 42.584H16.9472C16.6079 42.584 16.2686 42.9233 16.2686 43.2626V45.2983Z" fill="#898D9A"/>
<path d="M16.7763 37.495H25.5977C25.937 37.495 26.2763 37.1557 26.2763 36.8164V34.7807C26.2763 34.4414 25.937 34.1021 25.5977 34.1021H16.7763C16.437 34.1021 16.0977 34.4414 16.0977 34.7807V36.8164C16.2674 37.1557 16.437 37.495 16.7763 37.495Z" fill="#898D9A"/>
<path d="M55.2852 20.8701C57.8299 18.4951 59.1871 14.763 58.5085 10.8612C57.6603 6.45043 54.2674 3.05756 49.8567 2.20935C42.7317 0.852212 36.6245 6.28078 36.6245 13.0665C36.6245 16.1201 37.9817 19.004 40.0174 21.0397C34.9281 23.754 31.5352 29.013 31.5352 35.1201V36.9862C31.5352 37.3254 31.8746 37.6647 32.2138 37.6647H35.946C36.2852 37.6647 36.6245 37.3254 36.6245 36.9862V35.4594C36.6245 29.8612 40.696 24.7719 46.1245 24.0933C52.9102 23.2451 58.6781 28.504 58.6781 34.9504V36.8165C58.6781 37.1558 59.0174 37.4951 59.3567 37.4951H63.0888C63.4281 37.4951 63.7674 37.1558 63.7674 36.8165V34.9504C63.7674 28.8433 60.2049 23.5844 55.2852 20.8701ZM47.4817 18.8344C44.2585 18.8344 41.5442 16.1201 41.5442 12.8969C41.5442 9.67364 44.2585 6.95936 47.4817 6.95936C50.7049 6.95936 53.4192 9.67364 53.4192 12.8969C53.4192 16.1201 50.8746 18.8344 47.4817 18.8344Z" fill="#898D9A"/>
<rect x="0.5" y="0.5" width="69" height="69" stroke="white"/>
</svg>
